G04 #@! TF.GenerationSoftware,KiCad,Pcbnew,(5.1.12)-1*
G04 #@! TF.CreationDate,2021-12-16T20:59:02-05:00*
G04 #@! TF.ProjectId,KBD8X-MK2,4b424438-582d-44d4-9b32-2e6b69636164,rev?*
G04 #@! TF.SameCoordinates,Original*
G04 #@! TF.FileFunction,Copper,L1,Top*
G04 #@! TF.FilePolarity,Positive*
%FSLAX46Y46*%
G04 Gerber Fmt 4.6, Leading zero omitted, Abs format (unit mm)*
G04 Created by KiCad (PCBNEW (5.1.12)-1) date 2021-12-16 20:59:02*
%MOMM*%
%LPD*%
G01*
G04 APERTURE LIST*
G04 #@! TA.AperFunction,ComponentPad*
%ADD10R,1.905000X1.905000*%
G04 #@! TD*
G04 #@! TA.AperFunction,ComponentPad*
%ADD11C,1.905000*%
G04 #@! TD*
G04 #@! TA.AperFunction,ComponentPad*
%ADD12C,2.250000*%
G04 #@! TD*
G04 #@! TA.AperFunction,ComponentPad*
%ADD13O,1.000000X1.600000*%
G04 #@! TD*
G04 #@! TA.AperFunction,ComponentPad*
%ADD14O,1.000000X2.100000*%
G04 #@! TD*
G04 #@! TA.AperFunction,ComponentPad*
%ADD15C,1.700000*%
G04 #@! TD*
G04 #@! TA.AperFunction,ComponentPad*
%ADD16R,1.700000X1.700000*%
G04 #@! TD*
G04 #@! TA.AperFunction,ViaPad*
%ADD17C,0.600000*%
G04 #@! TD*
G04 #@! TA.AperFunction,Conductor*
%ADD18C,0.381000*%
G04 #@! TD*
G04 #@! TA.AperFunction,Conductor*
%ADD19C,0.254000*%
G04 #@! TD*
G04 APERTURE END LIST*
D10*
X277495000Y-68580000D03*
D11*
X274955000Y-68580000D03*
D12*
X273725000Y-59500000D03*
G04 #@! TA.AperFunction,ComponentPad*
G36*
G01*
X271663688Y-61797350D02*
X271663683Y-61797345D01*
G75*
G02*
X271577655Y-60208683I751317J837345D01*
G01*
X272887657Y-58748683D01*
G75*
G02*
X274476319Y-58662655I837345J-751317D01*
G01*
X274476319Y-58662655D01*
G75*
G02*
X274562347Y-60251317I-751317J-837345D01*
G01*
X273252345Y-61711317D01*
G75*
G02*
X271663683Y-61797345I-837345J751317D01*
G01*
G37*
G04 #@! TD.AperFunction*
X278765000Y-58420000D03*
G04 #@! TA.AperFunction,ComponentPad*
G36*
G01*
X278648483Y-60122395D02*
X278647597Y-60122334D01*
G75*
G02*
X277602666Y-58922597I77403J1122334D01*
G01*
X277642666Y-58342597D01*
G75*
G02*
X278842403Y-57297666I1122334J-77403D01*
G01*
X278842403Y-57297666D01*
G75*
G02*
X279887334Y-58497403I-77403J-1122334D01*
G01*
X279847334Y-59077403D01*
G75*
G02*
X278647597Y-60122334I-1122334J77403D01*
G01*
G37*
G04 #@! TD.AperFunction*
D10*
X48895000Y-44767500D03*
D11*
X46355000Y-44767500D03*
D12*
X45125000Y-35687500D03*
G04 #@! TA.AperFunction,ComponentPad*
G36*
G01*
X43063688Y-37984850D02*
X43063683Y-37984845D01*
G75*
G02*
X42977655Y-36396183I751317J837345D01*
G01*
X44287657Y-34936183D01*
G75*
G02*
X45876319Y-34850155I837345J-751317D01*
G01*
X45876319Y-34850155D01*
G75*
G02*
X45962347Y-36438817I-751317J-837345D01*
G01*
X44652345Y-37898817D01*
G75*
G02*
X43063683Y-37984845I-837345J751317D01*
G01*
G37*
G04 #@! TD.AperFunction*
X50165000Y-34607500D03*
G04 #@! TA.AperFunction,ComponentPad*
G36*
G01*
X50048483Y-36309895D02*
X50047597Y-36309834D01*
G75*
G02*
X49002666Y-35110097I77403J1122334D01*
G01*
X49042666Y-34530097D01*
G75*
G02*
X50242403Y-33485166I1122334J-77403D01*
G01*
X50242403Y-33485166D01*
G75*
G02*
X51287334Y-34684903I-77403J-1122334D01*
G01*
X51247334Y-35264903D01*
G75*
G02*
X50047597Y-36309834I-1122334J77403D01*
G01*
G37*
G04 #@! TD.AperFunction*
D10*
X182245000Y-144780000D03*
D11*
X179705000Y-144780000D03*
D12*
X178475000Y-135700000D03*
G04 #@! TA.AperFunction,ComponentPad*
G36*
G01*
X176413688Y-137997350D02*
X176413683Y-137997345D01*
G75*
G02*
X176327655Y-136408683I751317J837345D01*
G01*
X177637657Y-134948683D01*
G75*
G02*
X179226319Y-134862655I837345J-751317D01*
G01*
X179226319Y-134862655D01*
G75*
G02*
X179312347Y-136451317I-751317J-837345D01*
G01*
X178002345Y-137911317D01*
G75*
G02*
X176413683Y-137997345I-837345J751317D01*
G01*
G37*
G04 #@! TD.AperFunction*
X183515000Y-134620000D03*
G04 #@! TA.AperFunction,ComponentPad*
G36*
G01*
X183398483Y-136322395D02*
X183397597Y-136322334D01*
G75*
G02*
X182352666Y-135122597I77403J1122334D01*
G01*
X182392666Y-134542597D01*
G75*
G02*
X183592403Y-133497666I1122334J-77403D01*
G01*
X183592403Y-133497666D01*
G75*
G02*
X184637334Y-134697403I-77403J-1122334D01*
G01*
X184597334Y-135277403D01*
G75*
G02*
X183397597Y-136322334I-1122334J77403D01*
G01*
G37*
G04 #@! TD.AperFunction*
D10*
X170338750Y-144780000D03*
D11*
X167798750Y-144780000D03*
D12*
X166568750Y-135700000D03*
G04 #@! TA.AperFunction,ComponentPad*
G36*
G01*
X164507438Y-137997350D02*
X164507433Y-137997345D01*
G75*
G02*
X164421405Y-136408683I751317J837345D01*
G01*
X165731407Y-134948683D01*
G75*
G02*
X167320069Y-134862655I837345J-751317D01*
G01*
X167320069Y-134862655D01*
G75*
G02*
X167406097Y-136451317I-751317J-837345D01*
G01*
X166096095Y-137911317D01*
G75*
G02*
X164507433Y-137997345I-837345J751317D01*
G01*
G37*
G04 #@! TD.AperFunction*
X171608750Y-134620000D03*
G04 #@! TA.AperFunction,ComponentPad*
G36*
G01*
X171492233Y-136322395D02*
X171491347Y-136322334D01*
G75*
G02*
X170446416Y-135122597I77403J1122334D01*
G01*
X170486416Y-134542597D01*
G75*
G02*
X171686153Y-133497666I1122334J-77403D01*
G01*
X171686153Y-133497666D01*
G75*
G02*
X172731084Y-134697403I-77403J-1122334D01*
G01*
X172691084Y-135277403D01*
G75*
G02*
X171491347Y-136322334I-1122334J77403D01*
G01*
G37*
G04 #@! TD.AperFunction*
D10*
X377507500Y-144780000D03*
D11*
X374967500Y-144780000D03*
D12*
X373737500Y-135700000D03*
G04 #@! TA.AperFunction,ComponentPad*
G36*
G01*
X371676188Y-137997350D02*
X371676183Y-137997345D01*
G75*
G02*
X371590155Y-136408683I751317J837345D01*
G01*
X372900157Y-134948683D01*
G75*
G02*
X374488819Y-134862655I837345J-751317D01*
G01*
X374488819Y-134862655D01*
G75*
G02*
X374574847Y-136451317I-751317J-837345D01*
G01*
X373264845Y-137911317D01*
G75*
G02*
X371676183Y-137997345I-837345J751317D01*
G01*
G37*
G04 #@! TD.AperFunction*
X378777500Y-134620000D03*
G04 #@! TA.AperFunction,ComponentPad*
G36*
G01*
X378660983Y-136322395D02*
X378660097Y-136322334D01*
G75*
G02*
X377615166Y-135122597I77403J1122334D01*
G01*
X377655166Y-134542597D01*
G75*
G02*
X378854903Y-133497666I1122334J-77403D01*
G01*
X378854903Y-133497666D01*
G75*
G02*
X379899834Y-134697403I-77403J-1122334D01*
G01*
X379859834Y-135277403D01*
G75*
G02*
X378660097Y-136322334I-1122334J77403D01*
G01*
G37*
G04 #@! TD.AperFunction*
D10*
X286861250Y-144780000D03*
D11*
X289401250Y-144780000D03*
D12*
X285631250Y-135700000D03*
G04 #@! TA.AperFunction,ComponentPad*
G36*
G01*
X283569938Y-137997350D02*
X283569933Y-137997345D01*
G75*
G02*
X283483905Y-136408683I751317J837345D01*
G01*
X284793907Y-134948683D01*
G75*
G02*
X286382569Y-134862655I837345J-751317D01*
G01*
X286382569Y-134862655D01*
G75*
G02*
X286468597Y-136451317I-751317J-837345D01*
G01*
X285158595Y-137911317D01*
G75*
G02*
X283569933Y-137997345I-837345J751317D01*
G01*
G37*
G04 #@! TD.AperFunction*
X290671250Y-134620000D03*
G04 #@! TA.AperFunction,ComponentPad*
G36*
G01*
X290554733Y-136322395D02*
X290553847Y-136322334D01*
G75*
G02*
X289508916Y-135122597I77403J1122334D01*
G01*
X289548916Y-134542597D01*
G75*
G02*
X290748653Y-133497666I1122334J-77403D01*
G01*
X290748653Y-133497666D01*
G75*
G02*
X291793584Y-134697403I-77403J-1122334D01*
G01*
X291753584Y-135277403D01*
G75*
G02*
X290553847Y-136322334I-1122334J77403D01*
G01*
G37*
G04 #@! TD.AperFunction*
D10*
X287020000Y-144780000D03*
D11*
X284480000Y-144780000D03*
D12*
X283250000Y-135700000D03*
G04 #@! TA.AperFunction,ComponentPad*
G36*
G01*
X281188688Y-137997350D02*
X281188683Y-137997345D01*
G75*
G02*
X281102655Y-136408683I751317J837345D01*
G01*
X282412657Y-134948683D01*
G75*
G02*
X284001319Y-134862655I837345J-751317D01*
G01*
X284001319Y-134862655D01*
G75*
G02*
X284087347Y-136451317I-751317J-837345D01*
G01*
X282777345Y-137911317D01*
G75*
G02*
X281188683Y-137997345I-837345J751317D01*
G01*
G37*
G04 #@! TD.AperFunction*
X288290000Y-134620000D03*
G04 #@! TA.AperFunction,ComponentPad*
G36*
G01*
X288173483Y-136322395D02*
X288172597Y-136322334D01*
G75*
G02*
X287127666Y-135122597I77403J1122334D01*
G01*
X287167666Y-134542597D01*
G75*
G02*
X288367403Y-133497666I1122334J-77403D01*
G01*
X288367403Y-133497666D01*
G75*
G02*
X289412334Y-134697403I-77403J-1122334D01*
G01*
X289372334Y-135277403D01*
G75*
G02*
X288172597Y-136322334I-1122334J77403D01*
G01*
G37*
G04 #@! TD.AperFunction*
D10*
X263048750Y-144780000D03*
D11*
X265588750Y-144780000D03*
D12*
X261818750Y-135700000D03*
G04 #@! TA.AperFunction,ComponentPad*
G36*
G01*
X259757438Y-137997350D02*
X259757433Y-137997345D01*
G75*
G02*
X259671405Y-136408683I751317J837345D01*
G01*
X260981407Y-134948683D01*
G75*
G02*
X262570069Y-134862655I837345J-751317D01*
G01*
X262570069Y-134862655D01*
G75*
G02*
X262656097Y-136451317I-751317J-837345D01*
G01*
X261346095Y-137911317D01*
G75*
G02*
X259757433Y-137997345I-837345J751317D01*
G01*
G37*
G04 #@! TD.AperFunction*
X266858750Y-134620000D03*
G04 #@! TA.AperFunction,ComponentPad*
G36*
G01*
X266742233Y-136322395D02*
X266741347Y-136322334D01*
G75*
G02*
X265696416Y-135122597I77403J1122334D01*
G01*
X265736416Y-134542597D01*
G75*
G02*
X266936153Y-133497666I1122334J-77403D01*
G01*
X266936153Y-133497666D01*
G75*
G02*
X267981084Y-134697403I-77403J-1122334D01*
G01*
X267941084Y-135277403D01*
G75*
G02*
X266741347Y-136322334I-1122334J77403D01*
G01*
G37*
G04 #@! TD.AperFunction*
D10*
X310832500Y-144780000D03*
D11*
X308292500Y-144780000D03*
D12*
X307062500Y-135700000D03*
G04 #@! TA.AperFunction,ComponentPad*
G36*
G01*
X305001188Y-137997350D02*
X305001183Y-137997345D01*
G75*
G02*
X304915155Y-136408683I751317J837345D01*
G01*
X306225157Y-134948683D01*
G75*
G02*
X307813819Y-134862655I837345J-751317D01*
G01*
X307813819Y-134862655D01*
G75*
G02*
X307899847Y-136451317I-751317J-837345D01*
G01*
X306589845Y-137911317D01*
G75*
G02*
X305001183Y-137997345I-837345J751317D01*
G01*
G37*
G04 #@! TD.AperFunction*
X312102500Y-134620000D03*
G04 #@! TA.AperFunction,ComponentPad*
G36*
G01*
X311985983Y-136322395D02*
X311985097Y-136322334D01*
G75*
G02*
X310940166Y-135122597I77403J1122334D01*
G01*
X310980166Y-134542597D01*
G75*
G02*
X312179903Y-133497666I1122334J-77403D01*
G01*
X312179903Y-133497666D01*
G75*
G02*
X313224834Y-134697403I-77403J-1122334D01*
G01*
X313184834Y-135277403D01*
G75*
G02*
X311985097Y-136322334I-1122334J77403D01*
G01*
G37*
G04 #@! TD.AperFunction*
D10*
X310673750Y-144780000D03*
D11*
X313213750Y-144780000D03*
D12*
X309443750Y-135700000D03*
G04 #@! TA.AperFunction,ComponentPad*
G36*
G01*
X307382438Y-137997350D02*
X307382433Y-137997345D01*
G75*
G02*
X307296405Y-136408683I751317J837345D01*
G01*
X308606407Y-134948683D01*
G75*
G02*
X310195069Y-134862655I837345J-751317D01*
G01*
X310195069Y-134862655D01*
G75*
G02*
X310281097Y-136451317I-751317J-837345D01*
G01*
X308971095Y-137911317D01*
G75*
G02*
X307382433Y-137997345I-837345J751317D01*
G01*
G37*
G04 #@! TD.AperFunction*
X314483750Y-134620000D03*
G04 #@! TA.AperFunction,ComponentPad*
G36*
G01*
X314367233Y-136322395D02*
X314366347Y-136322334D01*
G75*
G02*
X313321416Y-135122597I77403J1122334D01*
G01*
X313361416Y-134542597D01*
G75*
G02*
X314561153Y-133497666I1122334J-77403D01*
G01*
X314561153Y-133497666D01*
G75*
G02*
X315606084Y-134697403I-77403J-1122334D01*
G01*
X315566084Y-135277403D01*
G75*
G02*
X314366347Y-136322334I-1122334J77403D01*
G01*
G37*
G04 #@! TD.AperFunction*
D10*
X263207500Y-144780000D03*
D11*
X260667500Y-144780000D03*
D12*
X259437500Y-135700000D03*
G04 #@! TA.AperFunction,ComponentPad*
G36*
G01*
X257376188Y-137997350D02*
X257376183Y-137997345D01*
G75*
G02*
X257290155Y-136408683I751317J837345D01*
G01*
X258600157Y-134948683D01*
G75*
G02*
X260188819Y-134862655I837345J-751317D01*
G01*
X260188819Y-134862655D01*
G75*
G02*
X260274847Y-136451317I-751317J-837345D01*
G01*
X258964845Y-137911317D01*
G75*
G02*
X257376183Y-137997345I-837345J751317D01*
G01*
G37*
G04 #@! TD.AperFunction*
X264477500Y-134620000D03*
G04 #@! TA.AperFunction,ComponentPad*
G36*
G01*
X264360983Y-136322395D02*
X264360097Y-136322334D01*
G75*
G02*
X263315166Y-135122597I77403J1122334D01*
G01*
X263355166Y-134542597D01*
G75*
G02*
X264554903Y-133497666I1122334J-77403D01*
G01*
X264554903Y-133497666D01*
G75*
G02*
X265599834Y-134697403I-77403J-1122334D01*
G01*
X265559834Y-135277403D01*
G75*
G02*
X264360097Y-136322334I-1122334J77403D01*
G01*
G37*
G04 #@! TD.AperFunction*
D10*
X241776250Y-144780000D03*
D11*
X239236250Y-144780000D03*
D12*
X238006250Y-135700000D03*
G04 #@! TA.AperFunction,ComponentPad*
G36*
G01*
X235944938Y-137997350D02*
X235944933Y-137997345D01*
G75*
G02*
X235858905Y-136408683I751317J837345D01*
G01*
X237168907Y-134948683D01*
G75*
G02*
X238757569Y-134862655I837345J-751317D01*
G01*
X238757569Y-134862655D01*
G75*
G02*
X238843597Y-136451317I-751317J-837345D01*
G01*
X237533595Y-137911317D01*
G75*
G02*
X235944933Y-137997345I-837345J751317D01*
G01*
G37*
G04 #@! TD.AperFunction*
X243046250Y-134620000D03*
G04 #@! TA.AperFunction,ComponentPad*
G36*
G01*
X242929733Y-136322395D02*
X242928847Y-136322334D01*
G75*
G02*
X241883916Y-135122597I77403J1122334D01*
G01*
X241923916Y-134542597D01*
G75*
G02*
X243123653Y-133497666I1122334J-77403D01*
G01*
X243123653Y-133497666D01*
G75*
G02*
X244168584Y-134697403I-77403J-1122334D01*
G01*
X244128584Y-135277403D01*
G75*
G02*
X242928847Y-136322334I-1122334J77403D01*
G01*
G37*
G04 #@! TD.AperFunction*
D10*
X74930000Y-144780000D03*
D11*
X77470000Y-144780000D03*
D12*
X73700000Y-135700000D03*
G04 #@! TA.AperFunction,ComponentPad*
G36*
G01*
X71638688Y-137997350D02*
X71638683Y-137997345D01*
G75*
G02*
X71552655Y-136408683I751317J837345D01*
G01*
X72862657Y-134948683D01*
G75*
G02*
X74451319Y-134862655I837345J-751317D01*
G01*
X74451319Y-134862655D01*
G75*
G02*
X74537347Y-136451317I-751317J-837345D01*
G01*
X73227345Y-137911317D01*
G75*
G02*
X71638683Y-137997345I-837345J751317D01*
G01*
G37*
G04 #@! TD.AperFunction*
X78740000Y-134620000D03*
G04 #@! TA.AperFunction,ComponentPad*
G36*
G01*
X78623483Y-136322395D02*
X78622597Y-136322334D01*
G75*
G02*
X77577666Y-135122597I77403J1122334D01*
G01*
X77617666Y-134542597D01*
G75*
G02*
X78817403Y-133497666I1122334J-77403D01*
G01*
X78817403Y-133497666D01*
G75*
G02*
X79862334Y-134697403I-77403J-1122334D01*
G01*
X79822334Y-135277403D01*
G75*
G02*
X78622597Y-136322334I-1122334J77403D01*
G01*
G37*
G04 #@! TD.AperFunction*
D10*
X75088750Y-144780000D03*
D11*
X72548750Y-144780000D03*
D12*
X71318750Y-135700000D03*
G04 #@! TA.AperFunction,ComponentPad*
G36*
G01*
X69257438Y-137997350D02*
X69257433Y-137997345D01*
G75*
G02*
X69171405Y-136408683I751317J837345D01*
G01*
X70481407Y-134948683D01*
G75*
G02*
X72070069Y-134862655I837345J-751317D01*
G01*
X72070069Y-134862655D01*
G75*
G02*
X72156097Y-136451317I-751317J-837345D01*
G01*
X70846095Y-137911317D01*
G75*
G02*
X69257433Y-137997345I-837345J751317D01*
G01*
G37*
G04 #@! TD.AperFunction*
X76358750Y-134620000D03*
G04 #@! TA.AperFunction,ComponentPad*
G36*
G01*
X76242233Y-136322395D02*
X76241347Y-136322334D01*
G75*
G02*
X75196416Y-135122597I77403J1122334D01*
G01*
X75236416Y-134542597D01*
G75*
G02*
X76436153Y-133497666I1122334J-77403D01*
G01*
X76436153Y-133497666D01*
G75*
G02*
X77481084Y-134697403I-77403J-1122334D01*
G01*
X77441084Y-135277403D01*
G75*
G02*
X76241347Y-136322334I-1122334J77403D01*
G01*
G37*
G04 #@! TD.AperFunction*
D10*
X339407500Y-144780000D03*
D11*
X336867500Y-144780000D03*
D12*
X335637500Y-135700000D03*
G04 #@! TA.AperFunction,ComponentPad*
G36*
G01*
X333576188Y-137997350D02*
X333576183Y-137997345D01*
G75*
G02*
X333490155Y-136408683I751317J837345D01*
G01*
X334800157Y-134948683D01*
G75*
G02*
X336388819Y-134862655I837345J-751317D01*
G01*
X336388819Y-134862655D01*
G75*
G02*
X336474847Y-136451317I-751317J-837345D01*
G01*
X335164845Y-137911317D01*
G75*
G02*
X333576183Y-137997345I-837345J751317D01*
G01*
G37*
G04 #@! TD.AperFunction*
X340677500Y-134620000D03*
G04 #@! TA.AperFunction,ComponentPad*
G36*
G01*
X340560983Y-136322395D02*
X340560097Y-136322334D01*
G75*
G02*
X339515166Y-135122597I77403J1122334D01*
G01*
X339555166Y-134542597D01*
G75*
G02*
X340754903Y-133497666I1122334J-77403D01*
G01*
X340754903Y-133497666D01*
G75*
G02*
X341799834Y-134697403I-77403J-1122334D01*
G01*
X341759834Y-135277403D01*
G75*
G02*
X340560097Y-136322334I-1122334J77403D01*
G01*
G37*
G04 #@! TD.AperFunction*
D10*
X51117500Y-144780000D03*
D11*
X53657500Y-144780000D03*
D12*
X49887500Y-135700000D03*
G04 #@! TA.AperFunction,ComponentPad*
G36*
G01*
X47826188Y-137997350D02*
X47826183Y-137997345D01*
G75*
G02*
X47740155Y-136408683I751317J837345D01*
G01*
X49050157Y-134948683D01*
G75*
G02*
X50638819Y-134862655I837345J-751317D01*
G01*
X50638819Y-134862655D01*
G75*
G02*
X50724847Y-136451317I-751317J-837345D01*
G01*
X49414845Y-137911317D01*
G75*
G02*
X47826183Y-137997345I-837345J751317D01*
G01*
G37*
G04 #@! TD.AperFunction*
X54927500Y-134620000D03*
G04 #@! TA.AperFunction,ComponentPad*
G36*
G01*
X54810983Y-136322395D02*
X54810097Y-136322334D01*
G75*
G02*
X53765166Y-135122597I77403J1122334D01*
G01*
X53805166Y-134542597D01*
G75*
G02*
X55004903Y-133497666I1122334J-77403D01*
G01*
X55004903Y-133497666D01*
G75*
G02*
X56049834Y-134697403I-77403J-1122334D01*
G01*
X56009834Y-135277403D01*
G75*
G02*
X54810097Y-136322334I-1122334J77403D01*
G01*
G37*
G04 #@! TD.AperFunction*
D10*
X51276250Y-144780000D03*
D11*
X48736250Y-144780000D03*
D12*
X47506250Y-135700000D03*
G04 #@! TA.AperFunction,ComponentPad*
G36*
G01*
X45444938Y-137997350D02*
X45444933Y-137997345D01*
G75*
G02*
X45358905Y-136408683I751317J837345D01*
G01*
X46668907Y-134948683D01*
G75*
G02*
X48257569Y-134862655I837345J-751317D01*
G01*
X48257569Y-134862655D01*
G75*
G02*
X48343597Y-136451317I-751317J-837345D01*
G01*
X47033595Y-137911317D01*
G75*
G02*
X45444933Y-137997345I-837345J751317D01*
G01*
G37*
G04 #@! TD.AperFunction*
X52546250Y-134620000D03*
G04 #@! TA.AperFunction,ComponentPad*
G36*
G01*
X52429733Y-136322395D02*
X52428847Y-136322334D01*
G75*
G02*
X51383916Y-135122597I77403J1122334D01*
G01*
X51423916Y-134542597D01*
G75*
G02*
X52623653Y-133497666I1122334J-77403D01*
G01*
X52623653Y-133497666D01*
G75*
G02*
X53668584Y-134697403I-77403J-1122334D01*
G01*
X53628584Y-135277403D01*
G75*
G02*
X52428847Y-136322334I-1122334J77403D01*
G01*
G37*
G04 #@! TD.AperFunction*
D10*
X98742500Y-144780000D03*
D11*
X101282500Y-144780000D03*
D12*
X97512500Y-135700000D03*
G04 #@! TA.AperFunction,ComponentPad*
G36*
G01*
X95451188Y-137997350D02*
X95451183Y-137997345D01*
G75*
G02*
X95365155Y-136408683I751317J837345D01*
G01*
X96675157Y-134948683D01*
G75*
G02*
X98263819Y-134862655I837345J-751317D01*
G01*
X98263819Y-134862655D01*
G75*
G02*
X98349847Y-136451317I-751317J-837345D01*
G01*
X97039845Y-137911317D01*
G75*
G02*
X95451183Y-137997345I-837345J751317D01*
G01*
G37*
G04 #@! TD.AperFunction*
X102552500Y-134620000D03*
G04 #@! TA.AperFunction,ComponentPad*
G36*
G01*
X102435983Y-136322395D02*
X102435097Y-136322334D01*
G75*
G02*
X101390166Y-135122597I77403J1122334D01*
G01*
X101430166Y-134542597D01*
G75*
G02*
X102629903Y-133497666I1122334J-77403D01*
G01*
X102629903Y-133497666D01*
G75*
G02*
X103674834Y-134697403I-77403J-1122334D01*
G01*
X103634834Y-135277403D01*
G75*
G02*
X102435097Y-136322334I-1122334J77403D01*
G01*
G37*
G04 #@! TD.AperFunction*
D10*
X98901250Y-144780000D03*
D11*
X96361250Y-144780000D03*
D12*
X95131250Y-135700000D03*
G04 #@! TA.AperFunction,ComponentPad*
G36*
G01*
X93069938Y-137997350D02*
X93069933Y-137997345D01*
G75*
G02*
X92983905Y-136408683I751317J837345D01*
G01*
X94293907Y-134948683D01*
G75*
G02*
X95882569Y-134862655I837345J-751317D01*
G01*
X95882569Y-134862655D01*
G75*
G02*
X95968597Y-136451317I-751317J-837345D01*
G01*
X94658595Y-137911317D01*
G75*
G02*
X93069933Y-137997345I-837345J751317D01*
G01*
G37*
G04 #@! TD.AperFunction*
X100171250Y-134620000D03*
G04 #@! TA.AperFunction,ComponentPad*
G36*
G01*
X100054733Y-136322395D02*
X100053847Y-136322334D01*
G75*
G02*
X99008916Y-135122597I77403J1122334D01*
G01*
X99048916Y-134542597D01*
G75*
G02*
X100248653Y-133497666I1122334J-77403D01*
G01*
X100248653Y-133497666D01*
G75*
G02*
X101293584Y-134697403I-77403J-1122334D01*
G01*
X101253584Y-135277403D01*
G75*
G02*
X100053847Y-136322334I-1122334J77403D01*
G01*
G37*
G04 #@! TD.AperFunction*
D10*
X358457500Y-144780000D03*
D11*
X355917500Y-144780000D03*
D12*
X354687500Y-135700000D03*
G04 #@! TA.AperFunction,ComponentPad*
G36*
G01*
X352626188Y-137997350D02*
X352626183Y-137997345D01*
G75*
G02*
X352540155Y-136408683I751317J837345D01*
G01*
X353850157Y-134948683D01*
G75*
G02*
X355438819Y-134862655I837345J-751317D01*
G01*
X355438819Y-134862655D01*
G75*
G02*
X355524847Y-136451317I-751317J-837345D01*
G01*
X354214845Y-137911317D01*
G75*
G02*
X352626183Y-137997345I-837345J751317D01*
G01*
G37*
G04 #@! TD.AperFunction*
X359727500Y-134620000D03*
G04 #@! TA.AperFunction,ComponentPad*
G36*
G01*
X359610983Y-136322395D02*
X359610097Y-136322334D01*
G75*
G02*
X358565166Y-135122597I77403J1122334D01*
G01*
X358605166Y-134542597D01*
G75*
G02*
X359804903Y-133497666I1122334J-77403D01*
G01*
X359804903Y-133497666D01*
G75*
G02*
X360849834Y-134697403I-77403J-1122334D01*
G01*
X360809834Y-135277403D01*
G75*
G02*
X359610097Y-136322334I-1122334J77403D01*
G01*
G37*
G04 #@! TD.AperFunction*
D10*
X91757500Y-125730000D03*
D11*
X89217500Y-125730000D03*
D12*
X87987500Y-116650000D03*
G04 #@! TA.AperFunction,ComponentPad*
G36*
G01*
X85926188Y-118947350D02*
X85926183Y-118947345D01*
G75*
G02*
X85840155Y-117358683I751317J837345D01*
G01*
X87150157Y-115898683D01*
G75*
G02*
X88738819Y-115812655I837345J-751317D01*
G01*
X88738819Y-115812655D01*
G75*
G02*
X88824847Y-117401317I-751317J-837345D01*
G01*
X87514845Y-118861317D01*
G75*
G02*
X85926183Y-118947345I-837345J751317D01*
G01*
G37*
G04 #@! TD.AperFunction*
X93027500Y-115570000D03*
G04 #@! TA.AperFunction,ComponentPad*
G36*
G01*
X92910983Y-117272395D02*
X92910097Y-117272334D01*
G75*
G02*
X91865166Y-116072597I77403J1122334D01*
G01*
X91905166Y-115492597D01*
G75*
G02*
X93104903Y-114447666I1122334J-77403D01*
G01*
X93104903Y-114447666D01*
G75*
G02*
X94149834Y-115647403I-77403J-1122334D01*
G01*
X94109834Y-116227403D01*
G75*
G02*
X92910097Y-117272334I-1122334J77403D01*
G01*
G37*
G04 #@! TD.AperFunction*
D10*
X110807500Y-125730000D03*
D11*
X108267500Y-125730000D03*
D12*
X107037500Y-116650000D03*
G04 #@! TA.AperFunction,ComponentPad*
G36*
G01*
X104976188Y-118947350D02*
X104976183Y-118947345D01*
G75*
G02*
X104890155Y-117358683I751317J837345D01*
G01*
X106200157Y-115898683D01*
G75*
G02*
X107788819Y-115812655I837345J-751317D01*
G01*
X107788819Y-115812655D01*
G75*
G02*
X107874847Y-117401317I-751317J-837345D01*
G01*
X106564845Y-118861317D01*
G75*
G02*
X104976183Y-118947345I-837345J751317D01*
G01*
G37*
G04 #@! TD.AperFunction*
X112077500Y-115570000D03*
G04 #@! TA.AperFunction,ComponentPad*
G36*
G01*
X111960983Y-117272395D02*
X111960097Y-117272334D01*
G75*
G02*
X110915166Y-116072597I77403J1122334D01*
G01*
X110955166Y-115492597D01*
G75*
G02*
X112154903Y-114447666I1122334J-77403D01*
G01*
X112154903Y-114447666D01*
G75*
G02*
X113199834Y-115647403I-77403J-1122334D01*
G01*
X113159834Y-116227403D01*
G75*
G02*
X111960097Y-117272334I-1122334J77403D01*
G01*
G37*
G04 #@! TD.AperFunction*
D10*
X148907500Y-125730000D03*
D11*
X146367500Y-125730000D03*
D12*
X145137500Y-116650000D03*
G04 #@! TA.AperFunction,ComponentPad*
G36*
G01*
X143076188Y-118947350D02*
X143076183Y-118947345D01*
G75*
G02*
X142990155Y-117358683I751317J837345D01*
G01*
X144300157Y-115898683D01*
G75*
G02*
X145888819Y-115812655I837345J-751317D01*
G01*
X145888819Y-115812655D01*
G75*
G02*
X145974847Y-117401317I-751317J-837345D01*
G01*
X144664845Y-118861317D01*
G75*
G02*
X143076183Y-118947345I-837345J751317D01*
G01*
G37*
G04 #@! TD.AperFunction*
X150177500Y-115570000D03*
G04 #@! TA.AperFunction,ComponentPad*
G36*
G01*
X150060983Y-117272395D02*
X150060097Y-117272334D01*
G75*
G02*
X149015166Y-116072597I77403J1122334D01*
G01*
X149055166Y-115492597D01*
G75*
G02*
X150254903Y-114447666I1122334J-77403D01*
G01*
X150254903Y-114447666D01*
G75*
G02*
X151299834Y-115647403I-77403J-1122334D01*
G01*
X151259834Y-116227403D01*
G75*
G02*
X150060097Y-117272334I-1122334J77403D01*
G01*
G37*
G04 #@! TD.AperFunction*
D10*
X358457500Y-125730000D03*
D11*
X355917500Y-125730000D03*
D12*
X354687500Y-116650000D03*
G04 #@! TA.AperFunction,ComponentPad*
G36*
G01*
X352626188Y-118947350D02*
X352626183Y-118947345D01*
G75*
G02*
X352540155Y-117358683I751317J837345D01*
G01*
X353850157Y-115898683D01*
G75*
G02*
X355438819Y-115812655I837345J-751317D01*
G01*
X355438819Y-115812655D01*
G75*
G02*
X355524847Y-117401317I-751317J-837345D01*
G01*
X354214845Y-118861317D01*
G75*
G02*
X352626183Y-118947345I-837345J751317D01*
G01*
G37*
G04 #@! TD.AperFunction*
X359727500Y-115570000D03*
G04 #@! TA.AperFunction,ComponentPad*
G36*
G01*
X359610983Y-117272395D02*
X359610097Y-117272334D01*
G75*
G02*
X358565166Y-116072597I77403J1122334D01*
G01*
X358605166Y-115492597D01*
G75*
G02*
X359804903Y-114447666I1122334J-77403D01*
G01*
X359804903Y-114447666D01*
G75*
G02*
X360849834Y-115647403I-77403J-1122334D01*
G01*
X360809834Y-116227403D01*
G75*
G02*
X359610097Y-117272334I-1122334J77403D01*
G01*
G37*
G04 #@! TD.AperFunction*
D10*
X315595000Y-125730000D03*
D11*
X313055000Y-125730000D03*
D12*
X311825000Y-116650000D03*
G04 #@! TA.AperFunction,ComponentPad*
G36*
G01*
X309763688Y-118947350D02*
X309763683Y-118947345D01*
G75*
G02*
X309677655Y-117358683I751317J837345D01*
G01*
X310987657Y-115898683D01*
G75*
G02*
X312576319Y-115812655I837345J-751317D01*
G01*
X312576319Y-115812655D01*
G75*
G02*
X312662347Y-117401317I-751317J-837345D01*
G01*
X311352345Y-118861317D01*
G75*
G02*
X309763683Y-118947345I-837345J751317D01*
G01*
G37*
G04 #@! TD.AperFunction*
X316865000Y-115570000D03*
G04 #@! TA.AperFunction,ComponentPad*
G36*
G01*
X316748483Y-117272395D02*
X316747597Y-117272334D01*
G75*
G02*
X315702666Y-116072597I77403J1122334D01*
G01*
X315742666Y-115492597D01*
G75*
G02*
X316942403Y-114447666I1122334J-77403D01*
G01*
X316942403Y-114447666D01*
G75*
G02*
X317987334Y-115647403I-77403J-1122334D01*
G01*
X317947334Y-116227403D01*
G75*
G02*
X316747597Y-117272334I-1122334J77403D01*
G01*
G37*
G04 #@! TD.AperFunction*
D10*
X289401250Y-125730000D03*
D11*
X286861250Y-125730000D03*
D12*
X285631250Y-116650000D03*
G04 #@! TA.AperFunction,ComponentPad*
G36*
G01*
X283569938Y-118947350D02*
X283569933Y-118947345D01*
G75*
G02*
X283483905Y-117358683I751317J837345D01*
G01*
X284793907Y-115898683D01*
G75*
G02*
X286382569Y-115812655I837345J-751317D01*
G01*
X286382569Y-115812655D01*
G75*
G02*
X286468597Y-117401317I-751317J-837345D01*
G01*
X285158595Y-118861317D01*
G75*
G02*
X283569933Y-118947345I-837345J751317D01*
G01*
G37*
G04 #@! TD.AperFunction*
X290671250Y-115570000D03*
G04 #@! TA.AperFunction,ComponentPad*
G36*
G01*
X290554733Y-117272395D02*
X290553847Y-117272334D01*
G75*
G02*
X289508916Y-116072597I77403J1122334D01*
G01*
X289548916Y-115492597D01*
G75*
G02*
X290748653Y-114447666I1122334J-77403D01*
G01*
X290748653Y-114447666D01*
G75*
G02*
X291793584Y-115647403I-77403J-1122334D01*
G01*
X291753584Y-116227403D01*
G75*
G02*
X290553847Y-117272334I-1122334J77403D01*
G01*
G37*
G04 #@! TD.AperFunction*
D10*
X298926250Y-125730000D03*
D11*
X296386250Y-125730000D03*
D12*
X295156250Y-116650000D03*
G04 #@! TA.AperFunction,ComponentPad*
G36*
G01*
X293094938Y-118947350D02*
X293094933Y-118947345D01*
G75*
G02*
X293008905Y-117358683I751317J837345D01*
G01*
X294318907Y-115898683D01*
G75*
G02*
X295907569Y-115812655I837345J-751317D01*
G01*
X295907569Y-115812655D01*
G75*
G02*
X295993597Y-117401317I-751317J-837345D01*
G01*
X294683595Y-118861317D01*
G75*
G02*
X293094933Y-118947345I-837345J751317D01*
G01*
G37*
G04 #@! TD.AperFunction*
X300196250Y-115570000D03*
G04 #@! TA.AperFunction,ComponentPad*
G36*
G01*
X300079733Y-117272395D02*
X300078847Y-117272334D01*
G75*
G02*
X299033916Y-116072597I77403J1122334D01*
G01*
X299073916Y-115492597D01*
G75*
G02*
X300273653Y-114447666I1122334J-77403D01*
G01*
X300273653Y-114447666D01*
G75*
G02*
X301318584Y-115647403I-77403J-1122334D01*
G01*
X301278584Y-116227403D01*
G75*
G02*
X300078847Y-117272334I-1122334J77403D01*
G01*
G37*
G04 #@! TD.AperFunction*
D10*
X187007500Y-125730000D03*
D11*
X184467500Y-125730000D03*
D12*
X183237500Y-116650000D03*
G04 #@! TA.AperFunction,ComponentPad*
G36*
G01*
X181176188Y-118947350D02*
X181176183Y-118947345D01*
G75*
G02*
X181090155Y-117358683I751317J837345D01*
G01*
X182400157Y-115898683D01*
G75*
G02*
X183988819Y-115812655I837345J-751317D01*
G01*
X183988819Y-115812655D01*
G75*
G02*
X184074847Y-117401317I-751317J-837345D01*
G01*
X182764845Y-118861317D01*
G75*
G02*
X181176183Y-118947345I-837345J751317D01*
G01*
G37*
G04 #@! TD.AperFunction*
X188277500Y-115570000D03*
G04 #@! TA.AperFunction,ComponentPad*
G36*
G01*
X188160983Y-117272395D02*
X188160097Y-117272334D01*
G75*
G02*
X187115166Y-116072597I77403J1122334D01*
G01*
X187155166Y-115492597D01*
G75*
G02*
X188354903Y-114447666I1122334J-77403D01*
G01*
X188354903Y-114447666D01*
G75*
G02*
X189399834Y-115647403I-77403J-1122334D01*
G01*
X189359834Y-116227403D01*
G75*
G02*
X188160097Y-117272334I-1122334J77403D01*
G01*
G37*
G04 #@! TD.AperFunction*
D10*
X206057500Y-125730000D03*
D11*
X203517500Y-125730000D03*
D12*
X202287500Y-116650000D03*
G04 #@! TA.AperFunction,ComponentPad*
G36*
G01*
X200226188Y-118947350D02*
X200226183Y-118947345D01*
G75*
G02*
X200140155Y-117358683I751317J837345D01*
G01*
X201450157Y-115898683D01*
G75*
G02*
X203038819Y-115812655I837345J-751317D01*
G01*
X203038819Y-115812655D01*
G75*
G02*
X203124847Y-117401317I-751317J-837345D01*
G01*
X201814845Y-118861317D01*
G75*
G02*
X200226183Y-118947345I-837345J751317D01*
G01*
G37*
G04 #@! TD.AperFunction*
X207327500Y-115570000D03*
G04 #@! TA.AperFunction,ComponentPad*
G36*
G01*
X207210983Y-117272395D02*
X207210097Y-117272334D01*
G75*
G02*
X206165166Y-116072597I77403J1122334D01*
G01*
X206205166Y-115492597D01*
G75*
G02*
X207404903Y-114447666I1122334J-77403D01*
G01*
X207404903Y-114447666D01*
G75*
G02*
X208449834Y-115647403I-77403J-1122334D01*
G01*
X208409834Y-116227403D01*
G75*
G02*
X207210097Y-117272334I-1122334J77403D01*
G01*
G37*
G04 #@! TD.AperFunction*
D10*
X72707500Y-125730000D03*
D11*
X70167500Y-125730000D03*
D12*
X68937500Y-116650000D03*
G04 #@! TA.AperFunction,ComponentPad*
G36*
G01*
X66876188Y-118947350D02*
X66876183Y-118947345D01*
G75*
G02*
X66790155Y-117358683I751317J837345D01*
G01*
X68100157Y-115898683D01*
G75*
G02*
X69688819Y-115812655I837345J-751317D01*
G01*
X69688819Y-115812655D01*
G75*
G02*
X69774847Y-117401317I-751317J-837345D01*
G01*
X68464845Y-118861317D01*
G75*
G02*
X66876183Y-118947345I-837345J751317D01*
G01*
G37*
G04 #@! TD.AperFunction*
X73977500Y-115570000D03*
G04 #@! TA.AperFunction,ComponentPad*
G36*
G01*
X73860983Y-117272395D02*
X73860097Y-117272334D01*
G75*
G02*
X72815166Y-116072597I77403J1122334D01*
G01*
X72855166Y-115492597D01*
G75*
G02*
X74054903Y-114447666I1122334J-77403D01*
G01*
X74054903Y-114447666D01*
G75*
G02*
X75099834Y-115647403I-77403J-1122334D01*
G01*
X75059834Y-116227403D01*
G75*
G02*
X73860097Y-117272334I-1122334J77403D01*
G01*
G37*
G04 #@! TD.AperFunction*
D10*
X51276250Y-125730000D03*
D11*
X48736250Y-125730000D03*
D12*
X47506250Y-116650000D03*
G04 #@! TA.AperFunction,ComponentPad*
G36*
G01*
X45444938Y-118947350D02*
X45444933Y-118947345D01*
G75*
G02*
X45358905Y-117358683I751317J837345D01*
G01*
X46668907Y-115898683D01*
G75*
G02*
X48257569Y-115812655I837345J-751317D01*
G01*
X48257569Y-115812655D01*
G75*
G02*
X48343597Y-117401317I-751317J-837345D01*
G01*
X47033595Y-118861317D01*
G75*
G02*
X45444933Y-118947345I-837345J751317D01*
G01*
G37*
G04 #@! TD.AperFunction*
X52546250Y-115570000D03*
G04 #@! TA.AperFunction,ComponentPad*
G36*
G01*
X52429733Y-117272395D02*
X52428847Y-117272334D01*
G75*
G02*
X51383916Y-116072597I77403J1122334D01*
G01*
X51423916Y-115492597D01*
G75*
G02*
X52623653Y-114447666I1122334J-77403D01*
G01*
X52623653Y-114447666D01*
G75*
G02*
X53668584Y-115647403I-77403J-1122334D01*
G01*
X53628584Y-116227403D01*
G75*
G02*
X52428847Y-117272334I-1122334J77403D01*
G01*
G37*
G04 #@! TD.AperFunction*
D10*
X60801250Y-125730000D03*
D11*
X58261250Y-125730000D03*
D12*
X57031250Y-116650000D03*
G04 #@! TA.AperFunction,ComponentPad*
G36*
G01*
X54969938Y-118947350D02*
X54969933Y-118947345D01*
G75*
G02*
X54883905Y-117358683I751317J837345D01*
G01*
X56193907Y-115898683D01*
G75*
G02*
X57782569Y-115812655I837345J-751317D01*
G01*
X57782569Y-115812655D01*
G75*
G02*
X57868597Y-117401317I-751317J-837345D01*
G01*
X56558595Y-118861317D01*
G75*
G02*
X54969933Y-118947345I-837345J751317D01*
G01*
G37*
G04 #@! TD.AperFunction*
X62071250Y-115570000D03*
G04 #@! TA.AperFunction,ComponentPad*
G36*
G01*
X61954733Y-117272395D02*
X61953847Y-117272334D01*
G75*
G02*
X60908916Y-116072597I77403J1122334D01*
G01*
X60948916Y-115492597D01*
G75*
G02*
X62148653Y-114447666I1122334J-77403D01*
G01*
X62148653Y-114447666D01*
G75*
G02*
X63193584Y-115647403I-77403J-1122334D01*
G01*
X63153584Y-116227403D01*
G75*
G02*
X61953847Y-117272334I-1122334J77403D01*
G01*
G37*
G04 #@! TD.AperFunction*
D10*
X129857500Y-125730000D03*
D11*
X127317500Y-125730000D03*
D12*
X126087500Y-116650000D03*
G04 #@! TA.AperFunction,ComponentPad*
G36*
G01*
X124026188Y-118947350D02*
X124026183Y-118947345D01*
G75*
G02*
X123940155Y-117358683I751317J837345D01*
G01*
X125250157Y-115898683D01*
G75*
G02*
X126838819Y-115812655I837345J-751317D01*
G01*
X126838819Y-115812655D01*
G75*
G02*
X126924847Y-117401317I-751317J-837345D01*
G01*
X125614845Y-118861317D01*
G75*
G02*
X124026183Y-118947345I-837345J751317D01*
G01*
G37*
G04 #@! TD.AperFunction*
X131127500Y-115570000D03*
G04 #@! TA.AperFunction,ComponentPad*
G36*
G01*
X131010983Y-117272395D02*
X131010097Y-117272334D01*
G75*
G02*
X129965166Y-116072597I77403J1122334D01*
G01*
X130005166Y-115492597D01*
G75*
G02*
X131204903Y-114447666I1122334J-77403D01*
G01*
X131204903Y-114447666D01*
G75*
G02*
X132249834Y-115647403I-77403J-1122334D01*
G01*
X132209834Y-116227403D01*
G75*
G02*
X131010097Y-117272334I-1122334J77403D01*
G01*
G37*
G04 #@! TD.AperFunction*
D10*
X167957500Y-125730000D03*
D11*
X165417500Y-125730000D03*
D12*
X164187500Y-116650000D03*
G04 #@! TA.AperFunction,ComponentPad*
G36*
G01*
X162126188Y-118947350D02*
X162126183Y-118947345D01*
G75*
G02*
X162040155Y-117358683I751317J837345D01*
G01*
X163350157Y-115898683D01*
G75*
G02*
X164938819Y-115812655I837345J-751317D01*
G01*
X164938819Y-115812655D01*
G75*
G02*
X165024847Y-117401317I-751317J-837345D01*
G01*
X163714845Y-118861317D01*
G75*
G02*
X162126183Y-118947345I-837345J751317D01*
G01*
G37*
G04 #@! TD.AperFunction*
X169227500Y-115570000D03*
G04 #@! TA.AperFunction,ComponentPad*
G36*
G01*
X169110983Y-117272395D02*
X169110097Y-117272334D01*
G75*
G02*
X168065166Y-116072597I77403J1122334D01*
G01*
X168105166Y-115492597D01*
G75*
G02*
X169304903Y-114447666I1122334J-77403D01*
G01*
X169304903Y-114447666D01*
G75*
G02*
X170349834Y-115647403I-77403J-1122334D01*
G01*
X170309834Y-116227403D01*
G75*
G02*
X169110097Y-117272334I-1122334J77403D01*
G01*
G37*
G04 #@! TD.AperFunction*
D10*
X263207500Y-125730000D03*
D11*
X260667500Y-125730000D03*
D12*
X259437500Y-116650000D03*
G04 #@! TA.AperFunction,ComponentPad*
G36*
G01*
X257376188Y-118947350D02*
X257376183Y-118947345D01*
G75*
G02*
X257290155Y-117358683I751317J837345D01*
G01*
X258600157Y-115898683D01*
G75*
G02*
X260188819Y-115812655I837345J-751317D01*
G01*
X260188819Y-115812655D01*
G75*
G02*
X260274847Y-117401317I-751317J-837345D01*
G01*
X258964845Y-118861317D01*
G75*
G02*
X257376183Y-118947345I-837345J751317D01*
G01*
G37*
G04 #@! TD.AperFunction*
X264477500Y-115570000D03*
G04 #@! TA.AperFunction,ComponentPad*
G36*
G01*
X264360983Y-117272395D02*
X264360097Y-117272334D01*
G75*
G02*
X263315166Y-116072597I77403J1122334D01*
G01*
X263355166Y-115492597D01*
G75*
G02*
X264554903Y-114447666I1122334J-77403D01*
G01*
X264554903Y-114447666D01*
G75*
G02*
X265599834Y-115647403I-77403J-1122334D01*
G01*
X265559834Y-116227403D01*
G75*
G02*
X264360097Y-117272334I-1122334J77403D01*
G01*
G37*
G04 #@! TD.AperFunction*
D10*
X225107500Y-125730000D03*
D11*
X222567500Y-125730000D03*
D12*
X221337500Y-116650000D03*
G04 #@! TA.AperFunction,ComponentPad*
G36*
G01*
X219276188Y-118947350D02*
X219276183Y-118947345D01*
G75*
G02*
X219190155Y-117358683I751317J837345D01*
G01*
X220500157Y-115898683D01*
G75*
G02*
X222088819Y-115812655I837345J-751317D01*
G01*
X222088819Y-115812655D01*
G75*
G02*
X222174847Y-117401317I-751317J-837345D01*
G01*
X220864845Y-118861317D01*
G75*
G02*
X219276183Y-118947345I-837345J751317D01*
G01*
G37*
G04 #@! TD.AperFunction*
X226377500Y-115570000D03*
G04 #@! TA.AperFunction,ComponentPad*
G36*
G01*
X226260983Y-117272395D02*
X226260097Y-117272334D01*
G75*
G02*
X225215166Y-116072597I77403J1122334D01*
G01*
X225255166Y-115492597D01*
G75*
G02*
X226454903Y-114447666I1122334J-77403D01*
G01*
X226454903Y-114447666D01*
G75*
G02*
X227499834Y-115647403I-77403J-1122334D01*
G01*
X227459834Y-116227403D01*
G75*
G02*
X226260097Y-117272334I-1122334J77403D01*
G01*
G37*
G04 #@! TD.AperFunction*
D10*
X244157500Y-125730000D03*
D11*
X241617500Y-125730000D03*
D12*
X240387500Y-116650000D03*
G04 #@! TA.AperFunction,ComponentPad*
G36*
G01*
X238326188Y-118947350D02*
X238326183Y-118947345D01*
G75*
G02*
X238240155Y-117358683I751317J837345D01*
G01*
X239550157Y-115898683D01*
G75*
G02*
X241138819Y-115812655I837345J-751317D01*
G01*
X241138819Y-115812655D01*
G75*
G02*
X241224847Y-117401317I-751317J-837345D01*
G01*
X239914845Y-118861317D01*
G75*
G02*
X238326183Y-118947345I-837345J751317D01*
G01*
G37*
G04 #@! TD.AperFunction*
X245427500Y-115570000D03*
G04 #@! TA.AperFunction,ComponentPad*
G36*
G01*
X245310983Y-117272395D02*
X245310097Y-117272334D01*
G75*
G02*
X244265166Y-116072597I77403J1122334D01*
G01*
X244305166Y-115492597D01*
G75*
G02*
X245504903Y-114447666I1122334J-77403D01*
G01*
X245504903Y-114447666D01*
G75*
G02*
X246549834Y-115647403I-77403J-1122334D01*
G01*
X246509834Y-116227403D01*
G75*
G02*
X245310097Y-117272334I-1122334J77403D01*
G01*
G37*
G04 #@! TD.AperFunction*
D11*
X306863750Y-90805000D03*
D10*
X306863750Y-93345000D03*
D12*
X315943750Y-89575000D03*
G04 #@! TA.AperFunction,ComponentPad*
G36*
G01*
X313646400Y-87513688D02*
X313646400Y-87513688D01*
G75*
G02*
X315235062Y-87427650I837350J-751312D01*
G01*
X316695070Y-88737640D01*
G75*
G02*
X316781108Y-90326302I-751312J-837350D01*
G01*
X316781108Y-90326302D01*
G75*
G02*
X315192446Y-90412340I-837350J751312D01*
G01*
X313732438Y-89102350D01*
G75*
G02*
X313646400Y-87513688I751312J837350D01*
G01*
G37*
G04 #@! TD.AperFunction*
X317023750Y-94615000D03*
G04 #@! TA.AperFunction,ComponentPad*
G36*
G01*
X315321355Y-94498483D02*
X315321355Y-94498483D01*
G75*
G02*
X316520267Y-93452605I1122395J-76517D01*
G01*
X317100299Y-93492147D01*
G75*
G02*
X318146177Y-94691059I-76517J-1122395D01*
G01*
X318146177Y-94691059D01*
G75*
G02*
X316947265Y-95736937I-1122395J76517D01*
G01*
X316367233Y-95697395D01*
G75*
G02*
X315321355Y-94498483I76517J1122395D01*
G01*
G37*
G04 #@! TD.AperFunction*
D10*
X303688750Y-106680000D03*
D11*
X301148750Y-106680000D03*
D12*
X299918750Y-97600000D03*
G04 #@! TA.AperFunction,ComponentPad*
G36*
G01*
X297857438Y-99897350D02*
X297857433Y-99897345D01*
G75*
G02*
X297771405Y-98308683I751317J837345D01*
G01*
X299081407Y-96848683D01*
G75*
G02*
X300670069Y-96762655I837345J-751317D01*
G01*
X300670069Y-96762655D01*
G75*
G02*
X300756097Y-98351317I-751317J-837345D01*
G01*
X299446095Y-99811317D01*
G75*
G02*
X297857433Y-99897345I-837345J751317D01*
G01*
G37*
G04 #@! TD.AperFunction*
X304958750Y-96520000D03*
G04 #@! TA.AperFunction,ComponentPad*
G36*
G01*
X304842233Y-98222395D02*
X304841347Y-98222334D01*
G75*
G02*
X303796416Y-97022597I77403J1122334D01*
G01*
X303836416Y-96442597D01*
G75*
G02*
X305036153Y-95397666I1122334J-77403D01*
G01*
X305036153Y-95397666D01*
G75*
G02*
X306081084Y-96597403I-77403J-1122334D01*
G01*
X306041084Y-97177403D01*
G75*
G02*
X304841347Y-98222334I-1122334J77403D01*
G01*
G37*
G04 #@! TD.AperFunction*
D10*
X315595000Y-68580000D03*
D11*
X313055000Y-68580000D03*
D12*
X311825000Y-59500000D03*
G04 #@! TA.AperFunction,ComponentPad*
G36*
G01*
X309763688Y-61797350D02*
X309763683Y-61797345D01*
G75*
G02*
X309677655Y-60208683I751317J837345D01*
G01*
X310987657Y-58748683D01*
G75*
G02*
X312576319Y-58662655I837345J-751317D01*
G01*
X312576319Y-58662655D01*
G75*
G02*
X312662347Y-60251317I-751317J-837345D01*
G01*
X311352345Y-61711317D01*
G75*
G02*
X309763683Y-61797345I-837345J751317D01*
G01*
G37*
G04 #@! TD.AperFunction*
X316865000Y-58420000D03*
G04 #@! TA.AperFunction,ComponentPad*
G36*
G01*
X316748483Y-60122395D02*
X316747597Y-60122334D01*
G75*
G02*
X315702666Y-58922597I77403J1122334D01*
G01*
X315742666Y-58342597D01*
G75*
G02*
X316942403Y-57297666I1122334J-77403D01*
G01*
X316942403Y-57297666D01*
G75*
G02*
X317987334Y-58497403I-77403J-1122334D01*
G01*
X317947334Y-59077403D01*
G75*
G02*
X316747597Y-60122334I-1122334J77403D01*
G01*
G37*
G04 #@! TD.AperFunction*
D10*
X101282500Y-106680000D03*
D11*
X98742500Y-106680000D03*
D12*
X97512500Y-97600000D03*
G04 #@! TA.AperFunction,ComponentPad*
G36*
G01*
X95451188Y-99897350D02*
X95451183Y-99897345D01*
G75*
G02*
X95365155Y-98308683I751317J837345D01*
G01*
X96675157Y-96848683D01*
G75*
G02*
X98263819Y-96762655I837345J-751317D01*
G01*
X98263819Y-96762655D01*
G75*
G02*
X98349847Y-98351317I-751317J-837345D01*
G01*
X97039845Y-99811317D01*
G75*
G02*
X95451183Y-99897345I-837345J751317D01*
G01*
G37*
G04 #@! TD.AperFunction*
X102552500Y-96520000D03*
G04 #@! TA.AperFunction,ComponentPad*
G36*
G01*
X102435983Y-98222395D02*
X102435097Y-98222334D01*
G75*
G02*
X101390166Y-97022597I77403J1122334D01*
G01*
X101430166Y-96442597D01*
G75*
G02*
X102629903Y-95397666I1122334J-77403D01*
G01*
X102629903Y-95397666D01*
G75*
G02*
X103674834Y-96597403I-77403J-1122334D01*
G01*
X103634834Y-97177403D01*
G75*
G02*
X102435097Y-98222334I-1122334J77403D01*
G01*
G37*
G04 #@! TD.AperFunction*
D10*
X234632500Y-106680000D03*
D11*
X232092500Y-106680000D03*
D12*
X230862500Y-97600000D03*
G04 #@! TA.AperFunction,ComponentPad*
G36*
G01*
X228801188Y-99897350D02*
X228801183Y-99897345D01*
G75*
G02*
X228715155Y-98308683I751317J837345D01*
G01*
X230025157Y-96848683D01*
G75*
G02*
X231613819Y-96762655I837345J-751317D01*
G01*
X231613819Y-96762655D01*
G75*
G02*
X231699847Y-98351317I-751317J-837345D01*
G01*
X230389845Y-99811317D01*
G75*
G02*
X228801183Y-99897345I-837345J751317D01*
G01*
G37*
G04 #@! TD.AperFunction*
X235902500Y-96520000D03*
G04 #@! TA.AperFunction,ComponentPad*
G36*
G01*
X235785983Y-98222395D02*
X235785097Y-98222334D01*
G75*
G02*
X234740166Y-97022597I77403J1122334D01*
G01*
X234780166Y-96442597D01*
G75*
G02*
X235979903Y-95397666I1122334J-77403D01*
G01*
X235979903Y-95397666D01*
G75*
G02*
X237024834Y-96597403I-77403J-1122334D01*
G01*
X236984834Y-97177403D01*
G75*
G02*
X235785097Y-98222334I-1122334J77403D01*
G01*
G37*
G04 #@! TD.AperFunction*
D10*
X215582500Y-106680000D03*
D11*
X213042500Y-106680000D03*
D12*
X211812500Y-97600000D03*
G04 #@! TA.AperFunction,ComponentPad*
G36*
G01*
X209751188Y-99897350D02*
X209751183Y-99897345D01*
G75*
G02*
X209665155Y-98308683I751317J837345D01*
G01*
X210975157Y-96848683D01*
G75*
G02*
X212563819Y-96762655I837345J-751317D01*
G01*
X212563819Y-96762655D01*
G75*
G02*
X212649847Y-98351317I-751317J-837345D01*
G01*
X211339845Y-99811317D01*
G75*
G02*
X209751183Y-99897345I-837345J751317D01*
G01*
G37*
G04 #@! TD.AperFunction*
X216852500Y-96520000D03*
G04 #@! TA.AperFunction,ComponentPad*
G36*
G01*
X216735983Y-98222395D02*
X216735097Y-98222334D01*
G75*
G02*
X215690166Y-97022597I77403J1122334D01*
G01*
X215730166Y-96442597D01*
G75*
G02*
X216929903Y-95397666I1122334J-77403D01*
G01*
X216929903Y-95397666D01*
G75*
G02*
X217974834Y-96597403I-77403J-1122334D01*
G01*
X217934834Y-97177403D01*
G75*
G02*
X216735097Y-98222334I-1122334J77403D01*
G01*
G37*
G04 #@! TD.AperFunction*
D10*
X196532500Y-106680000D03*
D11*
X193992500Y-106680000D03*
D12*
X192762500Y-97600000D03*
G04 #@! TA.AperFunction,ComponentPad*
G36*
G01*
X190701188Y-99897350D02*
X190701183Y-99897345D01*
G75*
G02*
X190615155Y-98308683I751317J837345D01*
G01*
X191925157Y-96848683D01*
G75*
G02*
X193513819Y-96762655I837345J-751317D01*
G01*
X193513819Y-96762655D01*
G75*
G02*
X193599847Y-98351317I-751317J-837345D01*
G01*
X192289845Y-99811317D01*
G75*
G02*
X190701183Y-99897345I-837345J751317D01*
G01*
G37*
G04 #@! TD.AperFunction*
X197802500Y-96520000D03*
G04 #@! TA.AperFunction,ComponentPad*
G36*
G01*
X197685983Y-98222395D02*
X197685097Y-98222334D01*
G75*
G02*
X196640166Y-97022597I77403J1122334D01*
G01*
X196680166Y-96442597D01*
G75*
G02*
X197879903Y-95397666I1122334J-77403D01*
G01*
X197879903Y-95397666D01*
G75*
G02*
X198924834Y-96597403I-77403J-1122334D01*
G01*
X198884834Y-97177403D01*
G75*
G02*
X197685097Y-98222334I-1122334J77403D01*
G01*
G37*
G04 #@! TD.AperFunction*
D10*
X177482500Y-106680000D03*
D11*
X174942500Y-106680000D03*
D12*
X173712500Y-97600000D03*
G04 #@! TA.AperFunction,ComponentPad*
G36*
G01*
X171651188Y-99897350D02*
X171651183Y-99897345D01*
G75*
G02*
X171565155Y-98308683I751317J837345D01*
G01*
X172875157Y-96848683D01*
G75*
G02*
X174463819Y-96762655I837345J-751317D01*
G01*
X174463819Y-96762655D01*
G75*
G02*
X174549847Y-98351317I-751317J-837345D01*
G01*
X173239845Y-99811317D01*
G75*
G02*
X171651183Y-99897345I-837345J751317D01*
G01*
G37*
G04 #@! TD.AperFunction*
X178752500Y-96520000D03*
G04 #@! TA.AperFunction,ComponentPad*
G36*
G01*
X178635983Y-98222395D02*
X178635097Y-98222334D01*
G75*
G02*
X177590166Y-97022597I77403J1122334D01*
G01*
X177630166Y-96442597D01*
G75*
G02*
X178829903Y-95397666I1122334J-77403D01*
G01*
X178829903Y-95397666D01*
G75*
G02*
X179874834Y-96597403I-77403J-1122334D01*
G01*
X179834834Y-97177403D01*
G75*
G02*
X178635097Y-98222334I-1122334J77403D01*
G01*
G37*
G04 #@! TD.AperFunction*
D10*
X158432500Y-106680000D03*
D11*
X155892500Y-106680000D03*
D12*
X154662500Y-97600000D03*
G04 #@! TA.AperFunction,ComponentPad*
G36*
G01*
X152601188Y-99897350D02*
X152601183Y-99897345D01*
G75*
G02*
X152515155Y-98308683I751317J837345D01*
G01*
X153825157Y-96848683D01*
G75*
G02*
X155413819Y-96762655I837345J-751317D01*
G01*
X155413819Y-96762655D01*
G75*
G02*
X155499847Y-98351317I-751317J-837345D01*
G01*
X154189845Y-99811317D01*
G75*
G02*
X152601183Y-99897345I-837345J751317D01*
G01*
G37*
G04 #@! TD.AperFunction*
X159702500Y-96520000D03*
G04 #@! TA.AperFunction,ComponentPad*
G36*
G01*
X159585983Y-98222395D02*
X159585097Y-98222334D01*
G75*
G02*
X158540166Y-97022597I77403J1122334D01*
G01*
X158580166Y-96442597D01*
G75*
G02*
X159779903Y-95397666I1122334J-77403D01*
G01*
X159779903Y-95397666D01*
G75*
G02*
X160824834Y-96597403I-77403J-1122334D01*
G01*
X160784834Y-97177403D01*
G75*
G02*
X159585097Y-98222334I-1122334J77403D01*
G01*
G37*
G04 #@! TD.AperFunction*
D10*
X139382500Y-106680000D03*
D11*
X136842500Y-106680000D03*
D12*
X135612500Y-97600000D03*
G04 #@! TA.AperFunction,ComponentPad*
G36*
G01*
X133551188Y-99897350D02*
X133551183Y-99897345D01*
G75*
G02*
X133465155Y-98308683I751317J837345D01*
G01*
X134775157Y-96848683D01*
G75*
G02*
X136363819Y-96762655I837345J-751317D01*
G01*
X136363819Y-96762655D01*
G75*
G02*
X136449847Y-98351317I-751317J-837345D01*
G01*
X135139845Y-99811317D01*
G75*
G02*
X133551183Y-99897345I-837345J751317D01*
G01*
G37*
G04 #@! TD.AperFunction*
X140652500Y-96520000D03*
G04 #@! TA.AperFunction,ComponentPad*
G36*
G01*
X140535983Y-98222395D02*
X140535097Y-98222334D01*
G75*
G02*
X139490166Y-97022597I77403J1122334D01*
G01*
X139530166Y-96442597D01*
G75*
G02*
X140729903Y-95397666I1122334J-77403D01*
G01*
X140729903Y-95397666D01*
G75*
G02*
X141774834Y-96597403I-77403J-1122334D01*
G01*
X141734834Y-97177403D01*
G75*
G02*
X140535097Y-98222334I-1122334J77403D01*
G01*
G37*
G04 #@! TD.AperFunction*
D10*
X120332500Y-106680000D03*
D11*
X117792500Y-106680000D03*
D12*
X116562500Y-97600000D03*
G04 #@! TA.AperFunction,ComponentPad*
G36*
G01*
X114501188Y-99897350D02*
X114501183Y-99897345D01*
G75*
G02*
X114415155Y-98308683I751317J837345D01*
G01*
X115725157Y-96848683D01*
G75*
G02*
X117313819Y-96762655I837345J-751317D01*
G01*
X117313819Y-96762655D01*
G75*
G02*
X117399847Y-98351317I-751317J-837345D01*
G01*
X116089845Y-99811317D01*
G75*
G02*
X114501183Y-99897345I-837345J751317D01*
G01*
G37*
G04 #@! TD.AperFunction*
X121602500Y-96520000D03*
G04 #@! TA.AperFunction,ComponentPad*
G36*
G01*
X121485983Y-98222395D02*
X121485097Y-98222334D01*
G75*
G02*
X120440166Y-97022597I77403J1122334D01*
G01*
X120480166Y-96442597D01*
G75*
G02*
X121679903Y-95397666I1122334J-77403D01*
G01*
X121679903Y-95397666D01*
G75*
G02*
X122724834Y-96597403I-77403J-1122334D01*
G01*
X122684834Y-97177403D01*
G75*
G02*
X121485097Y-98222334I-1122334J77403D01*
G01*
G37*
G04 #@! TD.AperFunction*
D10*
X48736250Y-106680000D03*
D11*
X51276250Y-106680000D03*
D12*
X47506250Y-97600000D03*
G04 #@! TA.AperFunction,ComponentPad*
G36*
G01*
X45444938Y-99897350D02*
X45444933Y-99897345D01*
G75*
G02*
X45358905Y-98308683I751317J837345D01*
G01*
X46668907Y-96848683D01*
G75*
G02*
X48257569Y-96762655I837345J-751317D01*
G01*
X48257569Y-96762655D01*
G75*
G02*
X48343597Y-98351317I-751317J-837345D01*
G01*
X47033595Y-99811317D01*
G75*
G02*
X45444933Y-99897345I-837345J751317D01*
G01*
G37*
G04 #@! TD.AperFunction*
X52546250Y-96520000D03*
G04 #@! TA.AperFunction,ComponentPad*
G36*
G01*
X52429733Y-98222395D02*
X52428847Y-98222334D01*
G75*
G02*
X51383916Y-97022597I77403J1122334D01*
G01*
X51423916Y-96442597D01*
G75*
G02*
X52623653Y-95397666I1122334J-77403D01*
G01*
X52623653Y-95397666D01*
G75*
G02*
X53668584Y-96597403I-77403J-1122334D01*
G01*
X53628584Y-97177403D01*
G75*
G02*
X52428847Y-98222334I-1122334J77403D01*
G01*
G37*
G04 #@! TD.AperFunction*
D10*
X56038750Y-106680000D03*
D11*
X53498750Y-106680000D03*
D12*
X52268750Y-97600000D03*
G04 #@! TA.AperFunction,ComponentPad*
G36*
G01*
X50207438Y-99897350D02*
X50207433Y-99897345D01*
G75*
G02*
X50121405Y-98308683I751317J837345D01*
G01*
X51431407Y-96848683D01*
G75*
G02*
X53020069Y-96762655I837345J-751317D01*
G01*
X53020069Y-96762655D01*
G75*
G02*
X53106097Y-98351317I-751317J-837345D01*
G01*
X51796095Y-99811317D01*
G75*
G02*
X50207433Y-99897345I-837345J751317D01*
G01*
G37*
G04 #@! TD.AperFunction*
X57308750Y-96520000D03*
G04 #@! TA.AperFunction,ComponentPad*
G36*
G01*
X57192233Y-98222395D02*
X57191347Y-98222334D01*
G75*
G02*
X56146416Y-97022597I77403J1122334D01*
G01*
X56186416Y-96442597D01*
G75*
G02*
X57386153Y-95397666I1122334J-77403D01*
G01*
X57386153Y-95397666D01*
G75*
G02*
X58431084Y-96597403I-77403J-1122334D01*
G01*
X58391084Y-97177403D01*
G75*
G02*
X57191347Y-98222334I-1122334J77403D01*
G01*
G37*
G04 #@! TD.AperFunction*
D10*
X82232500Y-106680000D03*
D11*
X79692500Y-106680000D03*
D12*
X78462500Y-97600000D03*
G04 #@! TA.AperFunction,ComponentPad*
G36*
G01*
X76401188Y-99897350D02*
X76401183Y-99897345D01*
G75*
G02*
X76315155Y-98308683I751317J837345D01*
G01*
X77625157Y-96848683D01*
G75*
G02*
X79213819Y-96762655I837345J-751317D01*
G01*
X79213819Y-96762655D01*
G75*
G02*
X79299847Y-98351317I-751317J-837345D01*
G01*
X77989845Y-99811317D01*
G75*
G02*
X76401183Y-99897345I-837345J751317D01*
G01*
G37*
G04 #@! TD.AperFunction*
X83502500Y-96520000D03*
G04 #@! TA.AperFunction,ComponentPad*
G36*
G01*
X83385983Y-98222395D02*
X83385097Y-98222334D01*
G75*
G02*
X82340166Y-97022597I77403J1122334D01*
G01*
X82380166Y-96442597D01*
G75*
G02*
X83579903Y-95397666I1122334J-77403D01*
G01*
X83579903Y-95397666D01*
G75*
G02*
X84624834Y-96597403I-77403J-1122334D01*
G01*
X84584834Y-97177403D01*
G75*
G02*
X83385097Y-98222334I-1122334J77403D01*
G01*
G37*
G04 #@! TD.AperFunction*
D10*
X253682500Y-106680000D03*
D11*
X251142500Y-106680000D03*
D12*
X249912500Y-97600000D03*
G04 #@! TA.AperFunction,ComponentPad*
G36*
G01*
X247851188Y-99897350D02*
X247851183Y-99897345D01*
G75*
G02*
X247765155Y-98308683I751317J837345D01*
G01*
X249075157Y-96848683D01*
G75*
G02*
X250663819Y-96762655I837345J-751317D01*
G01*
X250663819Y-96762655D01*
G75*
G02*
X250749847Y-98351317I-751317J-837345D01*
G01*
X249439845Y-99811317D01*
G75*
G02*
X247851183Y-99897345I-837345J751317D01*
G01*
G37*
G04 #@! TD.AperFunction*
X254952500Y-96520000D03*
G04 #@! TA.AperFunction,ComponentPad*
G36*
G01*
X254835983Y-98222395D02*
X254835097Y-98222334D01*
G75*
G02*
X253790166Y-97022597I77403J1122334D01*
G01*
X253830166Y-96442597D01*
G75*
G02*
X255029903Y-95397666I1122334J-77403D01*
G01*
X255029903Y-95397666D01*
G75*
G02*
X256074834Y-96597403I-77403J-1122334D01*
G01*
X256034834Y-97177403D01*
G75*
G02*
X254835097Y-98222334I-1122334J77403D01*
G01*
G37*
G04 #@! TD.AperFunction*
D10*
X272732500Y-106680000D03*
D11*
X270192500Y-106680000D03*
D12*
X268962500Y-97600000D03*
G04 #@! TA.AperFunction,ComponentPad*
G36*
G01*
X266901188Y-99897350D02*
X266901183Y-99897345D01*
G75*
G02*
X266815155Y-98308683I751317J837345D01*
G01*
X268125157Y-96848683D01*
G75*
G02*
X269713819Y-96762655I837345J-751317D01*
G01*
X269713819Y-96762655D01*
G75*
G02*
X269799847Y-98351317I-751317J-837345D01*
G01*
X268489845Y-99811317D01*
G75*
G02*
X266901183Y-99897345I-837345J751317D01*
G01*
G37*
G04 #@! TD.AperFunction*
X274002500Y-96520000D03*
G04 #@! TA.AperFunction,ComponentPad*
G36*
G01*
X273885983Y-98222395D02*
X273885097Y-98222334D01*
G75*
G02*
X272840166Y-97022597I77403J1122334D01*
G01*
X272880166Y-96442597D01*
G75*
G02*
X274079903Y-95397666I1122334J-77403D01*
G01*
X274079903Y-95397666D01*
G75*
G02*
X275124834Y-96597403I-77403J-1122334D01*
G01*
X275084834Y-97177403D01*
G75*
G02*
X273885097Y-98222334I-1122334J77403D01*
G01*
G37*
G04 #@! TD.AperFunction*
D10*
X53657500Y-87630000D03*
D11*
X51117500Y-87630000D03*
D12*
X49887500Y-78550000D03*
G04 #@! TA.AperFunction,ComponentPad*
G36*
G01*
X47826188Y-80847350D02*
X47826183Y-80847345D01*
G75*
G02*
X47740155Y-79258683I751317J837345D01*
G01*
X49050157Y-77798683D01*
G75*
G02*
X50638819Y-77712655I837345J-751317D01*
G01*
X50638819Y-77712655D01*
G75*
G02*
X50724847Y-79301317I-751317J-837345D01*
G01*
X49414845Y-80761317D01*
G75*
G02*
X47826183Y-80847345I-837345J751317D01*
G01*
G37*
G04 #@! TD.AperFunction*
X54927500Y-77470000D03*
G04 #@! TA.AperFunction,ComponentPad*
G36*
G01*
X54810983Y-79172395D02*
X54810097Y-79172334D01*
G75*
G02*
X53765166Y-77972597I77403J1122334D01*
G01*
X53805166Y-77392597D01*
G75*
G02*
X55004903Y-76347666I1122334J-77403D01*
G01*
X55004903Y-76347666D01*
G75*
G02*
X56049834Y-77547403I-77403J-1122334D01*
G01*
X56009834Y-78127403D01*
G75*
G02*
X54810097Y-79172334I-1122334J77403D01*
G01*
G37*
G04 #@! TD.AperFunction*
D10*
X172720000Y-87630000D03*
D11*
X170180000Y-87630000D03*
D12*
X168950000Y-78550000D03*
G04 #@! TA.AperFunction,ComponentPad*
G36*
G01*
X166888688Y-80847350D02*
X166888683Y-80847345D01*
G75*
G02*
X166802655Y-79258683I751317J837345D01*
G01*
X168112657Y-77798683D01*
G75*
G02*
X169701319Y-77712655I837345J-751317D01*
G01*
X169701319Y-77712655D01*
G75*
G02*
X169787347Y-79301317I-751317J-837345D01*
G01*
X168477345Y-80761317D01*
G75*
G02*
X166888683Y-80847345I-837345J751317D01*
G01*
G37*
G04 #@! TD.AperFunction*
X173990000Y-77470000D03*
G04 #@! TA.AperFunction,ComponentPad*
G36*
G01*
X173873483Y-79172395D02*
X173872597Y-79172334D01*
G75*
G02*
X172827666Y-77972597I77403J1122334D01*
G01*
X172867666Y-77392597D01*
G75*
G02*
X174067403Y-76347666I1122334J-77403D01*
G01*
X174067403Y-76347666D01*
G75*
G02*
X175112334Y-77547403I-77403J-1122334D01*
G01*
X175072334Y-78127403D01*
G75*
G02*
X173872597Y-79172334I-1122334J77403D01*
G01*
G37*
G04 #@! TD.AperFunction*
D10*
X96520000Y-87630000D03*
D11*
X93980000Y-87630000D03*
D12*
X92750000Y-78550000D03*
G04 #@! TA.AperFunction,ComponentPad*
G36*
G01*
X90688688Y-80847350D02*
X90688683Y-80847345D01*
G75*
G02*
X90602655Y-79258683I751317J837345D01*
G01*
X91912657Y-77798683D01*
G75*
G02*
X93501319Y-77712655I837345J-751317D01*
G01*
X93501319Y-77712655D01*
G75*
G02*
X93587347Y-79301317I-751317J-837345D01*
G01*
X92277345Y-80761317D01*
G75*
G02*
X90688683Y-80847345I-837345J751317D01*
G01*
G37*
G04 #@! TD.AperFunction*
X97790000Y-77470000D03*
G04 #@! TA.AperFunction,ComponentPad*
G36*
G01*
X97673483Y-79172395D02*
X97672597Y-79172334D01*
G75*
G02*
X96627666Y-77972597I77403J1122334D01*
G01*
X96667666Y-77392597D01*
G75*
G02*
X97867403Y-76347666I1122334J-77403D01*
G01*
X97867403Y-76347666D01*
G75*
G02*
X98912334Y-77547403I-77403J-1122334D01*
G01*
X98872334Y-78127403D01*
G75*
G02*
X97672597Y-79172334I-1122334J77403D01*
G01*
G37*
G04 #@! TD.AperFunction*
D10*
X191770000Y-87630000D03*
D11*
X189230000Y-87630000D03*
D12*
X188000000Y-78550000D03*
G04 #@! TA.AperFunction,ComponentPad*
G36*
G01*
X185938688Y-80847350D02*
X185938683Y-80847345D01*
G75*
G02*
X185852655Y-79258683I751317J837345D01*
G01*
X187162657Y-77798683D01*
G75*
G02*
X188751319Y-77712655I837345J-751317D01*
G01*
X188751319Y-77712655D01*
G75*
G02*
X188837347Y-79301317I-751317J-837345D01*
G01*
X187527345Y-80761317D01*
G75*
G02*
X185938683Y-80847345I-837345J751317D01*
G01*
G37*
G04 #@! TD.AperFunction*
X193040000Y-77470000D03*
G04 #@! TA.AperFunction,ComponentPad*
G36*
G01*
X192923483Y-79172395D02*
X192922597Y-79172334D01*
G75*
G02*
X191877666Y-77972597I77403J1122334D01*
G01*
X191917666Y-77392597D01*
G75*
G02*
X193117403Y-76347666I1122334J-77403D01*
G01*
X193117403Y-76347666D01*
G75*
G02*
X194162334Y-77547403I-77403J-1122334D01*
G01*
X194122334Y-78127403D01*
G75*
G02*
X192922597Y-79172334I-1122334J77403D01*
G01*
G37*
G04 #@! TD.AperFunction*
D10*
X153670000Y-87630000D03*
D11*
X151130000Y-87630000D03*
D12*
X149900000Y-78550000D03*
G04 #@! TA.AperFunction,ComponentPad*
G36*
G01*
X147838688Y-80847350D02*
X147838683Y-80847345D01*
G75*
G02*
X147752655Y-79258683I751317J837345D01*
G01*
X149062657Y-77798683D01*
G75*
G02*
X150651319Y-77712655I837345J-751317D01*
G01*
X150651319Y-77712655D01*
G75*
G02*
X150737347Y-79301317I-751317J-837345D01*
G01*
X149427345Y-80761317D01*
G75*
G02*
X147838683Y-80847345I-837345J751317D01*
G01*
G37*
G04 #@! TD.AperFunction*
X154940000Y-77470000D03*
G04 #@! TA.AperFunction,ComponentPad*
G36*
G01*
X154823483Y-79172395D02*
X154822597Y-79172334D01*
G75*
G02*
X153777666Y-77972597I77403J1122334D01*
G01*
X153817666Y-77392597D01*
G75*
G02*
X155017403Y-76347666I1122334J-77403D01*
G01*
X155017403Y-76347666D01*
G75*
G02*
X156062334Y-77547403I-77403J-1122334D01*
G01*
X156022334Y-78127403D01*
G75*
G02*
X154822597Y-79172334I-1122334J77403D01*
G01*
G37*
G04 #@! TD.AperFunction*
D10*
X134620000Y-87630000D03*
D11*
X132080000Y-87630000D03*
D12*
X130850000Y-78550000D03*
G04 #@! TA.AperFunction,ComponentPad*
G36*
G01*
X128788688Y-80847350D02*
X128788683Y-80847345D01*
G75*
G02*
X128702655Y-79258683I751317J837345D01*
G01*
X130012657Y-77798683D01*
G75*
G02*
X131601319Y-77712655I837345J-751317D01*
G01*
X131601319Y-77712655D01*
G75*
G02*
X131687347Y-79301317I-751317J-837345D01*
G01*
X130377345Y-80761317D01*
G75*
G02*
X128788683Y-80847345I-837345J751317D01*
G01*
G37*
G04 #@! TD.AperFunction*
X135890000Y-77470000D03*
G04 #@! TA.AperFunction,ComponentPad*
G36*
G01*
X135773483Y-79172395D02*
X135772597Y-79172334D01*
G75*
G02*
X134727666Y-77972597I77403J1122334D01*
G01*
X134767666Y-77392597D01*
G75*
G02*
X135967403Y-76347666I1122334J-77403D01*
G01*
X135967403Y-76347666D01*
G75*
G02*
X137012334Y-77547403I-77403J-1122334D01*
G01*
X136972334Y-78127403D01*
G75*
G02*
X135772597Y-79172334I-1122334J77403D01*
G01*
G37*
G04 #@! TD.AperFunction*
D10*
X77470000Y-87630000D03*
D11*
X74930000Y-87630000D03*
D12*
X73700000Y-78550000D03*
G04 #@! TA.AperFunction,ComponentPad*
G36*
G01*
X71638688Y-80847350D02*
X71638683Y-80847345D01*
G75*
G02*
X71552655Y-79258683I751317J837345D01*
G01*
X72862657Y-77798683D01*
G75*
G02*
X74451319Y-77712655I837345J-751317D01*
G01*
X74451319Y-77712655D01*
G75*
G02*
X74537347Y-79301317I-751317J-837345D01*
G01*
X73227345Y-80761317D01*
G75*
G02*
X71638683Y-80847345I-837345J751317D01*
G01*
G37*
G04 #@! TD.AperFunction*
X78740000Y-77470000D03*
G04 #@! TA.AperFunction,ComponentPad*
G36*
G01*
X78623483Y-79172395D02*
X78622597Y-79172334D01*
G75*
G02*
X77577666Y-77972597I77403J1122334D01*
G01*
X77617666Y-77392597D01*
G75*
G02*
X78817403Y-76347666I1122334J-77403D01*
G01*
X78817403Y-76347666D01*
G75*
G02*
X79862334Y-77547403I-77403J-1122334D01*
G01*
X79822334Y-78127403D01*
G75*
G02*
X78622597Y-79172334I-1122334J77403D01*
G01*
G37*
G04 #@! TD.AperFunction*
D10*
X377507500Y-87630000D03*
D11*
X374967500Y-87630000D03*
D12*
X373737500Y-78550000D03*
G04 #@! TA.AperFunction,ComponentPad*
G36*
G01*
X371676188Y-80847350D02*
X371676183Y-80847345D01*
G75*
G02*
X371590155Y-79258683I751317J837345D01*
G01*
X372900157Y-77798683D01*
G75*
G02*
X374488819Y-77712655I837345J-751317D01*
G01*
X374488819Y-77712655D01*
G75*
G02*
X374574847Y-79301317I-751317J-837345D01*
G01*
X373264845Y-80761317D01*
G75*
G02*
X371676183Y-80847345I-837345J751317D01*
G01*
G37*
G04 #@! TD.AperFunction*
X378777500Y-77470000D03*
G04 #@! TA.AperFunction,ComponentPad*
G36*
G01*
X378660983Y-79172395D02*
X378660097Y-79172334D01*
G75*
G02*
X377615166Y-77972597I77403J1122334D01*
G01*
X377655166Y-77392597D01*
G75*
G02*
X378854903Y-76347666I1122334J-77403D01*
G01*
X378854903Y-76347666D01*
G75*
G02*
X379899834Y-77547403I-77403J-1122334D01*
G01*
X379859834Y-78127403D01*
G75*
G02*
X378660097Y-79172334I-1122334J77403D01*
G01*
G37*
G04 #@! TD.AperFunction*
D10*
X248920000Y-87630000D03*
D11*
X246380000Y-87630000D03*
D12*
X245150000Y-78550000D03*
G04 #@! TA.AperFunction,ComponentPad*
G36*
G01*
X243088688Y-80847350D02*
X243088683Y-80847345D01*
G75*
G02*
X243002655Y-79258683I751317J837345D01*
G01*
X244312657Y-77798683D01*
G75*
G02*
X245901319Y-77712655I837345J-751317D01*
G01*
X245901319Y-77712655D01*
G75*
G02*
X245987347Y-79301317I-751317J-837345D01*
G01*
X244677345Y-80761317D01*
G75*
G02*
X243088683Y-80847345I-837345J751317D01*
G01*
G37*
G04 #@! TD.AperFunction*
X250190000Y-77470000D03*
G04 #@! TA.AperFunction,ComponentPad*
G36*
G01*
X250073483Y-79172395D02*
X250072597Y-79172334D01*
G75*
G02*
X249027666Y-77972597I77403J1122334D01*
G01*
X249067666Y-77392597D01*
G75*
G02*
X250267403Y-76347666I1122334J-77403D01*
G01*
X250267403Y-76347666D01*
G75*
G02*
X251312334Y-77547403I-77403J-1122334D01*
G01*
X251272334Y-78127403D01*
G75*
G02*
X250072597Y-79172334I-1122334J77403D01*
G01*
G37*
G04 #@! TD.AperFunction*
D10*
X229870000Y-87630000D03*
D11*
X227330000Y-87630000D03*
D12*
X226100000Y-78550000D03*
G04 #@! TA.AperFunction,ComponentPad*
G36*
G01*
X224038688Y-80847350D02*
X224038683Y-80847345D01*
G75*
G02*
X223952655Y-79258683I751317J837345D01*
G01*
X225262657Y-77798683D01*
G75*
G02*
X226851319Y-77712655I837345J-751317D01*
G01*
X226851319Y-77712655D01*
G75*
G02*
X226937347Y-79301317I-751317J-837345D01*
G01*
X225627345Y-80761317D01*
G75*
G02*
X224038683Y-80847345I-837345J751317D01*
G01*
G37*
G04 #@! TD.AperFunction*
X231140000Y-77470000D03*
G04 #@! TA.AperFunction,ComponentPad*
G36*
G01*
X231023483Y-79172395D02*
X231022597Y-79172334D01*
G75*
G02*
X229977666Y-77972597I77403J1122334D01*
G01*
X230017666Y-77392597D01*
G75*
G02*
X231217403Y-76347666I1122334J-77403D01*
G01*
X231217403Y-76347666D01*
G75*
G02*
X232262334Y-77547403I-77403J-1122334D01*
G01*
X232222334Y-78127403D01*
G75*
G02*
X231022597Y-79172334I-1122334J77403D01*
G01*
G37*
G04 #@! TD.AperFunction*
D10*
X210820000Y-87630000D03*
D11*
X208280000Y-87630000D03*
D12*
X207050000Y-78550000D03*
G04 #@! TA.AperFunction,ComponentPad*
G36*
G01*
X204988688Y-80847350D02*
X204988683Y-80847345D01*
G75*
G02*
X204902655Y-79258683I751317J837345D01*
G01*
X206212657Y-77798683D01*
G75*
G02*
X207801319Y-77712655I837345J-751317D01*
G01*
X207801319Y-77712655D01*
G75*
G02*
X207887347Y-79301317I-751317J-837345D01*
G01*
X206577345Y-80761317D01*
G75*
G02*
X204988683Y-80847345I-837345J751317D01*
G01*
G37*
G04 #@! TD.AperFunction*
X212090000Y-77470000D03*
G04 #@! TA.AperFunction,ComponentPad*
G36*
G01*
X211973483Y-79172395D02*
X211972597Y-79172334D01*
G75*
G02*
X210927666Y-77972597I77403J1122334D01*
G01*
X210967666Y-77392597D01*
G75*
G02*
X212167403Y-76347666I1122334J-77403D01*
G01*
X212167403Y-76347666D01*
G75*
G02*
X213212334Y-77547403I-77403J-1122334D01*
G01*
X213172334Y-78127403D01*
G75*
G02*
X211972597Y-79172334I-1122334J77403D01*
G01*
G37*
G04 #@! TD.AperFunction*
D10*
X358457500Y-87630000D03*
D11*
X355917500Y-87630000D03*
D12*
X354687500Y-78550000D03*
G04 #@! TA.AperFunction,ComponentPad*
G36*
G01*
X352626188Y-80847350D02*
X352626183Y-80847345D01*
G75*
G02*
X352540155Y-79258683I751317J837345D01*
G01*
X353850157Y-77798683D01*
G75*
G02*
X355438819Y-77712655I837345J-751317D01*
G01*
X355438819Y-77712655D01*
G75*
G02*
X355524847Y-79301317I-751317J-837345D01*
G01*
X354214845Y-80761317D01*
G75*
G02*
X352626183Y-80847345I-837345J751317D01*
G01*
G37*
G04 #@! TD.AperFunction*
X359727500Y-77470000D03*
G04 #@! TA.AperFunction,ComponentPad*
G36*
G01*
X359610983Y-79172395D02*
X359610097Y-79172334D01*
G75*
G02*
X358565166Y-77972597I77403J1122334D01*
G01*
X358605166Y-77392597D01*
G75*
G02*
X359804903Y-76347666I1122334J-77403D01*
G01*
X359804903Y-76347666D01*
G75*
G02*
X360849834Y-77547403I-77403J-1122334D01*
G01*
X360809834Y-78127403D01*
G75*
G02*
X359610097Y-79172334I-1122334J77403D01*
G01*
G37*
G04 #@! TD.AperFunction*
D10*
X115570000Y-87630000D03*
D11*
X113030000Y-87630000D03*
D12*
X111800000Y-78550000D03*
G04 #@! TA.AperFunction,ComponentPad*
G36*
G01*
X109738688Y-80847350D02*
X109738683Y-80847345D01*
G75*
G02*
X109652655Y-79258683I751317J837345D01*
G01*
X110962657Y-77798683D01*
G75*
G02*
X112551319Y-77712655I837345J-751317D01*
G01*
X112551319Y-77712655D01*
G75*
G02*
X112637347Y-79301317I-751317J-837345D01*
G01*
X111327345Y-80761317D01*
G75*
G02*
X109738683Y-80847345I-837345J751317D01*
G01*
G37*
G04 #@! TD.AperFunction*
X116840000Y-77470000D03*
G04 #@! TA.AperFunction,ComponentPad*
G36*
G01*
X116723483Y-79172395D02*
X116722597Y-79172334D01*
G75*
G02*
X115677666Y-77972597I77403J1122334D01*
G01*
X115717666Y-77392597D01*
G75*
G02*
X116917403Y-76347666I1122334J-77403D01*
G01*
X116917403Y-76347666D01*
G75*
G02*
X117962334Y-77547403I-77403J-1122334D01*
G01*
X117922334Y-78127403D01*
G75*
G02*
X116722597Y-79172334I-1122334J77403D01*
G01*
G37*
G04 #@! TD.AperFunction*
D10*
X339407500Y-87630000D03*
D11*
X336867500Y-87630000D03*
D12*
X335637500Y-78550000D03*
G04 #@! TA.AperFunction,ComponentPad*
G36*
G01*
X333576188Y-80847350D02*
X333576183Y-80847345D01*
G75*
G02*
X333490155Y-79258683I751317J837345D01*
G01*
X334800157Y-77798683D01*
G75*
G02*
X336388819Y-77712655I837345J-751317D01*
G01*
X336388819Y-77712655D01*
G75*
G02*
X336474847Y-79301317I-751317J-837345D01*
G01*
X335164845Y-80761317D01*
G75*
G02*
X333576183Y-80847345I-837345J751317D01*
G01*
G37*
G04 #@! TD.AperFunction*
X340677500Y-77470000D03*
G04 #@! TA.AperFunction,ComponentPad*
G36*
G01*
X340560983Y-79172395D02*
X340560097Y-79172334D01*
G75*
G02*
X339515166Y-77972597I77403J1122334D01*
G01*
X339555166Y-77392597D01*
G75*
G02*
X340754903Y-76347666I1122334J-77403D01*
G01*
X340754903Y-76347666D01*
G75*
G02*
X341799834Y-77547403I-77403J-1122334D01*
G01*
X341759834Y-78127403D01*
G75*
G02*
X340560097Y-79172334I-1122334J77403D01*
G01*
G37*
G04 #@! TD.AperFunction*
D10*
X287020000Y-87630000D03*
D11*
X284480000Y-87630000D03*
D12*
X283250000Y-78550000D03*
G04 #@! TA.AperFunction,ComponentPad*
G36*
G01*
X281188688Y-80847350D02*
X281188683Y-80847345D01*
G75*
G02*
X281102655Y-79258683I751317J837345D01*
G01*
X282412657Y-77798683D01*
G75*
G02*
X284001319Y-77712655I837345J-751317D01*
G01*
X284001319Y-77712655D01*
G75*
G02*
X284087347Y-79301317I-751317J-837345D01*
G01*
X282777345Y-80761317D01*
G75*
G02*
X281188683Y-80847345I-837345J751317D01*
G01*
G37*
G04 #@! TD.AperFunction*
X288290000Y-77470000D03*
G04 #@! TA.AperFunction,ComponentPad*
G36*
G01*
X288173483Y-79172395D02*
X288172597Y-79172334D01*
G75*
G02*
X287127666Y-77972597I77403J1122334D01*
G01*
X287167666Y-77392597D01*
G75*
G02*
X288367403Y-76347666I1122334J-77403D01*
G01*
X288367403Y-76347666D01*
G75*
G02*
X289412334Y-77547403I-77403J-1122334D01*
G01*
X289372334Y-78127403D01*
G75*
G02*
X288172597Y-79172334I-1122334J77403D01*
G01*
G37*
G04 #@! TD.AperFunction*
D10*
X291782500Y-106680000D03*
D11*
X289242500Y-106680000D03*
D12*
X288012500Y-97600000D03*
G04 #@! TA.AperFunction,ComponentPad*
G36*
G01*
X285951188Y-99897350D02*
X285951183Y-99897345D01*
G75*
G02*
X285865155Y-98308683I751317J837345D01*
G01*
X287175157Y-96848683D01*
G75*
G02*
X288763819Y-96762655I837345J-751317D01*
G01*
X288763819Y-96762655D01*
G75*
G02*
X288849847Y-98351317I-751317J-837345D01*
G01*
X287539845Y-99811317D01*
G75*
G02*
X285951183Y-99897345I-837345J751317D01*
G01*
G37*
G04 #@! TD.AperFunction*
X293052500Y-96520000D03*
G04 #@! TA.AperFunction,ComponentPad*
G36*
G01*
X292935983Y-98222395D02*
X292935097Y-98222334D01*
G75*
G02*
X291890166Y-97022597I77403J1122334D01*
G01*
X291930166Y-96442597D01*
G75*
G02*
X293129903Y-95397666I1122334J-77403D01*
G01*
X293129903Y-95397666D01*
G75*
G02*
X294174834Y-96597403I-77403J-1122334D01*
G01*
X294134834Y-97177403D01*
G75*
G02*
X292935097Y-98222334I-1122334J77403D01*
G01*
G37*
G04 #@! TD.AperFunction*
D10*
X310832500Y-87630000D03*
D11*
X308292500Y-87630000D03*
D12*
X307062500Y-78550000D03*
G04 #@! TA.AperFunction,ComponentPad*
G36*
G01*
X305001188Y-80847350D02*
X305001183Y-80847345D01*
G75*
G02*
X304915155Y-79258683I751317J837345D01*
G01*
X306225157Y-77798683D01*
G75*
G02*
X307813819Y-77712655I837345J-751317D01*
G01*
X307813819Y-77712655D01*
G75*
G02*
X307899847Y-79301317I-751317J-837345D01*
G01*
X306589845Y-80761317D01*
G75*
G02*
X305001183Y-80847345I-837345J751317D01*
G01*
G37*
G04 #@! TD.AperFunction*
X312102500Y-77470000D03*
G04 #@! TA.AperFunction,ComponentPad*
G36*
G01*
X311985983Y-79172395D02*
X311985097Y-79172334D01*
G75*
G02*
X310940166Y-77972597I77403J1122334D01*
G01*
X310980166Y-77392597D01*
G75*
G02*
X312179903Y-76347666I1122334J-77403D01*
G01*
X312179903Y-76347666D01*
G75*
G02*
X313224834Y-77547403I-77403J-1122334D01*
G01*
X313184834Y-78127403D01*
G75*
G02*
X311985097Y-79172334I-1122334J77403D01*
G01*
G37*
G04 #@! TD.AperFunction*
D10*
X267970000Y-87630000D03*
D11*
X265430000Y-87630000D03*
D12*
X264200000Y-78550000D03*
G04 #@! TA.AperFunction,ComponentPad*
G36*
G01*
X262138688Y-80847350D02*
X262138683Y-80847345D01*
G75*
G02*
X262052655Y-79258683I751317J837345D01*
G01*
X263362657Y-77798683D01*
G75*
G02*
X264951319Y-77712655I837345J-751317D01*
G01*
X264951319Y-77712655D01*
G75*
G02*
X265037347Y-79301317I-751317J-837345D01*
G01*
X263727345Y-80761317D01*
G75*
G02*
X262138683Y-80847345I-837345J751317D01*
G01*
G37*
G04 #@! TD.AperFunction*
X269240000Y-77470000D03*
G04 #@! TA.AperFunction,ComponentPad*
G36*
G01*
X269123483Y-79172395D02*
X269122597Y-79172334D01*
G75*
G02*
X268077666Y-77972597I77403J1122334D01*
G01*
X268117666Y-77392597D01*
G75*
G02*
X269317403Y-76347666I1122334J-77403D01*
G01*
X269317403Y-76347666D01*
G75*
G02*
X270362334Y-77547403I-77403J-1122334D01*
G01*
X270322334Y-78127403D01*
G75*
G02*
X269122597Y-79172334I-1122334J77403D01*
G01*
G37*
G04 #@! TD.AperFunction*
D10*
X339407500Y-68580000D03*
D11*
X336867500Y-68580000D03*
D12*
X335637500Y-59500000D03*
G04 #@! TA.AperFunction,ComponentPad*
G36*
G01*
X333576188Y-61797350D02*
X333576183Y-61797345D01*
G75*
G02*
X333490155Y-60208683I751317J837345D01*
G01*
X334800157Y-58748683D01*
G75*
G02*
X336388819Y-58662655I837345J-751317D01*
G01*
X336388819Y-58662655D01*
G75*
G02*
X336474847Y-60251317I-751317J-837345D01*
G01*
X335164845Y-61711317D01*
G75*
G02*
X333576183Y-61797345I-837345J751317D01*
G01*
G37*
G04 #@! TD.AperFunction*
X340677500Y-58420000D03*
G04 #@! TA.AperFunction,ComponentPad*
G36*
G01*
X340560983Y-60122395D02*
X340560097Y-60122334D01*
G75*
G02*
X339515166Y-58922597I77403J1122334D01*
G01*
X339555166Y-58342597D01*
G75*
G02*
X340754903Y-57297666I1122334J-77403D01*
G01*
X340754903Y-57297666D01*
G75*
G02*
X341799834Y-58497403I-77403J-1122334D01*
G01*
X341759834Y-59077403D01*
G75*
G02*
X340560097Y-60122334I-1122334J77403D01*
G01*
G37*
G04 #@! TD.AperFunction*
D10*
X377507500Y-68580000D03*
D11*
X374967500Y-68580000D03*
D12*
X373737500Y-59500000D03*
G04 #@! TA.AperFunction,ComponentPad*
G36*
G01*
X371676188Y-61797350D02*
X371676183Y-61797345D01*
G75*
G02*
X371590155Y-60208683I751317J837345D01*
G01*
X372900157Y-58748683D01*
G75*
G02*
X374488819Y-58662655I837345J-751317D01*
G01*
X374488819Y-58662655D01*
G75*
G02*
X374574847Y-60251317I-751317J-837345D01*
G01*
X373264845Y-61711317D01*
G75*
G02*
X371676183Y-61797345I-837345J751317D01*
G01*
G37*
G04 #@! TD.AperFunction*
X378777500Y-58420000D03*
G04 #@! TA.AperFunction,ComponentPad*
G36*
G01*
X378660983Y-60122395D02*
X378660097Y-60122334D01*
G75*
G02*
X377615166Y-58922597I77403J1122334D01*
G01*
X377655166Y-58342597D01*
G75*
G02*
X378854903Y-57297666I1122334J-77403D01*
G01*
X378854903Y-57297666D01*
G75*
G02*
X379899834Y-58497403I-77403J-1122334D01*
G01*
X379859834Y-59077403D01*
G75*
G02*
X378660097Y-60122334I-1122334J77403D01*
G01*
G37*
G04 #@! TD.AperFunction*
D10*
X358457500Y-68580000D03*
D11*
X355917500Y-68580000D03*
D12*
X354687500Y-59500000D03*
G04 #@! TA.AperFunction,ComponentPad*
G36*
G01*
X352626188Y-61797350D02*
X352626183Y-61797345D01*
G75*
G02*
X352540155Y-60208683I751317J837345D01*
G01*
X353850157Y-58748683D01*
G75*
G02*
X355438819Y-58662655I837345J-751317D01*
G01*
X355438819Y-58662655D01*
G75*
G02*
X355524847Y-60251317I-751317J-837345D01*
G01*
X354214845Y-61711317D01*
G75*
G02*
X352626183Y-61797345I-837345J751317D01*
G01*
G37*
G04 #@! TD.AperFunction*
X359727500Y-58420000D03*
G04 #@! TA.AperFunction,ComponentPad*
G36*
G01*
X359610983Y-60122395D02*
X359610097Y-60122334D01*
G75*
G02*
X358565166Y-58922597I77403J1122334D01*
G01*
X358605166Y-58342597D01*
G75*
G02*
X359804903Y-57297666I1122334J-77403D01*
G01*
X359804903Y-57297666D01*
G75*
G02*
X360849834Y-58497403I-77403J-1122334D01*
G01*
X360809834Y-59077403D01*
G75*
G02*
X359610097Y-60122334I-1122334J77403D01*
G01*
G37*
G04 #@! TD.AperFunction*
D10*
X296545000Y-68580000D03*
D11*
X294005000Y-68580000D03*
D12*
X292775000Y-59500000D03*
G04 #@! TA.AperFunction,ComponentPad*
G36*
G01*
X290713688Y-61797350D02*
X290713683Y-61797345D01*
G75*
G02*
X290627655Y-60208683I751317J837345D01*
G01*
X291937657Y-58748683D01*
G75*
G02*
X293526319Y-58662655I837345J-751317D01*
G01*
X293526319Y-58662655D01*
G75*
G02*
X293612347Y-60251317I-751317J-837345D01*
G01*
X292302345Y-61711317D01*
G75*
G02*
X290713683Y-61797345I-837345J751317D01*
G01*
G37*
G04 #@! TD.AperFunction*
X297815000Y-58420000D03*
G04 #@! TA.AperFunction,ComponentPad*
G36*
G01*
X297698483Y-60122395D02*
X297697597Y-60122334D01*
G75*
G02*
X296652666Y-58922597I77403J1122334D01*
G01*
X296692666Y-58342597D01*
G75*
G02*
X297892403Y-57297666I1122334J-77403D01*
G01*
X297892403Y-57297666D01*
G75*
G02*
X298937334Y-58497403I-77403J-1122334D01*
G01*
X298897334Y-59077403D01*
G75*
G02*
X297697597Y-60122334I-1122334J77403D01*
G01*
G37*
G04 #@! TD.AperFunction*
D10*
X306070000Y-68580000D03*
D11*
X303530000Y-68580000D03*
D12*
X302300000Y-59500000D03*
G04 #@! TA.AperFunction,ComponentPad*
G36*
G01*
X300238688Y-61797350D02*
X300238683Y-61797345D01*
G75*
G02*
X300152655Y-60208683I751317J837345D01*
G01*
X301462657Y-58748683D01*
G75*
G02*
X303051319Y-58662655I837345J-751317D01*
G01*
X303051319Y-58662655D01*
G75*
G02*
X303137347Y-60251317I-751317J-837345D01*
G01*
X301827345Y-61711317D01*
G75*
G02*
X300238683Y-61797345I-837345J751317D01*
G01*
G37*
G04 #@! TD.AperFunction*
X307340000Y-58420000D03*
G04 #@! TA.AperFunction,ComponentPad*
G36*
G01*
X307223483Y-60122395D02*
X307222597Y-60122334D01*
G75*
G02*
X306177666Y-58922597I77403J1122334D01*
G01*
X306217666Y-58342597D01*
G75*
G02*
X307417403Y-57297666I1122334J-77403D01*
G01*
X307417403Y-57297666D01*
G75*
G02*
X308462334Y-58497403I-77403J-1122334D01*
G01*
X308422334Y-59077403D01*
G75*
G02*
X307222597Y-60122334I-1122334J77403D01*
G01*
G37*
G04 #@! TD.AperFunction*
D10*
X48895000Y-68580000D03*
D11*
X46355000Y-68580000D03*
D12*
X45125000Y-59500000D03*
G04 #@! TA.AperFunction,ComponentPad*
G36*
G01*
X43063688Y-61797350D02*
X43063683Y-61797345D01*
G75*
G02*
X42977655Y-60208683I751317J837345D01*
G01*
X44287657Y-58748683D01*
G75*
G02*
X45876319Y-58662655I837345J-751317D01*
G01*
X45876319Y-58662655D01*
G75*
G02*
X45962347Y-60251317I-751317J-837345D01*
G01*
X44652345Y-61711317D01*
G75*
G02*
X43063683Y-61797345I-837345J751317D01*
G01*
G37*
G04 #@! TD.AperFunction*
X50165000Y-58420000D03*
G04 #@! TA.AperFunction,ComponentPad*
G36*
G01*
X50048483Y-60122395D02*
X50047597Y-60122334D01*
G75*
G02*
X49002666Y-58922597I77403J1122334D01*
G01*
X49042666Y-58342597D01*
G75*
G02*
X50242403Y-57297666I1122334J-77403D01*
G01*
X50242403Y-57297666D01*
G75*
G02*
X51287334Y-58497403I-77403J-1122334D01*
G01*
X51247334Y-59077403D01*
G75*
G02*
X50047597Y-60122334I-1122334J77403D01*
G01*
G37*
G04 #@! TD.AperFunction*
D10*
X258445000Y-68580000D03*
D11*
X255905000Y-68580000D03*
D12*
X254675000Y-59500000D03*
G04 #@! TA.AperFunction,ComponentPad*
G36*
G01*
X252613688Y-61797350D02*
X252613683Y-61797345D01*
G75*
G02*
X252527655Y-60208683I751317J837345D01*
G01*
X253837657Y-58748683D01*
G75*
G02*
X255426319Y-58662655I837345J-751317D01*
G01*
X255426319Y-58662655D01*
G75*
G02*
X255512347Y-60251317I-751317J-837345D01*
G01*
X254202345Y-61711317D01*
G75*
G02*
X252613683Y-61797345I-837345J751317D01*
G01*
G37*
G04 #@! TD.AperFunction*
X259715000Y-58420000D03*
G04 #@! TA.AperFunction,ComponentPad*
G36*
G01*
X259598483Y-60122395D02*
X259597597Y-60122334D01*
G75*
G02*
X258552666Y-58922597I77403J1122334D01*
G01*
X258592666Y-58342597D01*
G75*
G02*
X259792403Y-57297666I1122334J-77403D01*
G01*
X259792403Y-57297666D01*
G75*
G02*
X260837334Y-58497403I-77403J-1122334D01*
G01*
X260797334Y-59077403D01*
G75*
G02*
X259597597Y-60122334I-1122334J77403D01*
G01*
G37*
G04 #@! TD.AperFunction*
D10*
X239395000Y-68580000D03*
D11*
X236855000Y-68580000D03*
D12*
X235625000Y-59500000D03*
G04 #@! TA.AperFunction,ComponentPad*
G36*
G01*
X233563688Y-61797350D02*
X233563683Y-61797345D01*
G75*
G02*
X233477655Y-60208683I751317J837345D01*
G01*
X234787657Y-58748683D01*
G75*
G02*
X236376319Y-58662655I837345J-751317D01*
G01*
X236376319Y-58662655D01*
G75*
G02*
X236462347Y-60251317I-751317J-837345D01*
G01*
X235152345Y-61711317D01*
G75*
G02*
X233563683Y-61797345I-837345J751317D01*
G01*
G37*
G04 #@! TD.AperFunction*
X240665000Y-58420000D03*
G04 #@! TA.AperFunction,ComponentPad*
G36*
G01*
X240548483Y-60122395D02*
X240547597Y-60122334D01*
G75*
G02*
X239502666Y-58922597I77403J1122334D01*
G01*
X239542666Y-58342597D01*
G75*
G02*
X240742403Y-57297666I1122334J-77403D01*
G01*
X240742403Y-57297666D01*
G75*
G02*
X241787334Y-58497403I-77403J-1122334D01*
G01*
X241747334Y-59077403D01*
G75*
G02*
X240547597Y-60122334I-1122334J77403D01*
G01*
G37*
G04 #@! TD.AperFunction*
D10*
X220345000Y-68580000D03*
D11*
X217805000Y-68580000D03*
D12*
X216575000Y-59500000D03*
G04 #@! TA.AperFunction,ComponentPad*
G36*
G01*
X214513688Y-61797350D02*
X214513683Y-61797345D01*
G75*
G02*
X214427655Y-60208683I751317J837345D01*
G01*
X215737657Y-58748683D01*
G75*
G02*
X217326319Y-58662655I837345J-751317D01*
G01*
X217326319Y-58662655D01*
G75*
G02*
X217412347Y-60251317I-751317J-837345D01*
G01*
X216102345Y-61711317D01*
G75*
G02*
X214513683Y-61797345I-837345J751317D01*
G01*
G37*
G04 #@! TD.AperFunction*
X221615000Y-58420000D03*
G04 #@! TA.AperFunction,ComponentPad*
G36*
G01*
X221498483Y-60122395D02*
X221497597Y-60122334D01*
G75*
G02*
X220452666Y-58922597I77403J1122334D01*
G01*
X220492666Y-58342597D01*
G75*
G02*
X221692403Y-57297666I1122334J-77403D01*
G01*
X221692403Y-57297666D01*
G75*
G02*
X222737334Y-58497403I-77403J-1122334D01*
G01*
X222697334Y-59077403D01*
G75*
G02*
X221497597Y-60122334I-1122334J77403D01*
G01*
G37*
G04 #@! TD.AperFunction*
D10*
X201295000Y-68580000D03*
D11*
X198755000Y-68580000D03*
D12*
X197525000Y-59500000D03*
G04 #@! TA.AperFunction,ComponentPad*
G36*
G01*
X195463688Y-61797350D02*
X195463683Y-61797345D01*
G75*
G02*
X195377655Y-60208683I751317J837345D01*
G01*
X196687657Y-58748683D01*
G75*
G02*
X198276319Y-58662655I837345J-751317D01*
G01*
X198276319Y-58662655D01*
G75*
G02*
X198362347Y-60251317I-751317J-837345D01*
G01*
X197052345Y-61711317D01*
G75*
G02*
X195463683Y-61797345I-837345J751317D01*
G01*
G37*
G04 #@! TD.AperFunction*
X202565000Y-58420000D03*
G04 #@! TA.AperFunction,ComponentPad*
G36*
G01*
X202448483Y-60122395D02*
X202447597Y-60122334D01*
G75*
G02*
X201402666Y-58922597I77403J1122334D01*
G01*
X201442666Y-58342597D01*
G75*
G02*
X202642403Y-57297666I1122334J-77403D01*
G01*
X202642403Y-57297666D01*
G75*
G02*
X203687334Y-58497403I-77403J-1122334D01*
G01*
X203647334Y-59077403D01*
G75*
G02*
X202447597Y-60122334I-1122334J77403D01*
G01*
G37*
G04 #@! TD.AperFunction*
D10*
X182245000Y-68580000D03*
D11*
X179705000Y-68580000D03*
D12*
X178475000Y-59500000D03*
G04 #@! TA.AperFunction,ComponentPad*
G36*
G01*
X176413688Y-61797350D02*
X176413683Y-61797345D01*
G75*
G02*
X176327655Y-60208683I751317J837345D01*
G01*
X177637657Y-58748683D01*
G75*
G02*
X179226319Y-58662655I837345J-751317D01*
G01*
X179226319Y-58662655D01*
G75*
G02*
X179312347Y-60251317I-751317J-837345D01*
G01*
X178002345Y-61711317D01*
G75*
G02*
X176413683Y-61797345I-837345J751317D01*
G01*
G37*
G04 #@! TD.AperFunction*
X183515000Y-58420000D03*
G04 #@! TA.AperFunction,ComponentPad*
G36*
G01*
X183398483Y-60122395D02*
X183397597Y-60122334D01*
G75*
G02*
X182352666Y-58922597I77403J1122334D01*
G01*
X182392666Y-58342597D01*
G75*
G02*
X183592403Y-57297666I1122334J-77403D01*
G01*
X183592403Y-57297666D01*
G75*
G02*
X184637334Y-58497403I-77403J-1122334D01*
G01*
X184597334Y-59077403D01*
G75*
G02*
X183397597Y-60122334I-1122334J77403D01*
G01*
G37*
G04 #@! TD.AperFunction*
D10*
X163195000Y-68580000D03*
D11*
X160655000Y-68580000D03*
D12*
X159425000Y-59500000D03*
G04 #@! TA.AperFunction,ComponentPad*
G36*
G01*
X157363688Y-61797350D02*
X157363683Y-61797345D01*
G75*
G02*
X157277655Y-60208683I751317J837345D01*
G01*
X158587657Y-58748683D01*
G75*
G02*
X160176319Y-58662655I837345J-751317D01*
G01*
X160176319Y-58662655D01*
G75*
G02*
X160262347Y-60251317I-751317J-837345D01*
G01*
X158952345Y-61711317D01*
G75*
G02*
X157363683Y-61797345I-837345J751317D01*
G01*
G37*
G04 #@! TD.AperFunction*
X164465000Y-58420000D03*
G04 #@! TA.AperFunction,ComponentPad*
G36*
G01*
X164348483Y-60122395D02*
X164347597Y-60122334D01*
G75*
G02*
X163302666Y-58922597I77403J1122334D01*
G01*
X163342666Y-58342597D01*
G75*
G02*
X164542403Y-57297666I1122334J-77403D01*
G01*
X164542403Y-57297666D01*
G75*
G02*
X165587334Y-58497403I-77403J-1122334D01*
G01*
X165547334Y-59077403D01*
G75*
G02*
X164347597Y-60122334I-1122334J77403D01*
G01*
G37*
G04 #@! TD.AperFunction*
D10*
X144145000Y-68580000D03*
D11*
X141605000Y-68580000D03*
D12*
X140375000Y-59500000D03*
G04 #@! TA.AperFunction,ComponentPad*
G36*
G01*
X138313688Y-61797350D02*
X138313683Y-61797345D01*
G75*
G02*
X138227655Y-60208683I751317J837345D01*
G01*
X139537657Y-58748683D01*
G75*
G02*
X141126319Y-58662655I837345J-751317D01*
G01*
X141126319Y-58662655D01*
G75*
G02*
X141212347Y-60251317I-751317J-837345D01*
G01*
X139902345Y-61711317D01*
G75*
G02*
X138313683Y-61797345I-837345J751317D01*
G01*
G37*
G04 #@! TD.AperFunction*
X145415000Y-58420000D03*
G04 #@! TA.AperFunction,ComponentPad*
G36*
G01*
X145298483Y-60122395D02*
X145297597Y-60122334D01*
G75*
G02*
X144252666Y-58922597I77403J1122334D01*
G01*
X144292666Y-58342597D01*
G75*
G02*
X145492403Y-57297666I1122334J-77403D01*
G01*
X145492403Y-57297666D01*
G75*
G02*
X146537334Y-58497403I-77403J-1122334D01*
G01*
X146497334Y-59077403D01*
G75*
G02*
X145297597Y-60122334I-1122334J77403D01*
G01*
G37*
G04 #@! TD.AperFunction*
D10*
X125095000Y-68580000D03*
D11*
X122555000Y-68580000D03*
D12*
X121325000Y-59500000D03*
G04 #@! TA.AperFunction,ComponentPad*
G36*
G01*
X119263688Y-61797350D02*
X119263683Y-61797345D01*
G75*
G02*
X119177655Y-60208683I751317J837345D01*
G01*
X120487657Y-58748683D01*
G75*
G02*
X122076319Y-58662655I837345J-751317D01*
G01*
X122076319Y-58662655D01*
G75*
G02*
X122162347Y-60251317I-751317J-837345D01*
G01*
X120852345Y-61711317D01*
G75*
G02*
X119263683Y-61797345I-837345J751317D01*
G01*
G37*
G04 #@! TD.AperFunction*
X126365000Y-58420000D03*
G04 #@! TA.AperFunction,ComponentPad*
G36*
G01*
X126248483Y-60122395D02*
X126247597Y-60122334D01*
G75*
G02*
X125202666Y-58922597I77403J1122334D01*
G01*
X125242666Y-58342597D01*
G75*
G02*
X126442403Y-57297666I1122334J-77403D01*
G01*
X126442403Y-57297666D01*
G75*
G02*
X127487334Y-58497403I-77403J-1122334D01*
G01*
X127447334Y-59077403D01*
G75*
G02*
X126247597Y-60122334I-1122334J77403D01*
G01*
G37*
G04 #@! TD.AperFunction*
D10*
X106045000Y-68580000D03*
D11*
X103505000Y-68580000D03*
D12*
X102275000Y-59500000D03*
G04 #@! TA.AperFunction,ComponentPad*
G36*
G01*
X100213688Y-61797350D02*
X100213683Y-61797345D01*
G75*
G02*
X100127655Y-60208683I751317J837345D01*
G01*
X101437657Y-58748683D01*
G75*
G02*
X103026319Y-58662655I837345J-751317D01*
G01*
X103026319Y-58662655D01*
G75*
G02*
X103112347Y-60251317I-751317J-837345D01*
G01*
X101802345Y-61711317D01*
G75*
G02*
X100213683Y-61797345I-837345J751317D01*
G01*
G37*
G04 #@! TD.AperFunction*
X107315000Y-58420000D03*
G04 #@! TA.AperFunction,ComponentPad*
G36*
G01*
X107198483Y-60122395D02*
X107197597Y-60122334D01*
G75*
G02*
X106152666Y-58922597I77403J1122334D01*
G01*
X106192666Y-58342597D01*
G75*
G02*
X107392403Y-57297666I1122334J-77403D01*
G01*
X107392403Y-57297666D01*
G75*
G02*
X108437334Y-58497403I-77403J-1122334D01*
G01*
X108397334Y-59077403D01*
G75*
G02*
X107197597Y-60122334I-1122334J77403D01*
G01*
G37*
G04 #@! TD.AperFunction*
D10*
X86995000Y-68580000D03*
D11*
X84455000Y-68580000D03*
D12*
X83225000Y-59500000D03*
G04 #@! TA.AperFunction,ComponentPad*
G36*
G01*
X81163688Y-61797350D02*
X81163683Y-61797345D01*
G75*
G02*
X81077655Y-60208683I751317J837345D01*
G01*
X82387657Y-58748683D01*
G75*
G02*
X83976319Y-58662655I837345J-751317D01*
G01*
X83976319Y-58662655D01*
G75*
G02*
X84062347Y-60251317I-751317J-837345D01*
G01*
X82752345Y-61711317D01*
G75*
G02*
X81163683Y-61797345I-837345J751317D01*
G01*
G37*
G04 #@! TD.AperFunction*
X88265000Y-58420000D03*
G04 #@! TA.AperFunction,ComponentPad*
G36*
G01*
X88148483Y-60122395D02*
X88147597Y-60122334D01*
G75*
G02*
X87102666Y-58922597I77403J1122334D01*
G01*
X87142666Y-58342597D01*
G75*
G02*
X88342403Y-57297666I1122334J-77403D01*
G01*
X88342403Y-57297666D01*
G75*
G02*
X89387334Y-58497403I-77403J-1122334D01*
G01*
X89347334Y-59077403D01*
G75*
G02*
X88147597Y-60122334I-1122334J77403D01*
G01*
G37*
G04 #@! TD.AperFunction*
D10*
X67945000Y-68580000D03*
D11*
X65405000Y-68580000D03*
D12*
X64175000Y-59500000D03*
G04 #@! TA.AperFunction,ComponentPad*
G36*
G01*
X62113688Y-61797350D02*
X62113683Y-61797345D01*
G75*
G02*
X62027655Y-60208683I751317J837345D01*
G01*
X63337657Y-58748683D01*
G75*
G02*
X64926319Y-58662655I837345J-751317D01*
G01*
X64926319Y-58662655D01*
G75*
G02*
X65012347Y-60251317I-751317J-837345D01*
G01*
X63702345Y-61711317D01*
G75*
G02*
X62113683Y-61797345I-837345J751317D01*
G01*
G37*
G04 #@! TD.AperFunction*
X69215000Y-58420000D03*
G04 #@! TA.AperFunction,ComponentPad*
G36*
G01*
X69098483Y-60122395D02*
X69097597Y-60122334D01*
G75*
G02*
X68052666Y-58922597I77403J1122334D01*
G01*
X68092666Y-58342597D01*
G75*
G02*
X69292403Y-57297666I1122334J-77403D01*
G01*
X69292403Y-57297666D01*
G75*
G02*
X70337334Y-58497403I-77403J-1122334D01*
G01*
X70297334Y-59077403D01*
G75*
G02*
X69097597Y-60122334I-1122334J77403D01*
G01*
G37*
G04 #@! TD.AperFunction*
D10*
X339407500Y-44767500D03*
D11*
X336867500Y-44767500D03*
D12*
X335637500Y-35687500D03*
G04 #@! TA.AperFunction,ComponentPad*
G36*
G01*
X333576188Y-37984850D02*
X333576183Y-37984845D01*
G75*
G02*
X333490155Y-36396183I751317J837345D01*
G01*
X334800157Y-34936183D01*
G75*
G02*
X336388819Y-34850155I837345J-751317D01*
G01*
X336388819Y-34850155D01*
G75*
G02*
X336474847Y-36438817I-751317J-837345D01*
G01*
X335164845Y-37898817D01*
G75*
G02*
X333576183Y-37984845I-837345J751317D01*
G01*
G37*
G04 #@! TD.AperFunction*
X340677500Y-34607500D03*
G04 #@! TA.AperFunction,ComponentPad*
G36*
G01*
X340560983Y-36309895D02*
X340560097Y-36309834D01*
G75*
G02*
X339515166Y-35110097I77403J1122334D01*
G01*
X339555166Y-34530097D01*
G75*
G02*
X340754903Y-33485166I1122334J-77403D01*
G01*
X340754903Y-33485166D01*
G75*
G02*
X341799834Y-34684903I-77403J-1122334D01*
G01*
X341759834Y-35264903D01*
G75*
G02*
X340560097Y-36309834I-1122334J77403D01*
G01*
G37*
G04 #@! TD.AperFunction*
D10*
X191770000Y-44767500D03*
D11*
X189230000Y-44767500D03*
D12*
X188000000Y-35687500D03*
G04 #@! TA.AperFunction,ComponentPad*
G36*
G01*
X185938688Y-37984850D02*
X185938683Y-37984845D01*
G75*
G02*
X185852655Y-36396183I751317J837345D01*
G01*
X187162657Y-34936183D01*
G75*
G02*
X188751319Y-34850155I837345J-751317D01*
G01*
X188751319Y-34850155D01*
G75*
G02*
X188837347Y-36438817I-751317J-837345D01*
G01*
X187527345Y-37898817D01*
G75*
G02*
X185938683Y-37984845I-837345J751317D01*
G01*
G37*
G04 #@! TD.AperFunction*
X193040000Y-34607500D03*
G04 #@! TA.AperFunction,ComponentPad*
G36*
G01*
X192923483Y-36309895D02*
X192922597Y-36309834D01*
G75*
G02*
X191877666Y-35110097I77403J1122334D01*
G01*
X191917666Y-34530097D01*
G75*
G02*
X193117403Y-33485166I1122334J-77403D01*
G01*
X193117403Y-33485166D01*
G75*
G02*
X194162334Y-34684903I-77403J-1122334D01*
G01*
X194122334Y-35264903D01*
G75*
G02*
X192922597Y-36309834I-1122334J77403D01*
G01*
G37*
G04 #@! TD.AperFunction*
D10*
X106045000Y-44767500D03*
D11*
X103505000Y-44767500D03*
D12*
X102275000Y-35687500D03*
G04 #@! TA.AperFunction,ComponentPad*
G36*
G01*
X100213688Y-37984850D02*
X100213683Y-37984845D01*
G75*
G02*
X100127655Y-36396183I751317J837345D01*
G01*
X101437657Y-34936183D01*
G75*
G02*
X103026319Y-34850155I837345J-751317D01*
G01*
X103026319Y-34850155D01*
G75*
G02*
X103112347Y-36438817I-751317J-837345D01*
G01*
X101802345Y-37898817D01*
G75*
G02*
X100213683Y-37984845I-837345J751317D01*
G01*
G37*
G04 #@! TD.AperFunction*
X107315000Y-34607500D03*
G04 #@! TA.AperFunction,ComponentPad*
G36*
G01*
X107198483Y-36309895D02*
X107197597Y-36309834D01*
G75*
G02*
X106152666Y-35110097I77403J1122334D01*
G01*
X106192666Y-34530097D01*
G75*
G02*
X107392403Y-33485166I1122334J-77403D01*
G01*
X107392403Y-33485166D01*
G75*
G02*
X108437334Y-34684903I-77403J-1122334D01*
G01*
X108397334Y-35264903D01*
G75*
G02*
X107197597Y-36309834I-1122334J77403D01*
G01*
G37*
G04 #@! TD.AperFunction*
D10*
X358457500Y-44767500D03*
D11*
X355917500Y-44767500D03*
D12*
X354687500Y-35687500D03*
G04 #@! TA.AperFunction,ComponentPad*
G36*
G01*
X352626188Y-37984850D02*
X352626183Y-37984845D01*
G75*
G02*
X352540155Y-36396183I751317J837345D01*
G01*
X353850157Y-34936183D01*
G75*
G02*
X355438819Y-34850155I837345J-751317D01*
G01*
X355438819Y-34850155D01*
G75*
G02*
X355524847Y-36438817I-751317J-837345D01*
G01*
X354214845Y-37898817D01*
G75*
G02*
X352626183Y-37984845I-837345J751317D01*
G01*
G37*
G04 #@! TD.AperFunction*
X359727500Y-34607500D03*
G04 #@! TA.AperFunction,ComponentPad*
G36*
G01*
X359610983Y-36309895D02*
X359610097Y-36309834D01*
G75*
G02*
X358565166Y-35110097I77403J1122334D01*
G01*
X358605166Y-34530097D01*
G75*
G02*
X359804903Y-33485166I1122334J-77403D01*
G01*
X359804903Y-33485166D01*
G75*
G02*
X360849834Y-34684903I-77403J-1122334D01*
G01*
X360809834Y-35264903D01*
G75*
G02*
X359610097Y-36309834I-1122334J77403D01*
G01*
G37*
G04 #@! TD.AperFunction*
D10*
X377507500Y-44767500D03*
D11*
X374967500Y-44767500D03*
D12*
X373737500Y-35687500D03*
G04 #@! TA.AperFunction,ComponentPad*
G36*
G01*
X371676188Y-37984850D02*
X371676183Y-37984845D01*
G75*
G02*
X371590155Y-36396183I751317J837345D01*
G01*
X372900157Y-34936183D01*
G75*
G02*
X374488819Y-34850155I837345J-751317D01*
G01*
X374488819Y-34850155D01*
G75*
G02*
X374574847Y-36438817I-751317J-837345D01*
G01*
X373264845Y-37898817D01*
G75*
G02*
X371676183Y-37984845I-837345J751317D01*
G01*
G37*
G04 #@! TD.AperFunction*
X378777500Y-34607500D03*
G04 #@! TA.AperFunction,ComponentPad*
G36*
G01*
X378660983Y-36309895D02*
X378660097Y-36309834D01*
G75*
G02*
X377615166Y-35110097I77403J1122334D01*
G01*
X377655166Y-34530097D01*
G75*
G02*
X378854903Y-33485166I1122334J-77403D01*
G01*
X378854903Y-33485166D01*
G75*
G02*
X379899834Y-34684903I-77403J-1122334D01*
G01*
X379859834Y-35264903D01*
G75*
G02*
X378660097Y-36309834I-1122334J77403D01*
G01*
G37*
G04 #@! TD.AperFunction*
D10*
X315595000Y-44767500D03*
D11*
X313055000Y-44767500D03*
D12*
X311825000Y-35687500D03*
G04 #@! TA.AperFunction,ComponentPad*
G36*
G01*
X309763688Y-37984850D02*
X309763683Y-37984845D01*
G75*
G02*
X309677655Y-36396183I751317J837345D01*
G01*
X310987657Y-34936183D01*
G75*
G02*
X312576319Y-34850155I837345J-751317D01*
G01*
X312576319Y-34850155D01*
G75*
G02*
X312662347Y-36438817I-751317J-837345D01*
G01*
X311352345Y-37898817D01*
G75*
G02*
X309763683Y-37984845I-837345J751317D01*
G01*
G37*
G04 #@! TD.AperFunction*
X316865000Y-34607500D03*
G04 #@! TA.AperFunction,ComponentPad*
G36*
G01*
X316748483Y-36309895D02*
X316747597Y-36309834D01*
G75*
G02*
X315702666Y-35110097I77403J1122334D01*
G01*
X315742666Y-34530097D01*
G75*
G02*
X316942403Y-33485166I1122334J-77403D01*
G01*
X316942403Y-33485166D01*
G75*
G02*
X317987334Y-34684903I-77403J-1122334D01*
G01*
X317947334Y-35264903D01*
G75*
G02*
X316747597Y-36309834I-1122334J77403D01*
G01*
G37*
G04 #@! TD.AperFunction*
D10*
X296545000Y-44767500D03*
D11*
X294005000Y-44767500D03*
D12*
X292775000Y-35687500D03*
G04 #@! TA.AperFunction,ComponentPad*
G36*
G01*
X290713688Y-37984850D02*
X290713683Y-37984845D01*
G75*
G02*
X290627655Y-36396183I751317J837345D01*
G01*
X291937657Y-34936183D01*
G75*
G02*
X293526319Y-34850155I837345J-751317D01*
G01*
X293526319Y-34850155D01*
G75*
G02*
X293612347Y-36438817I-751317J-837345D01*
G01*
X292302345Y-37898817D01*
G75*
G02*
X290713683Y-37984845I-837345J751317D01*
G01*
G37*
G04 #@! TD.AperFunction*
X297815000Y-34607500D03*
G04 #@! TA.AperFunction,ComponentPad*
G36*
G01*
X297698483Y-36309895D02*
X297697597Y-36309834D01*
G75*
G02*
X296652666Y-35110097I77403J1122334D01*
G01*
X296692666Y-34530097D01*
G75*
G02*
X297892403Y-33485166I1122334J-77403D01*
G01*
X297892403Y-33485166D01*
G75*
G02*
X298937334Y-34684903I-77403J-1122334D01*
G01*
X298897334Y-35264903D01*
G75*
G02*
X297697597Y-36309834I-1122334J77403D01*
G01*
G37*
G04 #@! TD.AperFunction*
D10*
X277495000Y-44767500D03*
D11*
X274955000Y-44767500D03*
D12*
X273725000Y-35687500D03*
G04 #@! TA.AperFunction,ComponentPad*
G36*
G01*
X271663688Y-37984850D02*
X271663683Y-37984845D01*
G75*
G02*
X271577655Y-36396183I751317J837345D01*
G01*
X272887657Y-34936183D01*
G75*
G02*
X274476319Y-34850155I837345J-751317D01*
G01*
X274476319Y-34850155D01*
G75*
G02*
X274562347Y-36438817I-751317J-837345D01*
G01*
X273252345Y-37898817D01*
G75*
G02*
X271663683Y-37984845I-837345J751317D01*
G01*
G37*
G04 #@! TD.AperFunction*
X278765000Y-34607500D03*
G04 #@! TA.AperFunction,ComponentPad*
G36*
G01*
X278648483Y-36309895D02*
X278647597Y-36309834D01*
G75*
G02*
X277602666Y-35110097I77403J1122334D01*
G01*
X277642666Y-34530097D01*
G75*
G02*
X278842403Y-33485166I1122334J-77403D01*
G01*
X278842403Y-33485166D01*
G75*
G02*
X279887334Y-34684903I-77403J-1122334D01*
G01*
X279847334Y-35264903D01*
G75*
G02*
X278647597Y-36309834I-1122334J77403D01*
G01*
G37*
G04 #@! TD.AperFunction*
D10*
X258445000Y-44767500D03*
D11*
X255905000Y-44767500D03*
D12*
X254675000Y-35687500D03*
G04 #@! TA.AperFunction,ComponentPad*
G36*
G01*
X252613688Y-37984850D02*
X252613683Y-37984845D01*
G75*
G02*
X252527655Y-36396183I751317J837345D01*
G01*
X253837657Y-34936183D01*
G75*
G02*
X255426319Y-34850155I837345J-751317D01*
G01*
X255426319Y-34850155D01*
G75*
G02*
X255512347Y-36438817I-751317J-837345D01*
G01*
X254202345Y-37898817D01*
G75*
G02*
X252613683Y-37984845I-837345J751317D01*
G01*
G37*
G04 #@! TD.AperFunction*
X259715000Y-34607500D03*
G04 #@! TA.AperFunction,ComponentPad*
G36*
G01*
X259598483Y-36309895D02*
X259597597Y-36309834D01*
G75*
G02*
X258552666Y-35110097I77403J1122334D01*
G01*
X258592666Y-34530097D01*
G75*
G02*
X259792403Y-33485166I1122334J-77403D01*
G01*
X259792403Y-33485166D01*
G75*
G02*
X260837334Y-34684903I-77403J-1122334D01*
G01*
X260797334Y-35264903D01*
G75*
G02*
X259597597Y-36309834I-1122334J77403D01*
G01*
G37*
G04 #@! TD.AperFunction*
D10*
X229870000Y-44767500D03*
D11*
X227330000Y-44767500D03*
D12*
X226100000Y-35687500D03*
G04 #@! TA.AperFunction,ComponentPad*
G36*
G01*
X224038688Y-37984850D02*
X224038683Y-37984845D01*
G75*
G02*
X223952655Y-36396183I751317J837345D01*
G01*
X225262657Y-34936183D01*
G75*
G02*
X226851319Y-34850155I837345J-751317D01*
G01*
X226851319Y-34850155D01*
G75*
G02*
X226937347Y-36438817I-751317J-837345D01*
G01*
X225627345Y-37898817D01*
G75*
G02*
X224038683Y-37984845I-837345J751317D01*
G01*
G37*
G04 #@! TD.AperFunction*
X231140000Y-34607500D03*
G04 #@! TA.AperFunction,ComponentPad*
G36*
G01*
X231023483Y-36309895D02*
X231022597Y-36309834D01*
G75*
G02*
X229977666Y-35110097I77403J1122334D01*
G01*
X230017666Y-34530097D01*
G75*
G02*
X231217403Y-33485166I1122334J-77403D01*
G01*
X231217403Y-33485166D01*
G75*
G02*
X232262334Y-34684903I-77403J-1122334D01*
G01*
X232222334Y-35264903D01*
G75*
G02*
X231022597Y-36309834I-1122334J77403D01*
G01*
G37*
G04 #@! TD.AperFunction*
D10*
X210820000Y-44767500D03*
D11*
X208280000Y-44767500D03*
D12*
X207050000Y-35687500D03*
G04 #@! TA.AperFunction,ComponentPad*
G36*
G01*
X204988688Y-37984850D02*
X204988683Y-37984845D01*
G75*
G02*
X204902655Y-36396183I751317J837345D01*
G01*
X206212657Y-34936183D01*
G75*
G02*
X207801319Y-34850155I837345J-751317D01*
G01*
X207801319Y-34850155D01*
G75*
G02*
X207887347Y-36438817I-751317J-837345D01*
G01*
X206577345Y-37898817D01*
G75*
G02*
X204988683Y-37984845I-837345J751317D01*
G01*
G37*
G04 #@! TD.AperFunction*
X212090000Y-34607500D03*
G04 #@! TA.AperFunction,ComponentPad*
G36*
G01*
X211973483Y-36309895D02*
X211972597Y-36309834D01*
G75*
G02*
X210927666Y-35110097I77403J1122334D01*
G01*
X210967666Y-34530097D01*
G75*
G02*
X212167403Y-33485166I1122334J-77403D01*
G01*
X212167403Y-33485166D01*
G75*
G02*
X213212334Y-34684903I-77403J-1122334D01*
G01*
X213172334Y-35264903D01*
G75*
G02*
X211972597Y-36309834I-1122334J77403D01*
G01*
G37*
G04 #@! TD.AperFunction*
D10*
X172720000Y-44767500D03*
D11*
X170180000Y-44767500D03*
D12*
X168950000Y-35687500D03*
G04 #@! TA.AperFunction,ComponentPad*
G36*
G01*
X166888688Y-37984850D02*
X166888683Y-37984845D01*
G75*
G02*
X166802655Y-36396183I751317J837345D01*
G01*
X168112657Y-34936183D01*
G75*
G02*
X169701319Y-34850155I837345J-751317D01*
G01*
X169701319Y-34850155D01*
G75*
G02*
X169787347Y-36438817I-751317J-837345D01*
G01*
X168477345Y-37898817D01*
G75*
G02*
X166888683Y-37984845I-837345J751317D01*
G01*
G37*
G04 #@! TD.AperFunction*
X173990000Y-34607500D03*
G04 #@! TA.AperFunction,ComponentPad*
G36*
G01*
X173873483Y-36309895D02*
X173872597Y-36309834D01*
G75*
G02*
X172827666Y-35110097I77403J1122334D01*
G01*
X172867666Y-34530097D01*
G75*
G02*
X174067403Y-33485166I1122334J-77403D01*
G01*
X174067403Y-33485166D01*
G75*
G02*
X175112334Y-34684903I-77403J-1122334D01*
G01*
X175072334Y-35264903D01*
G75*
G02*
X173872597Y-36309834I-1122334J77403D01*
G01*
G37*
G04 #@! TD.AperFunction*
D10*
X144145000Y-44767500D03*
D11*
X141605000Y-44767500D03*
D12*
X140375000Y-35687500D03*
G04 #@! TA.AperFunction,ComponentPad*
G36*
G01*
X138313688Y-37984850D02*
X138313683Y-37984845D01*
G75*
G02*
X138227655Y-36396183I751317J837345D01*
G01*
X139537657Y-34936183D01*
G75*
G02*
X141126319Y-34850155I837345J-751317D01*
G01*
X141126319Y-34850155D01*
G75*
G02*
X141212347Y-36438817I-751317J-837345D01*
G01*
X139902345Y-37898817D01*
G75*
G02*
X138313683Y-37984845I-837345J751317D01*
G01*
G37*
G04 #@! TD.AperFunction*
X145415000Y-34607500D03*
G04 #@! TA.AperFunction,ComponentPad*
G36*
G01*
X145298483Y-36309895D02*
X145297597Y-36309834D01*
G75*
G02*
X144252666Y-35110097I77403J1122334D01*
G01*
X144292666Y-34530097D01*
G75*
G02*
X145492403Y-33485166I1122334J-77403D01*
G01*
X145492403Y-33485166D01*
G75*
G02*
X146537334Y-34684903I-77403J-1122334D01*
G01*
X146497334Y-35264903D01*
G75*
G02*
X145297597Y-36309834I-1122334J77403D01*
G01*
G37*
G04 #@! TD.AperFunction*
D10*
X125095000Y-44767500D03*
D11*
X122555000Y-44767500D03*
D12*
X121325000Y-35687500D03*
G04 #@! TA.AperFunction,ComponentPad*
G36*
G01*
X119263688Y-37984850D02*
X119263683Y-37984845D01*
G75*
G02*
X119177655Y-36396183I751317J837345D01*
G01*
X120487657Y-34936183D01*
G75*
G02*
X122076319Y-34850155I837345J-751317D01*
G01*
X122076319Y-34850155D01*
G75*
G02*
X122162347Y-36438817I-751317J-837345D01*
G01*
X120852345Y-37898817D01*
G75*
G02*
X119263683Y-37984845I-837345J751317D01*
G01*
G37*
G04 #@! TD.AperFunction*
X126365000Y-34607500D03*
G04 #@! TA.AperFunction,ComponentPad*
G36*
G01*
X126248483Y-36309895D02*
X126247597Y-36309834D01*
G75*
G02*
X125202666Y-35110097I77403J1122334D01*
G01*
X125242666Y-34530097D01*
G75*
G02*
X126442403Y-33485166I1122334J-77403D01*
G01*
X126442403Y-33485166D01*
G75*
G02*
X127487334Y-34684903I-77403J-1122334D01*
G01*
X127447334Y-35264903D01*
G75*
G02*
X126247597Y-36309834I-1122334J77403D01*
G01*
G37*
G04 #@! TD.AperFunction*
D10*
X86995000Y-44767500D03*
D11*
X84455000Y-44767500D03*
D12*
X83225000Y-35687500D03*
G04 #@! TA.AperFunction,ComponentPad*
G36*
G01*
X81163688Y-37984850D02*
X81163683Y-37984845D01*
G75*
G02*
X81077655Y-36396183I751317J837345D01*
G01*
X82387657Y-34936183D01*
G75*
G02*
X83976319Y-34850155I837345J-751317D01*
G01*
X83976319Y-34850155D01*
G75*
G02*
X84062347Y-36438817I-751317J-837345D01*
G01*
X82752345Y-37898817D01*
G75*
G02*
X81163683Y-37984845I-837345J751317D01*
G01*
G37*
G04 #@! TD.AperFunction*
X88265000Y-34607500D03*
G04 #@! TA.AperFunction,ComponentPad*
G36*
G01*
X88148483Y-36309895D02*
X88147597Y-36309834D01*
G75*
G02*
X87102666Y-35110097I77403J1122334D01*
G01*
X87142666Y-34530097D01*
G75*
G02*
X88342403Y-33485166I1122334J-77403D01*
G01*
X88342403Y-33485166D01*
G75*
G02*
X89387334Y-34684903I-77403J-1122334D01*
G01*
X89347334Y-35264903D01*
G75*
G02*
X88147597Y-36309834I-1122334J77403D01*
G01*
G37*
G04 #@! TD.AperFunction*
D13*
X330551250Y-30287125D03*
X321911250Y-30287125D03*
D14*
X330551250Y-34467125D03*
X321911250Y-34467125D03*
D15*
X379095000Y-104616250D03*
X376555000Y-104616250D03*
X379095000Y-107156250D03*
X376555000Y-107156250D03*
X379095000Y-109696250D03*
D16*
X376555000Y-109696250D03*
D17*
X331317600Y-113919000D03*
X342417400Y-115747800D03*
X350342200Y-101092000D03*
X333349600Y-98907600D03*
X363855000Y-101473000D03*
X67183000Y-129921000D03*
X67183000Y-125730000D03*
X331317600Y-103047800D03*
X73406000Y-36449000D03*
X73406000Y-43561000D03*
X106807000Y-37719000D03*
X163195000Y-36449000D03*
X163195000Y-46863000D03*
X192532000Y-37846000D03*
X248793000Y-36449000D03*
X247396000Y-46863000D03*
X278257000Y-37719000D03*
X115443000Y-136779000D03*
X164719000Y-133477000D03*
X196469000Y-136525000D03*
X226187000Y-135128000D03*
X359283000Y-37719000D03*
X355854000Y-92837000D03*
X327533000Y-136144000D03*
X58293000Y-136398000D03*
X339725000Y-52832000D03*
X322834000Y-49276000D03*
X334137000Y-54102000D03*
X340868000Y-54356000D03*
X333121000Y-44704000D03*
X324612000Y-47498000D03*
X270891000Y-128524000D03*
X356514400Y-137033000D03*
X341045800Y-98933000D03*
X340664800Y-95453200D03*
X336067400Y-95732600D03*
X74168000Y-38100000D03*
X120904000Y-33528000D03*
X167894000Y-33401000D03*
X206502000Y-33655000D03*
X253746000Y-33274000D03*
X288671000Y-33274000D03*
X321945000Y-36449000D03*
X64262000Y-137795000D03*
X64262000Y-132842000D03*
X368300000Y-132080000D03*
X368300000Y-138303000D03*
X367030000Y-39878000D03*
X329819000Y-36957000D03*
X364998000Y-91948000D03*
X374523000Y-107696000D03*
X368300000Y-120142000D03*
X57912000Y-90551000D03*
X319405000Y-41910000D03*
X333121000Y-41910000D03*
X320294000Y-55880000D03*
X319405000Y-84836000D03*
X332994000Y-84836000D03*
X319405000Y-42926000D03*
X333121000Y-42926000D03*
X320294000Y-56769000D03*
X317881000Y-43053000D03*
X319405000Y-66675000D03*
X332994000Y-66675000D03*
X319405000Y-65786000D03*
X332994000Y-65786000D03*
X296799000Y-78486000D03*
X332994000Y-85725000D03*
X319405000Y-85725000D03*
X327787000Y-37973000D03*
X324993000Y-37973000D03*
X298831000Y-53086000D03*
X353949000Y-97536000D03*
X350139000Y-132969000D03*
X373380000Y-96647000D03*
X333121000Y-43815000D03*
X319405000Y-43815000D03*
X319405000Y-67564000D03*
X332994000Y-67564000D03*
X344678000Y-87122000D03*
X344678000Y-68072000D03*
X344678000Y-44196000D03*
X369824000Y-102108000D03*
X372745000Y-110363000D03*
X372745000Y-116459000D03*
X366522000Y-125984000D03*
X366522000Y-142240000D03*
X274574000Y-85979000D03*
X280924000Y-105791000D03*
X280924000Y-124587000D03*
X324993000Y-37084000D03*
X322326000Y-38354000D03*
X327787000Y-37084000D03*
X329819000Y-38354000D03*
X363474000Y-46863000D03*
X363093000Y-98298000D03*
X65151000Y-104775000D03*
X60198000Y-49276000D03*
X363728000Y-40640000D03*
X364490000Y-98298000D03*
X366522000Y-43561000D03*
X368300000Y-36322000D03*
X329819000Y-50038000D03*
X322834000Y-50165000D03*
X283718000Y-48514000D03*
X285496000Y-39878000D03*
X61468000Y-93726000D03*
X67691000Y-34671000D03*
X52832000Y-90424000D03*
X61341000Y-139954000D03*
X363728000Y-140335000D03*
X363728000Y-131445000D03*
X369570000Y-134747000D03*
X369316000Y-94996000D03*
X282448000Y-65786000D03*
X288417000Y-73533000D03*
X292608000Y-104394000D03*
X289433000Y-81026000D03*
X307340000Y-106172000D03*
X295275000Y-103886000D03*
X307340000Y-107188000D03*
X294386000Y-103886000D03*
X346862400Y-121945400D03*
X346075000Y-142113000D03*
X347827600Y-122123200D03*
X348615000Y-142113000D03*
X309118000Y-46101000D03*
X368173000Y-46609000D03*
X372110000Y-46609000D03*
X295529000Y-89027000D03*
D18*
X294005000Y-44767500D02*
X289496500Y-44767500D01*
X273685000Y-67310000D02*
X274955000Y-68580000D01*
X273685000Y-62230000D02*
X273685000Y-67310000D01*
X289242500Y-106680000D02*
X289242500Y-106616500D01*
X51117500Y-87630000D02*
X51054000Y-87630000D01*
X51054000Y-87630000D02*
X49784000Y-88900000D01*
X49784000Y-88900000D02*
X49784000Y-91186000D01*
X49784000Y-91186000D02*
X54356000Y-95758000D01*
X54356000Y-95758000D02*
X54356000Y-97409000D01*
X54356000Y-97409000D02*
X57404000Y-100457000D01*
X57404000Y-100457000D02*
X57404000Y-102743000D01*
X57404000Y-102743000D02*
X55245000Y-104902000D01*
X55245000Y-104902000D02*
X54610000Y-104902000D01*
X53498750Y-106013250D02*
X53498750Y-106680000D01*
X54610000Y-104902000D02*
X53498750Y-106013250D01*
X53498750Y-106680000D02*
X51276250Y-106680000D01*
X335534000Y-46101000D02*
X336867500Y-44767500D01*
X355917500Y-144780000D02*
X355917500Y-143573500D01*
X355917500Y-143573500D02*
X355473000Y-143129000D01*
X355473000Y-143129000D02*
X337312000Y-143129000D01*
X336867500Y-143573500D02*
X336867500Y-144780000D01*
X337312000Y-143129000D02*
X336867500Y-143573500D01*
X374967500Y-143573500D02*
X374967500Y-144780000D01*
X374523000Y-143129000D02*
X374967500Y-143573500D01*
X355917500Y-143573500D02*
X356362000Y-143129000D01*
X356362000Y-143129000D02*
X374523000Y-143129000D01*
X289242500Y-106870500D02*
X289242500Y-106680000D01*
X286861250Y-124491750D02*
X286861250Y-125730000D01*
X287274000Y-124079000D02*
X286861250Y-124491750D01*
X295910000Y-124079000D02*
X287274000Y-124079000D01*
X296386250Y-124555250D02*
X295910000Y-124079000D01*
X296386250Y-125730000D02*
X296386250Y-124555250D01*
X318516000Y-140462000D02*
X318516000Y-131699000D01*
X313055000Y-126238000D02*
X313055000Y-125730000D01*
X318516000Y-131699000D02*
X313055000Y-126238000D01*
X308292500Y-144780000D02*
X308292500Y-143573500D01*
X308292500Y-143573500D02*
X308737000Y-143129000D01*
X308737000Y-143129000D02*
X312801000Y-143129000D01*
X313213750Y-143541750D02*
X313213750Y-144780000D01*
X312801000Y-143129000D02*
X313213750Y-143541750D01*
X313626500Y-143129000D02*
X313213750Y-143541750D01*
X315849000Y-143129000D02*
X313626500Y-143129000D01*
X315849000Y-143129000D02*
X318516000Y-140462000D01*
X289401250Y-143605250D02*
X289401250Y-144780000D01*
X288925000Y-143129000D02*
X289401250Y-143605250D01*
X284988000Y-143129000D02*
X288925000Y-143129000D01*
X284480000Y-143637000D02*
X284988000Y-143129000D01*
X284480000Y-144780000D02*
X284480000Y-143637000D01*
X286861250Y-125730000D02*
X286861250Y-126206250D01*
X286861250Y-126206250D02*
X294767000Y-134112000D01*
X294767000Y-134112000D02*
X294767000Y-140462000D01*
X294767000Y-140462000D02*
X292100000Y-143129000D01*
X289877500Y-143129000D02*
X289401250Y-143605250D01*
X292100000Y-143129000D02*
X289877500Y-143129000D01*
X363855000Y-101473000D02*
X362966000Y-101473000D01*
X101282500Y-144780000D02*
X101282500Y-143573500D01*
X101282500Y-143573500D02*
X100838000Y-143129000D01*
X100838000Y-143129000D02*
X96774000Y-143129000D01*
X96361250Y-143541750D02*
X96361250Y-144780000D01*
X96774000Y-143129000D02*
X96361250Y-143541750D01*
X101600000Y-143256000D02*
X101282500Y-143573500D01*
X101727000Y-143129000D02*
X101600000Y-143256000D01*
X108267500Y-125730000D02*
X106553000Y-127444500D01*
X77470000Y-144780000D02*
X77470000Y-143510000D01*
X77470000Y-143510000D02*
X77089000Y-143129000D01*
X77089000Y-143129000D02*
X73025000Y-143129000D01*
X72548750Y-143605250D02*
X72548750Y-144780000D01*
X73025000Y-143129000D02*
X72548750Y-143605250D01*
X72548750Y-143541750D02*
X72548750Y-143605250D01*
X72136000Y-143129000D02*
X72548750Y-143541750D01*
X69977000Y-143129000D02*
X72136000Y-143129000D01*
X67310000Y-140462000D02*
X69977000Y-143129000D01*
X67183000Y-129921000D02*
X67310000Y-130048000D01*
X53657500Y-143573500D02*
X53657500Y-144780000D01*
X53213000Y-143129000D02*
X53657500Y-143573500D01*
X49149000Y-143129000D02*
X53213000Y-143129000D01*
X48736250Y-143541750D02*
X49149000Y-143129000D01*
X48736250Y-144780000D02*
X48736250Y-143541750D01*
X58928000Y-126396750D02*
X58261250Y-125730000D01*
X56261000Y-143129000D02*
X58928000Y-140462000D01*
X54102000Y-143129000D02*
X56261000Y-143129000D01*
X53657500Y-143573500D02*
X54102000Y-143129000D01*
X67310000Y-125857000D02*
X67183000Y-125730000D01*
X67310000Y-130556000D02*
X67310000Y-125857000D01*
X67310000Y-130556000D02*
X67310000Y-140462000D01*
X67310000Y-130048000D02*
X67310000Y-130556000D01*
X321183000Y-143129000D02*
X318516000Y-140462000D01*
X336867500Y-143573500D02*
X336423000Y-143129000D01*
X73406000Y-36449000D02*
X73406000Y-37211000D01*
X73406000Y-37211000D02*
X73406000Y-43561000D01*
X107442000Y-38354000D02*
X106807000Y-37719000D01*
X107442000Y-40894000D02*
X107442000Y-38354000D01*
X105283000Y-43053000D02*
X107442000Y-40894000D01*
X104648000Y-43053000D02*
X105283000Y-43053000D01*
X103505000Y-44767500D02*
X103505000Y-44196000D01*
X103505000Y-44196000D02*
X104648000Y-43053000D01*
X163195000Y-36449000D02*
X163195000Y-37084000D01*
X163195000Y-37084000D02*
X163195000Y-46863000D01*
X189230000Y-44196000D02*
X189230000Y-44767500D01*
X190373000Y-43053000D02*
X189230000Y-44196000D01*
X191008000Y-43053000D02*
X190373000Y-43053000D01*
X193167000Y-40894000D02*
X191008000Y-43053000D01*
X192532000Y-37846000D02*
X193167000Y-38481000D01*
X193167000Y-38481000D02*
X193167000Y-40894000D01*
X248793000Y-36449000D02*
X248793000Y-36957000D01*
X248793000Y-36957000D02*
X248793000Y-45593000D01*
X248793000Y-45593000D02*
X247523000Y-46863000D01*
X247523000Y-46863000D02*
X247396000Y-46863000D01*
X274955000Y-44196000D02*
X274955000Y-44767500D01*
X276098000Y-43053000D02*
X274955000Y-44196000D01*
X276860000Y-43053000D02*
X276098000Y-43053000D01*
X278892000Y-41021000D02*
X276860000Y-43053000D01*
X278257000Y-37719000D02*
X278892000Y-38354000D01*
X278892000Y-38354000D02*
X278892000Y-41021000D01*
X335534000Y-50165000D02*
X335534000Y-46101000D01*
X106553000Y-127444500D02*
X106553000Y-130683000D01*
X203517500Y-129476500D02*
X203517500Y-125730000D01*
X196469000Y-136525000D02*
X203517500Y-129476500D01*
X222567500Y-131508500D02*
X222567500Y-125730000D01*
X226187000Y-135128000D02*
X222567500Y-131508500D01*
X327533000Y-140462000D02*
X324866000Y-143129000D01*
X327533000Y-136525000D02*
X327533000Y-140462000D01*
X324866000Y-143129000D02*
X321183000Y-143129000D01*
X330200000Y-143129000D02*
X327533000Y-140462000D01*
X336423000Y-143129000D02*
X330200000Y-143129000D01*
X355917500Y-44132500D02*
X355917500Y-44767500D01*
X356997000Y-43053000D02*
X355917500Y-44132500D01*
X357886000Y-43053000D02*
X356997000Y-43053000D01*
X359918000Y-41021000D02*
X357886000Y-43053000D01*
X359283000Y-37719000D02*
X359918000Y-38354000D01*
X359918000Y-38354000D02*
X359918000Y-41021000D01*
X355917500Y-92773500D02*
X355917500Y-87630000D01*
X355854000Y-92837000D02*
X355917500Y-92773500D01*
X102870000Y-143129000D02*
X104267000Y-143129000D01*
X102870000Y-143129000D02*
X101727000Y-143129000D01*
X110617000Y-136779000D02*
X110744000Y-136779000D01*
X104267000Y-143129000D02*
X110617000Y-136779000D01*
X115443000Y-136779000D02*
X110744000Y-136779000D01*
X106553000Y-132715000D02*
X110617000Y-136779000D01*
X106553000Y-131064000D02*
X106553000Y-132715000D01*
X106553000Y-130683000D02*
X106553000Y-131064000D01*
X327533000Y-136144000D02*
X327533000Y-136525000D01*
X58547000Y-136398000D02*
X58928000Y-136017000D01*
X58293000Y-136398000D02*
X58547000Y-136398000D01*
X58928000Y-136017000D02*
X58928000Y-126396750D01*
X58928000Y-136779000D02*
X58547000Y-136398000D01*
X58928000Y-136906000D02*
X58928000Y-136779000D01*
X58928000Y-140462000D02*
X58928000Y-136906000D01*
X366426750Y-101473000D02*
X369570000Y-104616250D01*
X363855000Y-101473000D02*
X366426750Y-101473000D01*
X376555000Y-104616250D02*
X369570000Y-104616250D01*
X339725000Y-52832000D02*
X336931000Y-52832000D01*
X335534000Y-51435000D02*
X336931000Y-52832000D01*
X335534000Y-50165000D02*
X335534000Y-51435000D01*
X322834000Y-49276000D02*
X331851000Y-49276000D01*
X331851000Y-49276000D02*
X334264000Y-51689000D01*
X334264000Y-51689000D02*
X334264000Y-53975000D01*
X334264000Y-53975000D02*
X334137000Y-54102000D01*
X313055000Y-68580000D02*
X313055000Y-67310000D01*
X313055000Y-67310000D02*
X312674000Y-66929000D01*
X312674000Y-66929000D02*
X303911000Y-66929000D01*
X303530000Y-67310000D02*
X303530000Y-68580000D01*
X303911000Y-66929000D02*
X303530000Y-67310000D01*
X294005000Y-67310000D02*
X294005000Y-68580000D01*
X294386000Y-66929000D02*
X294005000Y-67310000D01*
X303530000Y-67310000D02*
X303149000Y-66929000D01*
X303149000Y-66929000D02*
X294386000Y-66929000D01*
X333121000Y-44704000D02*
X330327000Y-47498000D01*
X330327000Y-47498000D02*
X324612000Y-47498000D01*
X270891000Y-140462000D02*
X270891000Y-136144000D01*
X270891000Y-136144000D02*
X270891000Y-134366000D01*
X270891000Y-134366000D02*
X270891000Y-128524000D01*
X265588750Y-144780000D02*
X265588750Y-143541750D01*
X265588750Y-143541750D02*
X265176000Y-143129000D01*
X265176000Y-143129000D02*
X261112000Y-143129000D01*
X260667500Y-143573500D02*
X260667500Y-144780000D01*
X261112000Y-143129000D02*
X260667500Y-143573500D01*
X265588750Y-143541750D02*
X265588750Y-143478250D01*
X265588750Y-143478250D02*
X265938000Y-143129000D01*
X268224000Y-143129000D02*
X268986000Y-142367000D01*
X265938000Y-143129000D02*
X268224000Y-143129000D01*
X268986000Y-142367000D02*
X270891000Y-140462000D01*
X168275000Y-143129000D02*
X179324000Y-143129000D01*
X179705000Y-143510000D02*
X179705000Y-144780000D01*
X179324000Y-143129000D02*
X179705000Y-143510000D01*
X167798750Y-143605250D02*
X168275000Y-143129000D01*
X167798750Y-144780000D02*
X167798750Y-143605250D01*
X45085000Y-56591200D02*
X45085000Y-46037500D01*
X46990000Y-58496200D02*
X45085000Y-56591200D01*
X45085000Y-62230000D02*
X46990000Y-60325000D01*
X45085000Y-46037500D02*
X46355000Y-44767500D01*
X45085000Y-67310000D02*
X45085000Y-62230000D01*
X46990000Y-60325000D02*
X46990000Y-58496200D01*
X46355000Y-68580000D02*
X45085000Y-67310000D01*
X83185000Y-46037500D02*
X84455000Y-44767500D01*
X83185000Y-56692800D02*
X83185000Y-46037500D01*
X85090000Y-58597800D02*
X83185000Y-56692800D01*
X85090000Y-60426600D02*
X85090000Y-58597800D01*
X83185000Y-62331600D02*
X85090000Y-60426600D01*
X83185000Y-67310000D02*
X83185000Y-62331600D01*
X84455000Y-68580000D02*
X83185000Y-67310000D01*
X102235000Y-56616600D02*
X102235000Y-46037500D01*
X104140000Y-58521600D02*
X102235000Y-56616600D01*
X102235000Y-46037500D02*
X103505000Y-44767500D01*
X104140000Y-60325000D02*
X104140000Y-58521600D01*
X102235000Y-62230000D02*
X104140000Y-60325000D01*
X102235000Y-67310000D02*
X102235000Y-62230000D01*
X103505000Y-68580000D02*
X102235000Y-67310000D01*
X121285000Y-46037500D02*
X122555000Y-44767500D01*
X121285000Y-56616600D02*
X121285000Y-46037500D01*
X123190000Y-58521600D02*
X121285000Y-56616600D01*
X121285000Y-62230000D02*
X123190000Y-60325000D01*
X121285000Y-67310000D02*
X121285000Y-62230000D01*
X123190000Y-60325000D02*
X123190000Y-58521600D01*
X122555000Y-68580000D02*
X121285000Y-67310000D01*
X140335000Y-46037500D02*
X141605000Y-44767500D01*
X142240000Y-60452000D02*
X142240000Y-58547000D01*
X140335000Y-56642000D02*
X140335000Y-46037500D01*
X140335000Y-67310000D02*
X140335000Y-62357000D01*
X142240000Y-58547000D02*
X140335000Y-56642000D01*
X140335000Y-62357000D02*
X142240000Y-60452000D01*
X141605000Y-68580000D02*
X140335000Y-67310000D01*
X168910000Y-46037500D02*
X170180000Y-44767500D01*
X168910000Y-51054000D02*
X168910000Y-46037500D01*
X161417000Y-58547000D02*
X168910000Y-51054000D01*
X159385000Y-62230000D02*
X161417000Y-60198000D01*
X161417000Y-60198000D02*
X161417000Y-58547000D01*
X159385000Y-67310000D02*
X159385000Y-62230000D01*
X160655000Y-68580000D02*
X159385000Y-67310000D01*
X187960000Y-51054000D02*
X187960000Y-46037500D01*
X187960000Y-46037500D02*
X189230000Y-44767500D01*
X180492400Y-60172600D02*
X180492400Y-58521600D01*
X180492400Y-58521600D02*
X187960000Y-51054000D01*
X178435000Y-62230000D02*
X180492400Y-60172600D01*
X178435000Y-67310000D02*
X178435000Y-62230000D01*
X179705000Y-68580000D02*
X178435000Y-67310000D01*
X207327500Y-45720000D02*
X208280000Y-44767500D01*
X207010000Y-46037500D02*
X207327500Y-45720000D01*
X207010000Y-51054000D02*
X207010000Y-46037500D01*
X199593200Y-58470800D02*
X207010000Y-51054000D01*
X197485000Y-62230000D02*
X199593200Y-60121800D01*
X199593200Y-60121800D02*
X199593200Y-58470800D01*
X197485000Y-67310000D02*
X197485000Y-62230000D01*
X198755000Y-68580000D02*
X197485000Y-67310000D01*
X226060000Y-46037500D02*
X227330000Y-44767500D01*
X226060000Y-51054000D02*
X226060000Y-46037500D01*
X218541600Y-58572400D02*
X226060000Y-51054000D01*
X218541600Y-60198000D02*
X218541600Y-58572400D01*
X216535000Y-62204600D02*
X218541600Y-60198000D01*
X216535000Y-67310000D02*
X216535000Y-62204600D01*
X217805000Y-68580000D02*
X216535000Y-67310000D01*
X251396500Y-44767500D02*
X255905000Y-44767500D01*
X237718600Y-58445400D02*
X251396500Y-44767500D01*
X237718600Y-60096400D02*
X237718600Y-58445400D01*
X235585000Y-62230000D02*
X237718600Y-60096400D01*
X235585000Y-67310000D02*
X235585000Y-62230000D01*
X236855000Y-68580000D02*
X235585000Y-67310000D01*
X270446500Y-44767500D02*
X274955000Y-44767500D01*
X256540000Y-58674000D02*
X270446500Y-44767500D01*
X256540000Y-60325000D02*
X256540000Y-58674000D01*
X254635000Y-67310000D02*
X254635000Y-62230000D01*
X254635000Y-62230000D02*
X256540000Y-60325000D01*
X255905000Y-68580000D02*
X254635000Y-67310000D01*
X294640000Y-60325000D02*
X294640000Y-58699400D01*
X292735000Y-62230000D02*
X294640000Y-60325000D01*
X308546500Y-44767500D02*
X313055000Y-44767500D01*
X292735000Y-65278000D02*
X292735000Y-62230000D01*
X294640000Y-58699400D02*
X308546500Y-44767500D01*
X294386000Y-66929000D02*
X292735000Y-65278000D01*
X335534000Y-54229000D02*
X336931000Y-52832000D01*
X335534000Y-56642000D02*
X335534000Y-54229000D01*
X337566000Y-58674000D02*
X335534000Y-56642000D01*
X337566000Y-60325000D02*
X337566000Y-58674000D01*
X335534000Y-62357000D02*
X337566000Y-60325000D01*
X335534000Y-67310000D02*
X335534000Y-62357000D01*
X336804000Y-68580000D02*
X335534000Y-67310000D01*
X336867500Y-68580000D02*
X336804000Y-68580000D01*
X354584000Y-46101000D02*
X355917500Y-44767500D01*
X356565200Y-58648600D02*
X354584000Y-56667400D01*
X356565200Y-60375800D02*
X356565200Y-58648600D01*
X354584000Y-56667400D02*
X354584000Y-46101000D01*
X354584000Y-62357000D02*
X356565200Y-60375800D01*
X354584000Y-67183000D02*
X354584000Y-62357000D01*
X355917500Y-68516500D02*
X354584000Y-67183000D01*
X355917500Y-68580000D02*
X355917500Y-68516500D01*
X375640600Y-58623200D02*
X373634000Y-56616600D01*
X375640600Y-60350400D02*
X375640600Y-58623200D01*
X373634000Y-46101000D02*
X374967500Y-44767500D01*
X373634000Y-62357000D02*
X375640600Y-60350400D01*
X373634000Y-67183000D02*
X373634000Y-62357000D01*
X373634000Y-56616600D02*
X373634000Y-46101000D01*
X374967500Y-68516500D02*
X373634000Y-67183000D01*
X374967500Y-68580000D02*
X374967500Y-68516500D01*
X45085000Y-69850000D02*
X46355000Y-68580000D01*
X45085000Y-74041000D02*
X45085000Y-69850000D01*
X47523400Y-76479400D02*
X45085000Y-74041000D01*
X50749200Y-76479400D02*
X47523400Y-76479400D01*
X51816000Y-77546200D02*
X50749200Y-76479400D01*
X51816000Y-79375000D02*
X51816000Y-77546200D01*
X49784000Y-86296500D02*
X49784000Y-81407000D01*
X49784000Y-81407000D02*
X51816000Y-79375000D01*
X51117500Y-87630000D02*
X49784000Y-86296500D01*
X335534000Y-69913500D02*
X336867500Y-68580000D01*
X335534000Y-75768200D02*
X335534000Y-69913500D01*
X337591400Y-79349600D02*
X337591400Y-77825600D01*
X337591400Y-77825600D02*
X335534000Y-75768200D01*
X335534000Y-86360000D02*
X335534000Y-81407000D01*
X336804000Y-87630000D02*
X335534000Y-86360000D01*
X335534000Y-81407000D02*
X337591400Y-79349600D01*
X336867500Y-87630000D02*
X336804000Y-87630000D01*
X354584000Y-69913500D02*
X355917500Y-68580000D01*
X354584000Y-75565000D02*
X354584000Y-69913500D01*
X356641400Y-77622400D02*
X354584000Y-75565000D01*
X356641400Y-79349600D02*
X356641400Y-77622400D01*
X354584000Y-81407000D02*
X356641400Y-79349600D01*
X354584000Y-86233000D02*
X354584000Y-81407000D01*
X355917500Y-87566500D02*
X354584000Y-86233000D01*
X355917500Y-87630000D02*
X355917500Y-87566500D01*
X373634000Y-69913500D02*
X374967500Y-68580000D01*
X375691400Y-79349600D02*
X375691400Y-77622400D01*
X373634000Y-81407000D02*
X375691400Y-79349600D01*
X373634000Y-86360000D02*
X373634000Y-81407000D01*
X373634000Y-75565000D02*
X373634000Y-69913500D01*
X375691400Y-77622400D02*
X373634000Y-75565000D01*
X374904000Y-87630000D02*
X373634000Y-86360000D01*
X374967500Y-87630000D02*
X374904000Y-87630000D01*
X73660000Y-88900000D02*
X74930000Y-87630000D01*
X73660000Y-92964000D02*
X73660000Y-88900000D01*
X76327000Y-95631000D02*
X73660000Y-92964000D01*
X80416400Y-96697800D02*
X79349600Y-95631000D01*
X79349600Y-95631000D02*
X76327000Y-95631000D01*
X80416400Y-98399600D02*
X80416400Y-96697800D01*
X78359000Y-100457000D02*
X80416400Y-98399600D01*
X79629000Y-106680000D02*
X78359000Y-105410000D01*
X78359000Y-105410000D02*
X78359000Y-100457000D01*
X79692500Y-106680000D02*
X79629000Y-106680000D01*
X92710000Y-88900000D02*
X93980000Y-87630000D01*
X95173800Y-95427800D02*
X92710000Y-92964000D01*
X98399600Y-95427800D02*
X95173800Y-95427800D01*
X99517200Y-96545400D02*
X98399600Y-95427800D01*
X99517200Y-98348800D02*
X99517200Y-96545400D01*
X97409000Y-100457000D02*
X99517200Y-98348800D01*
X92710000Y-92964000D02*
X92710000Y-88900000D01*
X98679000Y-106680000D02*
X97409000Y-105410000D01*
X97409000Y-105410000D02*
X97409000Y-100457000D01*
X98742500Y-106680000D02*
X98679000Y-106680000D01*
X111760000Y-88900000D02*
X113030000Y-87630000D01*
X114249200Y-95580200D02*
X111760000Y-93091000D01*
X117551200Y-95580200D02*
X114249200Y-95580200D01*
X118541800Y-96570800D02*
X117551200Y-95580200D01*
X111760000Y-93091000D02*
X111760000Y-88900000D01*
X118541800Y-98374200D02*
X118541800Y-96570800D01*
X116459000Y-100457000D02*
X118541800Y-98374200D01*
X117729000Y-106680000D02*
X116459000Y-105410000D01*
X116459000Y-105410000D02*
X116459000Y-100457000D01*
X117792500Y-106680000D02*
X117729000Y-106680000D01*
X130810000Y-88900000D02*
X132080000Y-87630000D01*
X133324600Y-95605600D02*
X130810000Y-93091000D01*
X136499600Y-95605600D02*
X133324600Y-95605600D01*
X137617200Y-96723200D02*
X136499600Y-95605600D01*
X137617200Y-98348800D02*
X137617200Y-96723200D01*
X135509000Y-100457000D02*
X137617200Y-98348800D01*
X135509000Y-105283000D02*
X135509000Y-100457000D01*
X130810000Y-93091000D02*
X130810000Y-88900000D01*
X136842500Y-106616500D02*
X135509000Y-105283000D01*
X136842500Y-106680000D02*
X136842500Y-106616500D01*
X149860000Y-88900000D02*
X151130000Y-87630000D01*
X149860000Y-93091000D02*
X149860000Y-88900000D01*
X152222200Y-95453200D02*
X149860000Y-93091000D01*
X155549600Y-95453200D02*
X152222200Y-95453200D01*
X156667200Y-96570800D02*
X155549600Y-95453200D01*
X156667200Y-98348800D02*
X156667200Y-96570800D01*
X154559000Y-100457000D02*
X156667200Y-98348800D01*
X155829000Y-106680000D02*
X154559000Y-105410000D01*
X154559000Y-105410000D02*
X154559000Y-100457000D01*
X155892500Y-106680000D02*
X155829000Y-106680000D01*
X168910000Y-93091000D02*
X168910000Y-88900000D01*
X171221400Y-95402400D02*
X168910000Y-93091000D01*
X175768000Y-96621600D02*
X174548800Y-95402400D01*
X174548800Y-95402400D02*
X171221400Y-95402400D01*
X175768000Y-98298000D02*
X175768000Y-96621600D01*
X173609000Y-100457000D02*
X175768000Y-98298000D01*
X168910000Y-88900000D02*
X170180000Y-87630000D01*
X173609000Y-105283000D02*
X173609000Y-100457000D01*
X174942500Y-106616500D02*
X173609000Y-105283000D01*
X174942500Y-106680000D02*
X174942500Y-106616500D01*
X187960000Y-88900000D02*
X189230000Y-87630000D01*
X187960000Y-93091000D02*
X187960000Y-88900000D01*
X190347600Y-95478600D02*
X187960000Y-93091000D01*
X193700400Y-95478600D02*
X190347600Y-95478600D01*
X194818000Y-98171000D02*
X194818000Y-96596200D01*
X194818000Y-96596200D02*
X193700400Y-95478600D01*
X192659000Y-105283000D02*
X192659000Y-100330000D01*
X193992500Y-106616500D02*
X192659000Y-105283000D01*
X192659000Y-100330000D02*
X194818000Y-98171000D01*
X193992500Y-106680000D02*
X193992500Y-106616500D01*
X207010000Y-93091000D02*
X207010000Y-88900000D01*
X209372200Y-95453200D02*
X207010000Y-93091000D01*
X207010000Y-88900000D02*
X208280000Y-87630000D01*
X212725000Y-95453200D02*
X209372200Y-95453200D01*
X213893400Y-96621600D02*
X212725000Y-95453200D01*
X213893400Y-98272600D02*
X213893400Y-96621600D01*
X211709000Y-100457000D02*
X213893400Y-98272600D01*
X211709000Y-105283000D02*
X211709000Y-100457000D01*
X213042500Y-106616500D02*
X211709000Y-105283000D01*
X213042500Y-106680000D02*
X213042500Y-106616500D01*
X226060000Y-93091000D02*
X226060000Y-88900000D01*
X231825800Y-95478600D02*
X228447600Y-95478600D01*
X232943400Y-98272600D02*
X232943400Y-96596200D01*
X230759000Y-100457000D02*
X232943400Y-98272600D01*
X232943400Y-96596200D02*
X231825800Y-95478600D01*
X230759000Y-105283000D02*
X230759000Y-100457000D01*
X232092500Y-106616500D02*
X230759000Y-105283000D01*
X226060000Y-88900000D02*
X227330000Y-87630000D01*
X228447600Y-95478600D02*
X226060000Y-93091000D01*
X232092500Y-106680000D02*
X232092500Y-106616500D01*
X245110000Y-88900000D02*
X246380000Y-87630000D01*
X245110000Y-93091000D02*
X245110000Y-88900000D01*
X251917200Y-98348800D02*
X251917200Y-96596200D01*
X251917200Y-96596200D02*
X250774200Y-95453200D01*
X249809000Y-100457000D02*
X251917200Y-98348800D01*
X247472200Y-95453200D02*
X245110000Y-93091000D01*
X250774200Y-95453200D02*
X247472200Y-95453200D01*
X249809000Y-105410000D02*
X249809000Y-100457000D01*
X251079000Y-106680000D02*
X249809000Y-105410000D01*
X251142500Y-106680000D02*
X251079000Y-106680000D01*
X264160000Y-93091000D02*
X264160000Y-88900000D01*
X266623800Y-95554800D02*
X264160000Y-93091000D01*
X269773400Y-95554800D02*
X266623800Y-95554800D01*
X270967200Y-96748600D02*
X269773400Y-95554800D01*
X268859000Y-100457000D02*
X270967200Y-98348800D01*
X270967200Y-98348800D02*
X270967200Y-96748600D01*
X268859000Y-105283000D02*
X268859000Y-100457000D01*
X264160000Y-88900000D02*
X265430000Y-87630000D01*
X270192500Y-106616500D02*
X268859000Y-105283000D01*
X270192500Y-106680000D02*
X270192500Y-106616500D01*
X301148750Y-106680000D02*
X299567600Y-105098850D01*
X299567600Y-105098850D02*
X299567600Y-100711000D01*
X299567600Y-100711000D02*
X301980600Y-98298000D01*
X301980600Y-98298000D02*
X301980600Y-93751400D01*
X304927000Y-90805000D02*
X306863750Y-90805000D01*
X301980600Y-93751400D02*
X304927000Y-90805000D01*
X313055000Y-73279000D02*
X313055000Y-68580000D01*
X316357000Y-76581000D02*
X313055000Y-73279000D01*
X317957200Y-87477600D02*
X316357000Y-85877400D01*
X317957200Y-90551000D02*
X317957200Y-87477600D01*
X316941200Y-91567000D02*
X317957200Y-90551000D01*
X315214000Y-91567000D02*
X316941200Y-91567000D01*
X313055000Y-89408000D02*
X315214000Y-91567000D01*
X308260750Y-89408000D02*
X313055000Y-89408000D01*
X316357000Y-85877400D02*
X316357000Y-76581000D01*
X306863750Y-90805000D02*
X308260750Y-89408000D01*
X47371000Y-119481600D02*
X50292000Y-116560600D01*
X48736250Y-125698250D02*
X47371000Y-124333000D01*
X47371000Y-124333000D02*
X47371000Y-119481600D01*
X48736250Y-125730000D02*
X48736250Y-125698250D01*
X50292000Y-116560600D02*
X50292000Y-115798600D01*
X50292000Y-115798600D02*
X50901600Y-115189000D01*
X50901600Y-107054650D02*
X51276250Y-106680000D01*
X50901600Y-115189000D02*
X50901600Y-107054650D01*
X287096200Y-109118400D02*
X289242500Y-106972100D01*
X287096200Y-110515400D02*
X287096200Y-109118400D01*
X288925000Y-112344200D02*
X287096200Y-110515400D01*
X288925000Y-114985800D02*
X288925000Y-112344200D01*
X287985200Y-115925600D02*
X288925000Y-114985800D01*
X287985200Y-117017800D02*
X287985200Y-115925600D01*
X285496000Y-123126500D02*
X285496000Y-119507000D01*
X289242500Y-106972100D02*
X289242500Y-106680000D01*
X285496000Y-119507000D02*
X287985200Y-117017800D01*
X286861250Y-124491750D02*
X285496000Y-123126500D01*
X164084000Y-127063500D02*
X165417500Y-125730000D01*
X164084000Y-132410200D02*
X164084000Y-127063500D01*
X167436800Y-133705600D02*
X165379400Y-133705600D01*
X168656000Y-134924800D02*
X167436800Y-133705600D01*
X168656000Y-136398000D02*
X168656000Y-134924800D01*
X166497000Y-138557000D02*
X168656000Y-136398000D01*
X166497000Y-141351000D02*
X166497000Y-138557000D01*
X168275000Y-143129000D02*
X166497000Y-141351000D01*
X164744400Y-133477000D02*
X164947600Y-133273800D01*
X164719000Y-133477000D02*
X164744400Y-133477000D01*
X164947600Y-133273800D02*
X164084000Y-132410200D01*
X165379400Y-133705600D02*
X164947600Y-133273800D01*
X240284000Y-127063500D02*
X241617500Y-125730000D01*
X240284000Y-129032000D02*
X240284000Y-127063500D01*
X241427000Y-132842000D02*
X241427000Y-130175000D01*
X240106200Y-134162800D02*
X241427000Y-132842000D01*
X240106200Y-136321800D02*
X240106200Y-134162800D01*
X237871000Y-138557000D02*
X240106200Y-136321800D01*
X237871000Y-143383000D02*
X237871000Y-138557000D01*
X239236250Y-144748250D02*
X237871000Y-143383000D01*
X241427000Y-130175000D02*
X240284000Y-129032000D01*
X239236250Y-144780000D02*
X239236250Y-144748250D01*
X354584000Y-127063500D02*
X355917500Y-125730000D01*
X354584000Y-132715000D02*
X354584000Y-127063500D01*
X356616000Y-134747000D02*
X354584000Y-132715000D01*
X354584000Y-140970000D02*
X354584000Y-138557000D01*
X355473000Y-141859000D02*
X354584000Y-140970000D01*
X356616000Y-136525000D02*
X356616000Y-134747000D01*
X355473000Y-143129000D02*
X355473000Y-141859000D01*
X356514400Y-137033000D02*
X356311200Y-136829800D01*
X356311200Y-136829800D02*
X356616000Y-136525000D01*
X354584000Y-138557000D02*
X356311200Y-136829800D01*
X350342200Y-101396800D02*
X350266000Y-101473000D01*
X350342200Y-101092000D02*
X350342200Y-101396800D01*
X350266000Y-101473000D02*
X362966000Y-101473000D01*
X331317600Y-113919000D02*
X331317600Y-102844600D01*
X331317600Y-101523800D02*
X331317600Y-103047800D01*
X333222600Y-98907600D02*
X331317600Y-100812600D01*
X341045800Y-98907600D02*
X333222600Y-98907600D01*
X331317600Y-100812600D02*
X331317600Y-101523800D01*
X335407000Y-94970600D02*
X333349600Y-97028000D01*
X340868000Y-54356000D02*
X340995000Y-54483000D01*
X340995000Y-54483000D02*
X340995000Y-56134000D01*
X340995000Y-56134000D02*
X342392000Y-57531000D01*
X342392000Y-78892400D02*
X340995000Y-80111600D01*
X342392000Y-60198000D02*
X341045800Y-61544200D01*
X340995000Y-75311000D02*
X342392000Y-76708000D01*
X341045800Y-61544200D02*
X341045800Y-62280800D01*
X341045800Y-62280800D02*
X340995000Y-75311000D01*
X333349600Y-97256600D02*
X333349600Y-98907600D01*
X342392000Y-76708000D02*
X342392000Y-78892400D01*
X333349600Y-97028000D02*
X333349600Y-97256600D01*
X342392000Y-57531000D02*
X342392000Y-60198000D01*
X340995000Y-80111600D02*
X340995000Y-94081600D01*
X340995000Y-94081600D02*
X340106000Y-94970600D01*
X340106000Y-94970600D02*
X335407000Y-94970600D01*
X346075000Y-101473000D02*
X349300800Y-101473000D01*
X343535000Y-98933000D02*
X346075000Y-101473000D01*
X341045800Y-98933000D02*
X343535000Y-98933000D01*
X349300800Y-101473000D02*
X348996000Y-101473000D01*
X350266000Y-101473000D02*
X349300800Y-101473000D01*
X332536800Y-115747800D02*
X342417400Y-115747800D01*
X331317600Y-114528600D02*
X332536800Y-115747800D01*
X331317600Y-113919000D02*
X331317600Y-114528600D01*
X273685000Y-62230000D02*
X273710400Y-62230000D01*
X273710400Y-62230000D02*
X275945600Y-59994800D01*
X275945600Y-58318400D02*
X289496500Y-44767500D01*
X275945600Y-59994800D02*
X275945600Y-58318400D01*
X120904000Y-33147000D02*
X120904000Y-33528000D01*
X167894000Y-33147000D02*
X167894000Y-33401000D01*
X167640000Y-32893000D02*
X167894000Y-33147000D01*
X120904000Y-33147000D02*
X121158000Y-32893000D01*
X121158000Y-32893000D02*
X167640000Y-32893000D01*
X167894000Y-33147000D02*
X168148000Y-32893000D01*
X168148000Y-32893000D02*
X206248000Y-32893000D01*
X206248000Y-32893000D02*
X206502000Y-33147000D01*
X206502000Y-33147000D02*
X206502000Y-33655000D01*
X206756000Y-32893000D02*
X206502000Y-33147000D01*
X253619000Y-32893000D02*
X206756000Y-32893000D01*
X253746000Y-33020000D02*
X253619000Y-32893000D01*
X253746000Y-33274000D02*
X253746000Y-33020000D01*
X120650000Y-32893000D02*
X120904000Y-33147000D01*
X76835000Y-32893000D02*
X120650000Y-32893000D01*
X74168000Y-38100000D02*
X74168000Y-35560000D01*
X253746000Y-33274000D02*
X253746000Y-33147000D01*
X253746000Y-33147000D02*
X254000000Y-32893000D01*
X254000000Y-32893000D02*
X288544000Y-32893000D01*
X288544000Y-32893000D02*
X288671000Y-33020000D01*
X288671000Y-33020000D02*
X288671000Y-33274000D01*
X288671000Y-33274000D02*
X288671000Y-33147000D01*
X288671000Y-33147000D02*
X288925000Y-32893000D01*
X288925000Y-32893000D02*
X317754000Y-32893000D01*
X317754000Y-32893000D02*
X321310000Y-36449000D01*
X321310000Y-36449000D02*
X321945000Y-36449000D01*
X64262000Y-137795000D02*
X64262000Y-132842000D01*
X368300000Y-132080000D02*
X368300000Y-133223000D01*
X368300000Y-133223000D02*
X368300000Y-138303000D01*
X364998000Y-91948000D02*
X364871000Y-91821000D01*
X364871000Y-91821000D02*
X364871000Y-52324000D01*
X364871000Y-52324000D02*
X366268000Y-50927000D01*
X366268000Y-50927000D02*
X366268000Y-49657000D01*
X366268000Y-49657000D02*
X364871000Y-48260000D01*
X364871000Y-48260000D02*
X364871000Y-42037000D01*
X376555000Y-109696250D02*
X376523250Y-109696250D01*
X376523250Y-109696250D02*
X374523000Y-107696000D01*
X368300000Y-132080000D02*
X368300000Y-120142000D01*
X57912000Y-90551000D02*
X58864500Y-89598500D01*
X58864500Y-89598500D02*
X58864500Y-42354500D01*
X58864500Y-42354500D02*
X68326000Y-32893000D01*
X68326000Y-32893000D02*
X72644000Y-32893000D01*
X74168000Y-34417000D02*
X74168000Y-35560000D01*
X72644000Y-32893000D02*
X74168000Y-34417000D01*
X75692000Y-32893000D02*
X74168000Y-34417000D01*
X76835000Y-32893000D02*
X75692000Y-32893000D01*
X359918000Y-32893000D02*
X360553000Y-32893000D01*
X360553000Y-32893000D02*
X364871000Y-37211000D01*
X364871000Y-41402000D02*
X364871000Y-41275000D01*
X364871000Y-41402000D02*
X364871000Y-42037000D01*
X367030000Y-39878000D02*
X366395000Y-39878000D01*
X364871000Y-37973000D02*
X364871000Y-38481000D01*
X364871000Y-37211000D02*
X364871000Y-37973000D01*
X364871000Y-41275000D02*
X364871000Y-41148000D01*
X366141000Y-39878000D02*
X366395000Y-39878000D01*
X364871000Y-41148000D02*
X366141000Y-39878000D01*
X364871000Y-38608000D02*
X366141000Y-39878000D01*
X364871000Y-38481000D02*
X364871000Y-38608000D01*
X346964000Y-32893000D02*
X341630000Y-38227000D01*
X352298000Y-32893000D02*
X346964000Y-32893000D01*
X359918000Y-32893000D02*
X352298000Y-32893000D01*
X334594200Y-33604200D02*
X331241400Y-36957000D01*
X330327000Y-36957000D02*
X329819000Y-36957000D01*
X337134200Y-33604200D02*
X334594200Y-33604200D01*
X331241400Y-36957000D02*
X330327000Y-36957000D01*
X338150200Y-35280600D02*
X338150200Y-34620200D01*
X341096600Y-38227000D02*
X338150200Y-35280600D01*
X338150200Y-34620200D02*
X337134200Y-33604200D01*
X341630000Y-38227000D02*
X341096600Y-38227000D01*
X341630000Y-94411800D02*
X340817200Y-95224600D01*
X341630000Y-80568800D02*
X341630000Y-94411800D01*
X341630000Y-74930000D02*
X343027000Y-76327000D01*
X341630000Y-61976000D02*
X341630000Y-74930000D01*
X343027000Y-76327000D02*
X343027000Y-79298800D01*
X343027000Y-60579000D02*
X341630000Y-61976000D01*
X343027000Y-57150000D02*
X343027000Y-60579000D01*
X343027000Y-79298800D02*
X341630000Y-80568800D01*
X341630000Y-55753000D02*
X343027000Y-57150000D01*
X341630000Y-38227000D02*
X341630000Y-55753000D01*
X340461600Y-95580200D02*
X340817200Y-95224600D01*
X336067400Y-95580200D02*
X340461600Y-95580200D01*
X336067400Y-95732600D02*
X336067400Y-95580200D01*
D19*
X52546250Y-97472500D02*
X50958750Y-99060000D01*
X52546250Y-96520000D02*
X52546250Y-97472500D01*
X46196250Y-137160000D02*
X48577500Y-137160000D01*
X70008750Y-137160000D02*
X72390000Y-137160000D01*
X44450000Y-37782500D02*
X43815000Y-37147500D01*
X44450000Y-60325000D02*
X44450000Y-37782500D01*
X43815000Y-60960000D02*
X44450000Y-60325000D01*
X44450000Y-61595000D02*
X43815000Y-60960000D01*
X48577500Y-78422500D02*
X44450000Y-74295000D01*
X48577500Y-80010000D02*
X48577500Y-78422500D01*
X44450000Y-74295000D02*
X44450000Y-61595000D01*
X46736000Y-136620250D02*
X46196250Y-137160000D01*
X46736000Y-118649750D02*
X46736000Y-125857000D01*
X46196250Y-118110000D02*
X46736000Y-118649750D01*
X46736000Y-125857000D02*
X44958000Y-127635000D01*
X44958000Y-127635000D02*
X44958000Y-130175000D01*
X44958000Y-130175000D02*
X46736000Y-131953000D01*
X46736000Y-131953000D02*
X46736000Y-136620250D01*
X48577500Y-80010000D02*
X49149000Y-80581500D01*
X52546250Y-94837250D02*
X49149000Y-91440000D01*
X52546250Y-96520000D02*
X52546250Y-94837250D01*
X49149000Y-80581500D02*
X49149000Y-91440000D01*
X77152500Y-99060000D02*
X77152500Y-97345500D01*
X77152500Y-97345500D02*
X73025000Y-93218000D01*
X73025000Y-80645000D02*
X72390000Y-80010000D01*
X73025000Y-93218000D02*
X73025000Y-80645000D01*
X62865000Y-60960000D02*
X63500000Y-61595000D01*
X63500000Y-61595000D02*
X63500000Y-70739000D01*
X63500000Y-70739000D02*
X64262000Y-71501000D01*
X68580000Y-76200000D02*
X72390000Y-80010000D01*
X64262000Y-71501000D02*
X64262000Y-74803000D01*
X64262000Y-74803000D02*
X65659000Y-76200000D01*
X65659000Y-76200000D02*
X68580000Y-76200000D01*
X68199000Y-135350250D02*
X70008750Y-137160000D01*
X67945000Y-135096250D02*
X68199000Y-135350250D01*
X67945000Y-118427500D02*
X67945000Y-135096250D01*
X67627500Y-118110000D02*
X67945000Y-118427500D01*
X46196250Y-116427250D02*
X46196250Y-118110000D01*
X50958750Y-99060000D02*
X48768000Y-99060000D01*
X47117000Y-100711000D02*
X47117000Y-109982000D01*
X47117000Y-109982000D02*
X44704000Y-112395000D01*
X44704000Y-112395000D02*
X44704000Y-114935000D01*
X48768000Y-99060000D02*
X47117000Y-100711000D01*
X44704000Y-114935000D02*
X46196250Y-116427250D01*
X319405000Y-41910000D02*
X319659000Y-42164000D01*
X319659000Y-42164000D02*
X320802000Y-42164000D01*
X320802000Y-42164000D02*
X332867000Y-42164000D01*
X332867000Y-42164000D02*
X333121000Y-41910000D01*
X319151000Y-41910000D02*
X319405000Y-41910000D01*
X318643000Y-42418000D02*
X319151000Y-41910000D01*
X318643000Y-45085000D02*
X318643000Y-42418000D01*
X320040000Y-55626000D02*
X320294000Y-55880000D01*
X320040000Y-46482000D02*
X320040000Y-55626000D01*
X320040000Y-46482000D02*
X318643000Y-45085000D01*
X319405000Y-84836000D02*
X319595500Y-85026500D01*
X319595500Y-85026500D02*
X332803500Y-85026500D01*
X332803500Y-85026500D02*
X332994000Y-84836000D01*
X333121000Y-42926000D02*
X332867000Y-42672000D01*
X319659000Y-42672000D02*
X319405000Y-42926000D01*
X332867000Y-42672000D02*
X319659000Y-42672000D01*
X318135000Y-43307000D02*
X317881000Y-43053000D01*
X318135000Y-45339000D02*
X318135000Y-43307000D01*
X319532000Y-46736000D02*
X318135000Y-45339000D01*
X319532000Y-56134000D02*
X319532000Y-46736000D01*
X320167000Y-56769000D02*
X319532000Y-56134000D01*
X320294000Y-56769000D02*
X320167000Y-56769000D01*
X319405000Y-66675000D02*
X319532000Y-66675000D01*
X319532000Y-66675000D02*
X319722500Y-66484500D01*
X319722500Y-66484500D02*
X332803500Y-66484500D01*
X332803500Y-66484500D02*
X332994000Y-66675000D01*
X319405000Y-65786000D02*
X319532000Y-65786000D01*
X319532000Y-65786000D02*
X319722500Y-65976500D01*
X319722500Y-65976500D02*
X332803500Y-65976500D01*
X332803500Y-65976500D02*
X332994000Y-65786000D01*
X293052500Y-96520000D02*
X293116000Y-96520000D01*
X294767000Y-80518000D02*
X295021000Y-80264000D01*
X294767000Y-94869000D02*
X294767000Y-80518000D01*
X295021000Y-80264000D02*
X296799000Y-78486000D01*
X293116000Y-96520000D02*
X294767000Y-94869000D01*
X332994000Y-85725000D02*
X332803500Y-85534500D01*
X332803500Y-85534500D02*
X319595500Y-85534500D01*
X319595500Y-85534500D02*
X319405000Y-85725000D01*
D18*
X327787000Y-37973000D02*
X327025000Y-37973000D01*
X327025000Y-37973000D02*
X324993000Y-37973000D01*
D19*
X120650000Y-60325000D02*
X120015000Y-60960000D01*
X120650000Y-37782500D02*
X120650000Y-60325000D01*
X120015000Y-37147500D02*
X120650000Y-37782500D01*
X139700000Y-60325000D02*
X139065000Y-60960000D01*
X139700000Y-37782500D02*
X139700000Y-60325000D01*
X139065000Y-37147500D02*
X139700000Y-37782500D01*
X124714000Y-75184000D02*
X129540000Y-80010000D01*
X66167000Y-75184000D02*
X124714000Y-75184000D01*
X120650000Y-61595000D02*
X120650000Y-67310000D01*
X120015000Y-60960000D02*
X120650000Y-61595000D01*
X65278000Y-74295000D02*
X66167000Y-75184000D01*
X117094000Y-70866000D02*
X66167000Y-70866000D01*
X66167000Y-70866000D02*
X65278000Y-71755000D01*
X65278000Y-71755000D02*
X65278000Y-74295000D01*
X130175000Y-80645000D02*
X129540000Y-80010000D01*
X130175000Y-93345000D02*
X130175000Y-80645000D01*
X134302500Y-97472500D02*
X130175000Y-93345000D01*
X134302500Y-99060000D02*
X134302500Y-97472500D01*
X153352500Y-99060000D02*
X153352500Y-97472500D01*
X153352500Y-97472500D02*
X149225000Y-93345000D01*
X149225000Y-80645000D02*
X148590000Y-80010000D01*
X149225000Y-93345000D02*
X149225000Y-80645000D01*
X134874000Y-99631500D02*
X134302500Y-99060000D01*
X134874000Y-105283000D02*
X134874000Y-99631500D01*
X131191000Y-108966000D02*
X134874000Y-105283000D01*
X124777500Y-118110000D02*
X119951500Y-113284000D01*
X119951500Y-113284000D02*
X80391000Y-113284000D01*
X80391000Y-113284000D02*
X79502000Y-112395000D01*
X79502000Y-112395000D02*
X79502000Y-109982000D01*
X79502000Y-109982000D02*
X80518000Y-108966000D01*
X80518000Y-108966000D02*
X131191000Y-108966000D01*
X120650000Y-68834000D02*
X120650000Y-67310000D01*
X118618000Y-70866000D02*
X120650000Y-68834000D01*
X117094000Y-70866000D02*
X118618000Y-70866000D01*
X139700000Y-61595000D02*
X139065000Y-60960000D01*
X139700000Y-67310000D02*
X139700000Y-61595000D01*
X136144000Y-70866000D02*
X139700000Y-67310000D01*
X122682000Y-70866000D02*
X136144000Y-70866000D01*
X120650000Y-68834000D02*
X122682000Y-70866000D01*
X134216000Y-75184000D02*
X130850000Y-78550000D01*
X143764000Y-75184000D02*
X134216000Y-75184000D01*
X148590000Y-80010000D02*
X143764000Y-75184000D01*
X129453500Y-113284000D02*
X126087500Y-116650000D01*
X139065000Y-113284000D02*
X129453500Y-113284000D01*
X143827500Y-118046500D02*
X139065000Y-113284000D01*
X143827500Y-118110000D02*
X143827500Y-118046500D01*
X82550000Y-60325000D02*
X81915000Y-60960000D01*
X82550000Y-37782500D02*
X82550000Y-60325000D01*
X81915000Y-37147500D02*
X82550000Y-37782500D01*
X101600000Y-60325000D02*
X100965000Y-60960000D01*
X101600000Y-37782500D02*
X101600000Y-60325000D01*
X100965000Y-37147500D02*
X101600000Y-37782500D01*
X87122000Y-75692000D02*
X91440000Y-80010000D01*
X65913000Y-75692000D02*
X87122000Y-75692000D01*
X64770000Y-74549000D02*
X65913000Y-75692000D01*
X81915000Y-60960000D02*
X82550000Y-61595000D01*
X79502000Y-70358000D02*
X65913000Y-70358000D01*
X65913000Y-70358000D02*
X64770000Y-71501000D01*
X82550000Y-61595000D02*
X82550000Y-67310000D01*
X64770000Y-71501000D02*
X64770000Y-74549000D01*
X92075000Y-80645000D02*
X91440000Y-80010000D01*
X92075000Y-93218000D02*
X92075000Y-80645000D01*
X96202500Y-97345500D02*
X92075000Y-93218000D01*
X96202500Y-99060000D02*
X96202500Y-97345500D01*
X111125000Y-80645000D02*
X110490000Y-80010000D01*
X111125000Y-93345000D02*
X111125000Y-80645000D01*
X115252500Y-97472500D02*
X111125000Y-93345000D01*
X115252500Y-99060000D02*
X115252500Y-97472500D01*
X96202500Y-137160000D02*
X93821250Y-137160000D01*
X87217250Y-118649750D02*
X86677500Y-118110000D01*
X87217250Y-130556000D02*
X87217250Y-118649750D01*
X87217250Y-130556000D02*
X93821250Y-137160000D01*
X96774000Y-99631500D02*
X96202500Y-99060000D01*
X96774000Y-105410000D02*
X96774000Y-99631500D01*
X93726000Y-108458000D02*
X96774000Y-105410000D01*
X86677500Y-118110000D02*
X82359500Y-113792000D01*
X82359500Y-113792000D02*
X80137000Y-113792000D01*
X80137000Y-113792000D02*
X78994000Y-112649000D01*
X78994000Y-112649000D02*
X78994000Y-109728000D01*
X78994000Y-109728000D02*
X80264000Y-108458000D01*
X80264000Y-108458000D02*
X93726000Y-108458000D01*
X82550000Y-68834000D02*
X82550000Y-67310000D01*
X81026000Y-70358000D02*
X82550000Y-68834000D01*
X79502000Y-70358000D02*
X81026000Y-70358000D01*
X101600000Y-61595000D02*
X100965000Y-60960000D01*
X101600000Y-67310000D02*
X101600000Y-61595000D01*
X98552000Y-70358000D02*
X101600000Y-67310000D01*
X82550000Y-68834000D02*
X84074000Y-70358000D01*
X84074000Y-70358000D02*
X98552000Y-70358000D01*
X95608000Y-75692000D02*
X92750000Y-78550000D01*
X106172000Y-75692000D02*
X95608000Y-75692000D01*
X110490000Y-80010000D02*
X106172000Y-75692000D01*
X90845500Y-113792000D02*
X87987500Y-116650000D01*
X101473000Y-113792000D02*
X90845500Y-113792000D01*
X105727500Y-118046500D02*
X101473000Y-113792000D01*
X105727500Y-118110000D02*
X105727500Y-118046500D01*
X187325000Y-37782500D02*
X186690000Y-37147500D01*
X187325000Y-50800000D02*
X187325000Y-37782500D01*
X177165000Y-60960000D02*
X187325000Y-50800000D01*
X168275000Y-37782500D02*
X167640000Y-37147500D01*
X158115000Y-60960000D02*
X168275000Y-50800000D01*
X168275000Y-50800000D02*
X168275000Y-37782500D01*
X158115000Y-60960000D02*
X158115000Y-61214000D01*
X158115000Y-61214000D02*
X158750000Y-61849000D01*
X158750000Y-61849000D02*
X158750000Y-67310000D01*
X154686000Y-71374000D02*
X66421000Y-71374000D01*
X66421000Y-71374000D02*
X65786000Y-72009000D01*
X65786000Y-72009000D02*
X65786000Y-74041000D01*
X65786000Y-74041000D02*
X66421000Y-74676000D01*
X162306000Y-74676000D02*
X167640000Y-80010000D01*
X66421000Y-74676000D02*
X162306000Y-74676000D01*
X172402500Y-99060000D02*
X172402500Y-97472500D01*
X172402500Y-97472500D02*
X168275000Y-93345000D01*
X168275000Y-80645000D02*
X167640000Y-80010000D01*
X168275000Y-93345000D02*
X168275000Y-80645000D01*
X191452500Y-99060000D02*
X191452500Y-97472500D01*
X191452500Y-97472500D02*
X187325000Y-93345000D01*
X187325000Y-80645000D02*
X186690000Y-80010000D01*
X187325000Y-93345000D02*
X187325000Y-80645000D01*
X157543500Y-112776000D02*
X162877500Y-118110000D01*
X80010000Y-112141000D02*
X80645000Y-112776000D01*
X80010000Y-110236000D02*
X80010000Y-112141000D01*
X172402500Y-99060000D02*
X172402500Y-99758500D01*
X172974000Y-100330000D02*
X172974000Y-105283000D01*
X80645000Y-112776000D02*
X157543500Y-112776000D01*
X172974000Y-105283000D02*
X168783000Y-109474000D01*
X172402500Y-99758500D02*
X172974000Y-100330000D01*
X168783000Y-109474000D02*
X80772000Y-109474000D01*
X80772000Y-109474000D02*
X80010000Y-110236000D01*
X158750000Y-68834000D02*
X158750000Y-67310000D01*
X156210000Y-71374000D02*
X158750000Y-68834000D01*
X154686000Y-71374000D02*
X156210000Y-71374000D01*
X177800000Y-61595000D02*
X177165000Y-60960000D01*
X177800000Y-67310000D02*
X177800000Y-61595000D01*
X173736000Y-71374000D02*
X177800000Y-67310000D01*
X158750000Y-68834000D02*
X161290000Y-71374000D01*
X161290000Y-71374000D02*
X173736000Y-71374000D01*
X163449000Y-118681500D02*
X162877500Y-118110000D01*
X165258750Y-135413750D02*
X163449000Y-133604000D01*
X165258750Y-137160000D02*
X165258750Y-135413750D01*
X163449000Y-133604000D02*
X163449000Y-118681500D01*
X162877500Y-118110000D02*
X162877500Y-118046500D01*
X172824000Y-74676000D02*
X168950000Y-78550000D01*
X181356000Y-74676000D02*
X172824000Y-74676000D01*
X186690000Y-80010000D02*
X181356000Y-74676000D01*
X168061500Y-112776000D02*
X164187500Y-116650000D01*
X176593500Y-112776000D02*
X168061500Y-112776000D01*
X181927500Y-118110000D02*
X176593500Y-112776000D01*
X206375000Y-37782500D02*
X205740000Y-37147500D01*
X206375000Y-50800000D02*
X206375000Y-37782500D01*
X196215000Y-60960000D02*
X206375000Y-50800000D01*
X225425000Y-37782500D02*
X224790000Y-37147500D01*
X215265000Y-60960000D02*
X225425000Y-50800000D01*
X225425000Y-50800000D02*
X225425000Y-37782500D01*
X215900000Y-61595000D02*
X215265000Y-60960000D01*
X215900000Y-68961000D02*
X215900000Y-61595000D01*
X210502500Y-99060000D02*
X210502500Y-97472500D01*
X210502500Y-97472500D02*
X206375000Y-93345000D01*
X206375000Y-80645000D02*
X205740000Y-80010000D01*
X206375000Y-93345000D02*
X206375000Y-80645000D01*
X229552500Y-99060000D02*
X229552500Y-97472500D01*
X229552500Y-97472500D02*
X225425000Y-93345000D01*
X225425000Y-80645000D02*
X224790000Y-80010000D01*
X225425000Y-93345000D02*
X225425000Y-80645000D01*
X205740000Y-80010000D02*
X205867000Y-80010000D01*
X196850000Y-61595000D02*
X196215000Y-60960000D01*
X196850000Y-68834000D02*
X196850000Y-61595000D01*
X199390000Y-71374000D02*
X196850000Y-68834000D01*
X215900000Y-68961000D02*
X213487000Y-71374000D01*
X213487000Y-71374000D02*
X199390000Y-71374000D01*
X229974000Y-74676000D02*
X226100000Y-78550000D01*
X286004000Y-74676000D02*
X229974000Y-74676000D01*
X286639000Y-74041000D02*
X286004000Y-74676000D01*
X286639000Y-72009000D02*
X286639000Y-74041000D01*
X286004000Y-71374000D02*
X286639000Y-72009000D01*
X218313000Y-71374000D02*
X286004000Y-71374000D01*
X215900000Y-68961000D02*
X218313000Y-71374000D01*
X210924000Y-74676000D02*
X207050000Y-78550000D01*
X219456000Y-74676000D02*
X210924000Y-74676000D01*
X224790000Y-80010000D02*
X219456000Y-74676000D01*
X214630000Y-112776000D02*
X206161500Y-112776000D01*
X206161500Y-112776000D02*
X202287500Y-116650000D01*
X219964000Y-118110000D02*
X214630000Y-112776000D01*
X220027500Y-118110000D02*
X219964000Y-118110000D01*
X225211500Y-112776000D02*
X221337500Y-116650000D01*
X271780000Y-112776000D02*
X225211500Y-112776000D01*
X271653000Y-109474000D02*
X272415000Y-110236000D01*
X232664000Y-109474000D02*
X271653000Y-109474000D01*
X230124000Y-101473000D02*
X230124000Y-106934000D01*
X272415000Y-110236000D02*
X272415000Y-112141000D01*
X229552500Y-100901500D02*
X230124000Y-101473000D01*
X272415000Y-112141000D02*
X271780000Y-112776000D01*
X230124000Y-106934000D02*
X232664000Y-109474000D01*
X229552500Y-99060000D02*
X229552500Y-100901500D01*
X254000000Y-37782500D02*
X253365000Y-37147500D01*
X254000000Y-41275000D02*
X254000000Y-37782500D01*
X234315000Y-60960000D02*
X254000000Y-41275000D01*
X273050000Y-37782500D02*
X272415000Y-37147500D01*
X253365000Y-60960000D02*
X273050000Y-41275000D01*
X273050000Y-41275000D02*
X273050000Y-37782500D01*
X254000000Y-61595000D02*
X253365000Y-60960000D01*
X254000000Y-68834000D02*
X254000000Y-61595000D01*
X248602500Y-99060000D02*
X248602500Y-97472500D01*
X248602500Y-97472500D02*
X244475000Y-93345000D01*
X244475000Y-80645000D02*
X243840000Y-80010000D01*
X244475000Y-93345000D02*
X244475000Y-80645000D01*
X267652500Y-99060000D02*
X267652500Y-97472500D01*
X267652500Y-97472500D02*
X263525000Y-93345000D01*
X263525000Y-80645000D02*
X262890000Y-80010000D01*
X263525000Y-93345000D02*
X263525000Y-80645000D01*
X234950000Y-61595000D02*
X234315000Y-60960000D01*
X234950000Y-68834000D02*
X234950000Y-61595000D01*
X236982000Y-70866000D02*
X234950000Y-68834000D01*
X251968000Y-70866000D02*
X236982000Y-70866000D01*
X254000000Y-68834000D02*
X251968000Y-70866000D01*
X239077500Y-118110000D02*
X239141000Y-118110000D01*
X239649000Y-118681500D02*
X239077500Y-118110000D01*
X239649000Y-129286000D02*
X239649000Y-118681500D01*
X240792000Y-130429000D02*
X239649000Y-129286000D01*
X240792000Y-132588000D02*
X240792000Y-130429000D01*
X236696250Y-137160000D02*
X236696250Y-136683750D01*
X258699000Y-136588500D02*
X258127500Y-137160000D01*
X258699000Y-118681500D02*
X258699000Y-136588500D01*
X258127500Y-118110000D02*
X258699000Y-118681500D01*
X258127500Y-137160000D02*
X260508750Y-137160000D01*
X248516000Y-75184000D02*
X245150000Y-78550000D01*
X258064000Y-75184000D02*
X248516000Y-75184000D01*
X262890000Y-80010000D02*
X258064000Y-75184000D01*
X286258000Y-75184000D02*
X267566000Y-75184000D01*
X267566000Y-75184000D02*
X264200000Y-78550000D01*
X287147000Y-74295000D02*
X286258000Y-75184000D01*
X287147000Y-71755000D02*
X287147000Y-74295000D01*
X286258000Y-70866000D02*
X287147000Y-71755000D01*
X256032000Y-70866000D02*
X286258000Y-70866000D01*
X254000000Y-68834000D02*
X256032000Y-70866000D01*
X253301500Y-113284000D02*
X243753500Y-113284000D01*
X243753500Y-113284000D02*
X240387500Y-116650000D01*
X258127500Y-118110000D02*
X253301500Y-113284000D01*
X262803500Y-113284000D02*
X259437500Y-116650000D01*
X272034000Y-113284000D02*
X262803500Y-113284000D01*
X272923000Y-112395000D02*
X272034000Y-113284000D01*
X272923000Y-109982000D02*
X272923000Y-112395000D01*
X271907000Y-108966000D02*
X272923000Y-109982000D01*
X268224000Y-106934000D02*
X270256000Y-108966000D01*
X270256000Y-108966000D02*
X271907000Y-108966000D01*
X268224000Y-101346000D02*
X268224000Y-106934000D01*
X267652500Y-100774500D02*
X268224000Y-101346000D01*
X267652500Y-99060000D02*
X267652500Y-100774500D01*
X238006250Y-135373750D02*
X238006250Y-135700000D01*
X240792000Y-132588000D02*
X238006250Y-135373750D01*
X292100000Y-37782500D02*
X291465000Y-37147500D01*
X272415000Y-60960000D02*
X292100000Y-41275000D01*
X292100000Y-41275000D02*
X292100000Y-37782500D01*
X311150000Y-37782500D02*
X310515000Y-37147500D01*
X311150000Y-41275000D02*
X311150000Y-37782500D01*
X286702500Y-99060000D02*
X286702500Y-97472500D01*
X286702500Y-97472500D02*
X282575000Y-93345000D01*
X282575000Y-80645000D02*
X281940000Y-80010000D01*
X282575000Y-93345000D02*
X282575000Y-80645000D01*
X292100000Y-61595000D02*
X291465000Y-60960000D01*
X287655000Y-74549000D02*
X287655000Y-71755000D01*
X281940000Y-80010000D02*
X282194000Y-80010000D01*
X314483750Y-87407750D02*
X314483750Y-88265000D01*
X302006000Y-74549000D02*
X305987451Y-78530451D01*
X305987451Y-78530451D02*
X305987451Y-80010000D01*
X305987451Y-80010000D02*
X310668699Y-80010000D01*
X310668699Y-80010000D02*
X312166000Y-81507301D01*
X312166000Y-81507301D02*
X312166000Y-85090000D01*
X287655000Y-71501000D02*
X287655000Y-71755000D01*
X292100000Y-66421000D02*
X292100000Y-67056000D01*
X292100000Y-66421000D02*
X292100000Y-61595000D01*
X273050000Y-61595000D02*
X272415000Y-60960000D01*
X273050000Y-68834000D02*
X273050000Y-61595000D01*
X274574000Y-70358000D02*
X273050000Y-68834000D01*
X287655000Y-71501000D02*
X286512000Y-70358000D01*
X286512000Y-70358000D02*
X274574000Y-70358000D01*
X292100000Y-67056000D02*
X292100000Y-68707000D01*
X292100000Y-68707000D02*
X290195000Y-70612000D01*
X290195000Y-72898000D02*
X291846000Y-74549000D01*
X290195000Y-70612000D02*
X290195000Y-72898000D01*
X291846000Y-74549000D02*
X302006000Y-74549000D01*
X288544000Y-74549000D02*
X290195000Y-72898000D01*
X288290000Y-74549000D02*
X288544000Y-74549000D01*
X287655000Y-74549000D02*
X288290000Y-74549000D01*
X310515000Y-118110000D02*
X293846250Y-118110000D01*
X305752500Y-137160000D02*
X308133750Y-137160000D01*
X284321250Y-137160000D02*
X281940000Y-137160000D01*
X287274000Y-99631500D02*
X286702500Y-99060000D01*
X287274000Y-107950000D02*
X287274000Y-99631500D01*
X282829000Y-112395000D02*
X287274000Y-107950000D01*
X282829000Y-114935000D02*
X282829000Y-112395000D01*
X284321250Y-116427250D02*
X282829000Y-114935000D01*
X284321250Y-118110000D02*
X284321250Y-116427250D01*
X284321250Y-137160000D02*
X284861000Y-136620250D01*
X298831000Y-53086000D02*
X299085000Y-53340000D01*
X291465000Y-60960000D02*
X299085000Y-53340000D01*
X299085000Y-53340000D02*
X311150000Y-41275000D01*
X283502671Y-78550000D02*
X283250000Y-78550000D01*
X287503671Y-74549000D02*
X283502671Y-78550000D01*
X287655000Y-74549000D02*
X287503671Y-74549000D01*
X312166000Y-85090000D02*
X314483750Y-87407750D01*
X284861000Y-134929750D02*
X285631250Y-135700000D01*
X309443750Y-132786750D02*
X309443750Y-135700000D01*
X306832000Y-130175000D02*
X309443750Y-132786750D01*
X306832000Y-127635000D02*
X306832000Y-130175000D01*
X311023000Y-123444000D02*
X306832000Y-127635000D01*
X311023000Y-118618000D02*
X311023000Y-123444000D01*
X310515000Y-118110000D02*
X311023000Y-118618000D01*
X285631250Y-132850250D02*
X285631250Y-135700000D01*
X282956000Y-130175000D02*
X285631250Y-132850250D01*
X282956000Y-127762000D02*
X282956000Y-130175000D01*
X284861000Y-125857000D02*
X282956000Y-127762000D01*
X284861000Y-118649750D02*
X284861000Y-125857000D01*
X284321250Y-118110000D02*
X284861000Y-118649750D01*
X334899000Y-37719000D02*
X334327500Y-37147500D01*
X334899000Y-60388500D02*
X334899000Y-37719000D01*
X334327500Y-60960000D02*
X334899000Y-60388500D01*
X334899000Y-79438500D02*
X334327500Y-80010000D01*
X334899000Y-61531500D02*
X334899000Y-79438500D01*
X334327500Y-60960000D02*
X334899000Y-61531500D01*
X353949000Y-37719000D02*
X353377500Y-37147500D01*
X353949000Y-60388500D02*
X353949000Y-37719000D01*
X353377500Y-60960000D02*
X353949000Y-60388500D01*
X353949000Y-61531500D02*
X353377500Y-60960000D01*
X353377500Y-80010000D02*
X353949000Y-79438500D01*
X353949000Y-79438500D02*
X353949000Y-61531500D01*
X353949000Y-136588500D02*
X353377500Y-137160000D01*
X353377500Y-118110000D02*
X353949000Y-118681500D01*
X353949000Y-80581500D02*
X353377500Y-80010000D01*
X353949000Y-97536000D02*
X353949000Y-80581500D01*
X353949000Y-118681500D02*
X353949000Y-132080000D01*
X353949000Y-132080000D02*
X353949000Y-136588500D01*
X350139000Y-133921500D02*
X353377500Y-137160000D01*
X350139000Y-132969000D02*
X350139000Y-133921500D01*
X373761000Y-118110000D02*
X353377500Y-118110000D01*
X381254000Y-110617000D02*
X373761000Y-118110000D01*
X381254000Y-103632000D02*
X381254000Y-110617000D01*
X376682000Y-99060000D02*
X381254000Y-103632000D01*
X355473000Y-99060000D02*
X376682000Y-99060000D01*
X353949000Y-97536000D02*
X355473000Y-99060000D01*
X372999000Y-37719000D02*
X372427500Y-37147500D01*
X372999000Y-60388500D02*
X372999000Y-37719000D01*
X372427500Y-60960000D02*
X372999000Y-60388500D01*
X372999000Y-61531500D02*
X372427500Y-60960000D01*
X372999000Y-79438500D02*
X372999000Y-61531500D01*
X372427500Y-80010000D02*
X372999000Y-79438500D01*
X372999000Y-80581500D02*
X372427500Y-80010000D01*
X372999000Y-94869000D02*
X372999000Y-80581500D01*
X372999000Y-94869000D02*
X372999000Y-96647000D01*
X372999000Y-96647000D02*
X373380000Y-96647000D01*
X371221000Y-135890000D02*
X371221000Y-122174000D01*
X382270000Y-111125000D02*
X382270000Y-103124000D01*
X371221000Y-122174000D02*
X382270000Y-111125000D01*
X372427500Y-137096500D02*
X371221000Y-135890000D01*
X372427500Y-137160000D02*
X372427500Y-137096500D01*
X382270000Y-103124000D02*
X377190000Y-98044000D01*
X372999000Y-96647000D02*
X372999000Y-96774000D01*
X374269000Y-98044000D02*
X374777000Y-98044000D01*
X372999000Y-96774000D02*
X374269000Y-98044000D01*
X374777000Y-98044000D02*
X377190000Y-98044000D01*
D18*
X333121000Y-43815000D02*
X332867000Y-43815000D01*
X332867000Y-43815000D02*
X332295500Y-43243500D01*
X332295500Y-43243500D02*
X320230500Y-43243500D01*
X320230500Y-43243500D02*
X319659000Y-43815000D01*
X319659000Y-43815000D02*
X319405000Y-43815000D01*
X332994000Y-67564000D02*
X332740000Y-67564000D01*
X332740000Y-67564000D02*
X332232000Y-67056000D01*
X332232000Y-67056000D02*
X320167000Y-67056000D01*
X319659000Y-67564000D02*
X319405000Y-67564000D01*
X320167000Y-67056000D02*
X319659000Y-67564000D01*
X344678000Y-87122000D02*
X344678000Y-85217000D01*
X344678000Y-85217000D02*
X344678000Y-68072000D01*
X344678000Y-68072000D02*
X344678000Y-44196000D01*
X344678000Y-87122000D02*
X344678000Y-89662000D01*
X344678000Y-89662000D02*
X354711000Y-99695000D01*
X367411000Y-99695000D02*
X366522000Y-99695000D01*
X369824000Y-102108000D02*
X367411000Y-99695000D01*
X354711000Y-99695000D02*
X366522000Y-99695000D01*
X372745000Y-110363000D02*
X372745000Y-111252000D01*
X372745000Y-111252000D02*
X372745000Y-116459000D01*
X366522000Y-125984000D02*
X366522000Y-127508000D01*
X366522000Y-127508000D02*
X366522000Y-142240000D01*
X274574000Y-85979000D02*
X274574000Y-86741000D01*
X274574000Y-86741000D02*
X274574000Y-93218000D01*
X274574000Y-93218000D02*
X280924000Y-99568000D01*
X280924000Y-99568000D02*
X280924000Y-105791000D01*
X280924000Y-105791000D02*
X280924000Y-124587000D01*
D19*
X323596000Y-37084000D02*
X322326000Y-38354000D01*
X324993000Y-37084000D02*
X323596000Y-37084000D01*
X327787000Y-37084000D02*
X328295000Y-37084000D01*
X328295000Y-37084000D02*
X328549000Y-37084000D01*
X328549000Y-37084000D02*
X329819000Y-38354000D01*
X363728000Y-93853000D02*
X363728000Y-47117000D01*
X363728000Y-47117000D02*
X363474000Y-46863000D01*
X363728000Y-97663000D02*
X363093000Y-98298000D01*
X363728000Y-95123000D02*
X363728000Y-97663000D01*
X363728000Y-93853000D02*
X363728000Y-95123000D01*
X65151000Y-95504000D02*
X65151000Y-104775000D01*
X59944000Y-90297000D02*
X65151000Y-95504000D01*
X59944000Y-49530000D02*
X59944000Y-90297000D01*
X60198000Y-49276000D02*
X59944000Y-49530000D01*
X364236000Y-94107000D02*
X364236000Y-41148000D01*
X364236000Y-41148000D02*
X363728000Y-40640000D01*
X364236000Y-94107000D02*
X364236000Y-95377000D01*
X364236000Y-98044000D02*
X364236000Y-95377000D01*
X364490000Y-98298000D02*
X364236000Y-98044000D01*
X366522000Y-43561000D02*
X368300000Y-41783000D01*
X368300000Y-41783000D02*
X368300000Y-36322000D01*
X329819000Y-50038000D02*
X329692000Y-49911000D01*
X329692000Y-49911000D02*
X323088000Y-49911000D01*
X323088000Y-49911000D02*
X322834000Y-50165000D01*
X283718000Y-48514000D02*
X283972000Y-48514000D01*
X283972000Y-48514000D02*
X284099000Y-48514000D01*
X284099000Y-48514000D02*
X285496000Y-47117000D01*
X285496000Y-47117000D02*
X285496000Y-39878000D01*
X67437000Y-34671000D02*
X67691000Y-34671000D01*
X59436000Y-42672000D02*
X67437000Y-34671000D01*
X59436000Y-90551000D02*
X59436000Y-42672000D01*
X61468000Y-93726000D02*
X61468000Y-92583000D01*
X61468000Y-92583000D02*
X59436000Y-90551000D01*
X52832000Y-90424000D02*
X52832000Y-92075000D01*
X52832000Y-92075000D02*
X52832000Y-93345000D01*
X52832000Y-93345000D02*
X54991000Y-95504000D01*
X54991000Y-95504000D02*
X54991000Y-97155000D01*
X54991000Y-97155000D02*
X58039000Y-100203000D01*
X58039000Y-100203000D02*
X58039000Y-115443000D01*
X58039000Y-115443000D02*
X62357000Y-119761000D01*
X62357000Y-119761000D02*
X62357000Y-138938000D01*
X62357000Y-138938000D02*
X61341000Y-139954000D01*
X363728000Y-140335000D02*
X363728000Y-139573000D01*
X363728000Y-139573000D02*
X363728000Y-132080000D01*
X363728000Y-131445000D02*
X363728000Y-132080000D01*
X370713000Y-121920000D02*
X370713000Y-133604000D01*
X370459000Y-94996000D02*
X374015000Y-98552000D01*
X369316000Y-94996000D02*
X370459000Y-94996000D01*
X370713000Y-133604000D02*
X369570000Y-134747000D01*
X374015000Y-98552000D02*
X376936000Y-98552000D01*
X376936000Y-98552000D02*
X381762000Y-103378000D01*
X381762000Y-103378000D02*
X381762000Y-110871000D01*
X381762000Y-110871000D02*
X370713000Y-121920000D01*
X282448000Y-65786000D02*
X282702000Y-65786000D01*
X282702000Y-65786000D02*
X288163000Y-71247000D01*
X288163000Y-71247000D02*
X288163000Y-73279000D01*
X288163000Y-73279000D02*
X288417000Y-73533000D01*
X292862000Y-104394000D02*
X292608000Y-104394000D01*
X293116000Y-100330000D02*
X293116000Y-104140000D01*
X288290000Y-95504000D02*
X293116000Y-100330000D01*
X293116000Y-104140000D02*
X292862000Y-104394000D01*
X289433000Y-81788000D02*
X289433000Y-92583000D01*
X289433000Y-92583000D02*
X288290000Y-93726000D01*
X288290000Y-93726000D02*
X288290000Y-95504000D01*
X289433000Y-81026000D02*
X289433000Y-81788000D01*
X295275000Y-104140000D02*
X299339000Y-108204000D01*
X295275000Y-103886000D02*
X295275000Y-104140000D01*
X307086000Y-106172000D02*
X305054000Y-108204000D01*
X307340000Y-106172000D02*
X307086000Y-106172000D01*
X299339000Y-108204000D02*
X305054000Y-108204000D01*
X294386000Y-104013000D02*
X294386000Y-103886000D01*
X299085000Y-108712000D02*
X294386000Y-104013000D01*
X306832000Y-107188000D02*
X305308000Y-108712000D01*
X307340000Y-107188000D02*
X306832000Y-107188000D01*
X305308000Y-108712000D02*
X299085000Y-108712000D01*
X347091000Y-122174000D02*
X346862400Y-121945400D01*
X347091000Y-141097000D02*
X347091000Y-122174000D01*
X346075000Y-142113000D02*
X347091000Y-141097000D01*
X347599000Y-141097000D02*
X348615000Y-142113000D01*
X347599000Y-129286000D02*
X347599000Y-141097000D01*
X347573600Y-122377200D02*
X347599000Y-129286000D01*
X347573600Y-122377200D02*
X347827600Y-122123200D01*
X309118000Y-46101000D02*
X309372000Y-46355000D01*
X314007500Y-46355000D02*
X315595000Y-44767500D01*
X309372000Y-46355000D02*
X314007500Y-46355000D01*
X368173000Y-46609000D02*
X372110000Y-46609000D01*
X295275000Y-89281000D02*
X295529000Y-89027000D01*
X295275000Y-98679000D02*
X295275000Y-89281000D01*
X293624000Y-100330000D02*
X295275000Y-98679000D01*
X293624000Y-104394000D02*
X293624000Y-100330000D01*
X291782500Y-106235500D02*
X293624000Y-104394000D01*
X291782500Y-106680000D02*
X291782500Y-106235500D01*
X303688750Y-106680000D02*
X305816000Y-106680000D01*
X305816000Y-106680000D02*
X308991000Y-103505000D01*
X308991000Y-95472250D02*
X306863750Y-93345000D01*
X308991000Y-103505000D02*
X308991000Y-95472250D01*
X298926250Y-125730000D02*
X298926250Y-125761750D01*
X298926250Y-125761750D02*
X297434000Y-127254000D01*
X290925250Y-127254000D02*
X289401250Y-125730000D01*
X297434000Y-127254000D02*
X290925250Y-127254000D01*
M02*
