G04 #@! TF.GenerationSoftware,KiCad,Pcbnew,(5.1.8)-1*
G04 #@! TF.CreationDate,2021-11-24T20:30:40-05:00*
G04 #@! TF.ProjectId,KBD8X-MK2,4b424438-582d-44d4-9b32-2e6b69636164,rev?*
G04 #@! TF.SameCoordinates,Original*
G04 #@! TF.FileFunction,Soldermask,Top*
G04 #@! TF.FilePolarity,Negative*
%FSLAX46Y46*%
G04 Gerber Fmt 4.6, Leading zero omitted, Abs format (unit mm)*
G04 Created by KiCad (PCBNEW (5.1.8)-1) date 2021-11-24 20:30:40*
%MOMM*%
%LPD*%
G01*
G04 APERTURE LIST*
%ADD10C,4.387800*%
%ADD11C,3.448000*%
%ADD12C,2.150000*%
%ADD13C,2.101800*%
%ADD14O,1.400000X2.000000*%
%ADD15O,1.400000X2.500000*%
%ADD16C,1.050000*%
%ADD17C,1.300000*%
%ADD18C,0.100000*%
G04 APERTURE END LIST*
D10*
X238125000Y-131445000D03*
X123825000Y-131445000D03*
D11*
X238125000Y-146685000D03*
X123825000Y-146685000D03*
D12*
X186055000Y-139700000D03*
X175895000Y-139700000D03*
D10*
X180975000Y-139700000D03*
X219068650Y-131445000D03*
X119068850Y-131445000D03*
D11*
X219068650Y-146685000D03*
X119068850Y-146685000D03*
D12*
X174148750Y-139700000D03*
X163988750Y-139700000D03*
D10*
X169068750Y-139700000D03*
D12*
X381317500Y-139700000D03*
X371157500Y-139700000D03*
D10*
X376237500Y-139700000D03*
D12*
X293211250Y-139700000D03*
X283051250Y-139700000D03*
D10*
X288131250Y-139700000D03*
D12*
X290830000Y-139700000D03*
X280670000Y-139700000D03*
D10*
X285750000Y-139700000D03*
D12*
X269398750Y-139700000D03*
X259238750Y-139700000D03*
D10*
X264318750Y-139700000D03*
D12*
X314642500Y-139700000D03*
X304482500Y-139700000D03*
D10*
X309562500Y-139700000D03*
D12*
X317023750Y-139700000D03*
X306863750Y-139700000D03*
D10*
X311943750Y-139700000D03*
D12*
X267017500Y-139700000D03*
X256857500Y-139700000D03*
D10*
X261937500Y-139700000D03*
D12*
X245586250Y-139700000D03*
X235426250Y-139700000D03*
D10*
X240506250Y-139700000D03*
D12*
X81280000Y-139700000D03*
X71120000Y-139700000D03*
D10*
X76200000Y-139700000D03*
D12*
X78898750Y-139700000D03*
X68738750Y-139700000D03*
D10*
X73818750Y-139700000D03*
D12*
X343217500Y-139700000D03*
X333057500Y-139700000D03*
D10*
X338137500Y-139700000D03*
D12*
X57467500Y-139700000D03*
X47307500Y-139700000D03*
D10*
X52387500Y-139700000D03*
D12*
X55086250Y-139700000D03*
X44926250Y-139700000D03*
D10*
X50006250Y-139700000D03*
D12*
X105092500Y-139700000D03*
X94932500Y-139700000D03*
D10*
X100012500Y-139700000D03*
D12*
X102711250Y-139700000D03*
X92551250Y-139700000D03*
D10*
X97631250Y-139700000D03*
D12*
X362267500Y-139700000D03*
X352107500Y-139700000D03*
D10*
X357187500Y-139700000D03*
D12*
X95567500Y-120650000D03*
X85407500Y-120650000D03*
D10*
X90487500Y-120650000D03*
D12*
X114617500Y-120650000D03*
X104457500Y-120650000D03*
D10*
X109537500Y-120650000D03*
D12*
X152717500Y-120650000D03*
X142557500Y-120650000D03*
D10*
X147637500Y-120650000D03*
D12*
X362267500Y-120650000D03*
X352107500Y-120650000D03*
D10*
X357187500Y-120650000D03*
D12*
X319405000Y-120650000D03*
X309245000Y-120650000D03*
D10*
X314325000Y-120650000D03*
D12*
X293211250Y-120650000D03*
X283051250Y-120650000D03*
D10*
X288131250Y-120650000D03*
X309594250Y-128905000D03*
X285718250Y-128905000D03*
D11*
X309594250Y-113665000D03*
X285718250Y-113665000D03*
D12*
X302736250Y-120650000D03*
X292576250Y-120650000D03*
D10*
X297656250Y-120650000D03*
D12*
X190817500Y-120650000D03*
X180657500Y-120650000D03*
D10*
X185737500Y-120650000D03*
D12*
X209867500Y-120650000D03*
X199707500Y-120650000D03*
D10*
X204787500Y-120650000D03*
D12*
X76517500Y-120650000D03*
X66357500Y-120650000D03*
D10*
X71437500Y-120650000D03*
D12*
X55086250Y-120650000D03*
X44926250Y-120650000D03*
D10*
X50006250Y-120650000D03*
X71469250Y-128905000D03*
X47593250Y-128905000D03*
D11*
X71469250Y-113665000D03*
X47593250Y-113665000D03*
D12*
X64611250Y-120650000D03*
X54451250Y-120650000D03*
D10*
X59531250Y-120650000D03*
D12*
X133667500Y-120650000D03*
X123507500Y-120650000D03*
D10*
X128587500Y-120650000D03*
D12*
X171767500Y-120650000D03*
X161607500Y-120650000D03*
D10*
X166687500Y-120650000D03*
D12*
X267017500Y-120650000D03*
X256857500Y-120650000D03*
D10*
X261937500Y-120650000D03*
D12*
X228917500Y-120650000D03*
X218757500Y-120650000D03*
D10*
X223837500Y-120650000D03*
D12*
X247967500Y-120650000D03*
X237807500Y-120650000D03*
D10*
X242887500Y-120650000D03*
X303688750Y-80137000D03*
X303688750Y-104013000D03*
D11*
X318928750Y-80137000D03*
X318928750Y-104013000D03*
D13*
X311943750Y-97155000D03*
X311943750Y-86995000D03*
D10*
X311943750Y-92075000D03*
X314356750Y-109855000D03*
X290480750Y-109855000D03*
D11*
X314356750Y-94615000D03*
X290480750Y-94615000D03*
D12*
X307498750Y-101600000D03*
X297338750Y-101600000D03*
D10*
X302418750Y-101600000D03*
D12*
X319405000Y-63500000D03*
X309245000Y-63500000D03*
D10*
X314325000Y-63500000D03*
D12*
X105092500Y-101600000D03*
X94932500Y-101600000D03*
D10*
X100012500Y-101600000D03*
D12*
X238442500Y-101600000D03*
X228282500Y-101600000D03*
D10*
X233362500Y-101600000D03*
D12*
X219392500Y-101600000D03*
X209232500Y-101600000D03*
D10*
X214312500Y-101600000D03*
D12*
X200342500Y-101600000D03*
X190182500Y-101600000D03*
D10*
X195262500Y-101600000D03*
D12*
X181292500Y-101600000D03*
X171132500Y-101600000D03*
D10*
X176212500Y-101600000D03*
D12*
X162242500Y-101600000D03*
X152082500Y-101600000D03*
D10*
X157162500Y-101600000D03*
D12*
X143192500Y-101600000D03*
X133032500Y-101600000D03*
D10*
X138112500Y-101600000D03*
D12*
X124142500Y-101600000D03*
X113982500Y-101600000D03*
D10*
X119062500Y-101600000D03*
D12*
X55086250Y-101600000D03*
X44926250Y-101600000D03*
D10*
X50006250Y-101600000D03*
D12*
X59848750Y-101600000D03*
X49688750Y-101600000D03*
D10*
X54768750Y-101600000D03*
D12*
X86042500Y-101600000D03*
X75882500Y-101600000D03*
D10*
X80962500Y-101600000D03*
D12*
X257492500Y-101600000D03*
X247332500Y-101600000D03*
D10*
X252412500Y-101600000D03*
D12*
X276542500Y-101600000D03*
X266382500Y-101600000D03*
D10*
X271462500Y-101600000D03*
D12*
X57467500Y-82550000D03*
X47307500Y-82550000D03*
D10*
X52387500Y-82550000D03*
D12*
X176530000Y-82550000D03*
X166370000Y-82550000D03*
D10*
X171450000Y-82550000D03*
D12*
X100330000Y-82550000D03*
X90170000Y-82550000D03*
D10*
X95250000Y-82550000D03*
D12*
X195580000Y-82550000D03*
X185420000Y-82550000D03*
D10*
X190500000Y-82550000D03*
D12*
X157480000Y-82550000D03*
X147320000Y-82550000D03*
D10*
X152400000Y-82550000D03*
D12*
X138430000Y-82550000D03*
X128270000Y-82550000D03*
D10*
X133350000Y-82550000D03*
D12*
X81280000Y-82550000D03*
X71120000Y-82550000D03*
D10*
X76200000Y-82550000D03*
D12*
X381317500Y-82550000D03*
X371157500Y-82550000D03*
D10*
X376237500Y-82550000D03*
D12*
X252730000Y-82550000D03*
X242570000Y-82550000D03*
D10*
X247650000Y-82550000D03*
D12*
X233680000Y-82550000D03*
X223520000Y-82550000D03*
D10*
X228600000Y-82550000D03*
D12*
X214630000Y-82550000D03*
X204470000Y-82550000D03*
D10*
X209550000Y-82550000D03*
D12*
X362267500Y-82550000D03*
X352107500Y-82550000D03*
D10*
X357187500Y-82550000D03*
D12*
X119380000Y-82550000D03*
X109220000Y-82550000D03*
D10*
X114300000Y-82550000D03*
D12*
X343217500Y-82550000D03*
X333057500Y-82550000D03*
D10*
X338137500Y-82550000D03*
D12*
X290830000Y-82550000D03*
X280670000Y-82550000D03*
D10*
X285750000Y-82550000D03*
D12*
X295592500Y-101600000D03*
X285432500Y-101600000D03*
D10*
X290512500Y-101600000D03*
D12*
X314642500Y-82550000D03*
X304482500Y-82550000D03*
D10*
X309562500Y-82550000D03*
D12*
X271780000Y-82550000D03*
X261620000Y-82550000D03*
D10*
X266700000Y-82550000D03*
D12*
X343217500Y-63500000D03*
X333057500Y-63500000D03*
D10*
X338137500Y-63500000D03*
D12*
X381317500Y-63500000D03*
X371157500Y-63500000D03*
D10*
X376237500Y-63500000D03*
D12*
X362267500Y-63500000D03*
X352107500Y-63500000D03*
D10*
X357187500Y-63500000D03*
D12*
X300355000Y-63500000D03*
X290195000Y-63500000D03*
D10*
X295275000Y-63500000D03*
X316738000Y-71755000D03*
X292862000Y-71755000D03*
D11*
X316738000Y-56515000D03*
X292862000Y-56515000D03*
D12*
X309880000Y-63500000D03*
X299720000Y-63500000D03*
D10*
X304800000Y-63500000D03*
D12*
X52705000Y-63500000D03*
X42545000Y-63500000D03*
D10*
X47625000Y-63500000D03*
D12*
X262255000Y-63500000D03*
X252095000Y-63500000D03*
D10*
X257175000Y-63500000D03*
D12*
X243205000Y-63500000D03*
X233045000Y-63500000D03*
D10*
X238125000Y-63500000D03*
D12*
X224155000Y-63500000D03*
X213995000Y-63500000D03*
D10*
X219075000Y-63500000D03*
D12*
X205105000Y-63500000D03*
X194945000Y-63500000D03*
D10*
X200025000Y-63500000D03*
D12*
X186055000Y-63500000D03*
X175895000Y-63500000D03*
D10*
X180975000Y-63500000D03*
D12*
X167005000Y-63500000D03*
X156845000Y-63500000D03*
D10*
X161925000Y-63500000D03*
D12*
X147955000Y-63500000D03*
X137795000Y-63500000D03*
D10*
X142875000Y-63500000D03*
D12*
X128905000Y-63500000D03*
X118745000Y-63500000D03*
D10*
X123825000Y-63500000D03*
D12*
X109855000Y-63500000D03*
X99695000Y-63500000D03*
D10*
X104775000Y-63500000D03*
D12*
X90805000Y-63500000D03*
X80645000Y-63500000D03*
D10*
X85725000Y-63500000D03*
D12*
X71755000Y-63500000D03*
X61595000Y-63500000D03*
D10*
X66675000Y-63500000D03*
D12*
X343217500Y-39687500D03*
X333057500Y-39687500D03*
D10*
X338137500Y-39687500D03*
D12*
X195580000Y-39687500D03*
X185420000Y-39687500D03*
D10*
X190500000Y-39687500D03*
D12*
X109855000Y-39687500D03*
X99695000Y-39687500D03*
D10*
X104775000Y-39687500D03*
D12*
X362267500Y-39687500D03*
X352107500Y-39687500D03*
D10*
X357187500Y-39687500D03*
D12*
X381317500Y-39687500D03*
X371157500Y-39687500D03*
D10*
X376237500Y-39687500D03*
D12*
X319405000Y-39687500D03*
X309245000Y-39687500D03*
D10*
X314325000Y-39687500D03*
D12*
X300355000Y-39687500D03*
X290195000Y-39687500D03*
D10*
X295275000Y-39687500D03*
D12*
X281305000Y-39687500D03*
X271145000Y-39687500D03*
D10*
X276225000Y-39687500D03*
D12*
X262255000Y-39687500D03*
X252095000Y-39687500D03*
D10*
X257175000Y-39687500D03*
D12*
X233680000Y-39687500D03*
X223520000Y-39687500D03*
D10*
X228600000Y-39687500D03*
D12*
X214630000Y-39687500D03*
X204470000Y-39687500D03*
D10*
X209550000Y-39687500D03*
D12*
X176530000Y-39687500D03*
X166370000Y-39687500D03*
D10*
X171450000Y-39687500D03*
D12*
X147955000Y-39687500D03*
X137795000Y-39687500D03*
D10*
X142875000Y-39687500D03*
D12*
X128905000Y-39687500D03*
X118745000Y-39687500D03*
D10*
X123825000Y-39687500D03*
D12*
X90805000Y-39687500D03*
X80645000Y-39687500D03*
D10*
X85725000Y-39687500D03*
D12*
X52705000Y-39687500D03*
X42545000Y-39687500D03*
D10*
X47625000Y-39687500D03*
D14*
X330551250Y-30287125D03*
X321911250Y-30287125D03*
D15*
X330551250Y-34467125D03*
X321911250Y-34467125D03*
D16*
X323341250Y-33937125D03*
X329121250Y-33937125D03*
D17*
X368212500Y-50336250D03*
X365212500Y-50336250D03*
X68592500Y-103893750D03*
X68592500Y-100893750D03*
D10*
X276225000Y-63500000D03*
D12*
X271145000Y-63500000D03*
X281305000Y-63500000D03*
D18*
G36*
X315955399Y-139593198D02*
G01*
X315955812Y-139594632D01*
X315955926Y-139594632D01*
X315955926Y-139805368D01*
X315955794Y-139805368D01*
X315955251Y-139806945D01*
X315953287Y-139807326D01*
X315952025Y-139806016D01*
X315946752Y-139788632D01*
X315935387Y-139767368D01*
X315920091Y-139748731D01*
X315901454Y-139733436D01*
X315880191Y-139722071D01*
X315857116Y-139715071D01*
X315833125Y-139712708D01*
X315809134Y-139715071D01*
X315786059Y-139722071D01*
X315764795Y-139733436D01*
X315746158Y-139748732D01*
X315730863Y-139767369D01*
X315719498Y-139788632D01*
X315714225Y-139806016D01*
X315712765Y-139807383D01*
X315710851Y-139806802D01*
X315710438Y-139805368D01*
X315710324Y-139805368D01*
X315710324Y-139594632D01*
X315710456Y-139594632D01*
X315710999Y-139593055D01*
X315712963Y-139592674D01*
X315714225Y-139593984D01*
X315719498Y-139611368D01*
X315730863Y-139632632D01*
X315746159Y-139651269D01*
X315764796Y-139666564D01*
X315786059Y-139677929D01*
X315809134Y-139684929D01*
X315833125Y-139687292D01*
X315857116Y-139684929D01*
X315880191Y-139677929D01*
X315901455Y-139666564D01*
X315920092Y-139651268D01*
X315935387Y-139632631D01*
X315946752Y-139611368D01*
X315952025Y-139593984D01*
X315953485Y-139592617D01*
X315955399Y-139593198D01*
G37*
G36*
X93864149Y-139593198D02*
G01*
X93864562Y-139594632D01*
X93864676Y-139594632D01*
X93864676Y-139805368D01*
X93864544Y-139805368D01*
X93864001Y-139806945D01*
X93862037Y-139807326D01*
X93860775Y-139806016D01*
X93855502Y-139788632D01*
X93844137Y-139767368D01*
X93828841Y-139748731D01*
X93810204Y-139733436D01*
X93788941Y-139722071D01*
X93765866Y-139715071D01*
X93741875Y-139712708D01*
X93717884Y-139715071D01*
X93694809Y-139722071D01*
X93673545Y-139733436D01*
X93654908Y-139748732D01*
X93639613Y-139767369D01*
X93628248Y-139788632D01*
X93622975Y-139806016D01*
X93621515Y-139807383D01*
X93619601Y-139806802D01*
X93619188Y-139805368D01*
X93619074Y-139805368D01*
X93619074Y-139594632D01*
X93619206Y-139594632D01*
X93619749Y-139593055D01*
X93621713Y-139592674D01*
X93622975Y-139593984D01*
X93628248Y-139611368D01*
X93639613Y-139632632D01*
X93654909Y-139651269D01*
X93673546Y-139666564D01*
X93694809Y-139677929D01*
X93717884Y-139684929D01*
X93741875Y-139687292D01*
X93765866Y-139684929D01*
X93788941Y-139677929D01*
X93810205Y-139666564D01*
X93828842Y-139651268D01*
X93844137Y-139632631D01*
X93855502Y-139611368D01*
X93860775Y-139593984D01*
X93862235Y-139592617D01*
X93864149Y-139593198D01*
G37*
G36*
X80211649Y-139593198D02*
G01*
X80212062Y-139594632D01*
X80212176Y-139594632D01*
X80212176Y-139805368D01*
X80212044Y-139805368D01*
X80211501Y-139806945D01*
X80209537Y-139807326D01*
X80208275Y-139806016D01*
X80203002Y-139788632D01*
X80191637Y-139767368D01*
X80176341Y-139748731D01*
X80157704Y-139733436D01*
X80136441Y-139722071D01*
X80113366Y-139715071D01*
X80089375Y-139712708D01*
X80065384Y-139715071D01*
X80042309Y-139722071D01*
X80021045Y-139733436D01*
X80002408Y-139748732D01*
X79987113Y-139767369D01*
X79975748Y-139788632D01*
X79970475Y-139806016D01*
X79969015Y-139807383D01*
X79967101Y-139806802D01*
X79966688Y-139805368D01*
X79966574Y-139805368D01*
X79966574Y-139594632D01*
X79966706Y-139594632D01*
X79967249Y-139593055D01*
X79969213Y-139592674D01*
X79970475Y-139593984D01*
X79975748Y-139611368D01*
X79987113Y-139632632D01*
X80002409Y-139651269D01*
X80021046Y-139666564D01*
X80042309Y-139677929D01*
X80065384Y-139684929D01*
X80089375Y-139687292D01*
X80113366Y-139684929D01*
X80136441Y-139677929D01*
X80157705Y-139666564D01*
X80176342Y-139651268D01*
X80191637Y-139632631D01*
X80203002Y-139611368D01*
X80208275Y-139593984D01*
X80209735Y-139592617D01*
X80211649Y-139593198D01*
G37*
G36*
X104024149Y-139593198D02*
G01*
X104024562Y-139594632D01*
X104024676Y-139594632D01*
X104024676Y-139805368D01*
X104024544Y-139805368D01*
X104024001Y-139806945D01*
X104022037Y-139807326D01*
X104020775Y-139806016D01*
X104015502Y-139788632D01*
X104004137Y-139767368D01*
X103988841Y-139748731D01*
X103970204Y-139733436D01*
X103948941Y-139722071D01*
X103925866Y-139715071D01*
X103901875Y-139712708D01*
X103877884Y-139715071D01*
X103854809Y-139722071D01*
X103833545Y-139733436D01*
X103814908Y-139748732D01*
X103799613Y-139767369D01*
X103788248Y-139788632D01*
X103782975Y-139806016D01*
X103781515Y-139807383D01*
X103779601Y-139806802D01*
X103779188Y-139805368D01*
X103779074Y-139805368D01*
X103779074Y-139594632D01*
X103779206Y-139594632D01*
X103779749Y-139593055D01*
X103781713Y-139592674D01*
X103782975Y-139593984D01*
X103788248Y-139611368D01*
X103799613Y-139632632D01*
X103814909Y-139651269D01*
X103833546Y-139666564D01*
X103854809Y-139677929D01*
X103877884Y-139684929D01*
X103901875Y-139687292D01*
X103925866Y-139684929D01*
X103948941Y-139677929D01*
X103970205Y-139666564D01*
X103988842Y-139651268D01*
X104004137Y-139632631D01*
X104015502Y-139611368D01*
X104020775Y-139593984D01*
X104022235Y-139592617D01*
X104024149Y-139593198D01*
G37*
G36*
X70051649Y-139593198D02*
G01*
X70052062Y-139594632D01*
X70052176Y-139594632D01*
X70052176Y-139805368D01*
X70052044Y-139805368D01*
X70051501Y-139806945D01*
X70049537Y-139807326D01*
X70048275Y-139806016D01*
X70043002Y-139788632D01*
X70031637Y-139767368D01*
X70016341Y-139748731D01*
X69997704Y-139733436D01*
X69976441Y-139722071D01*
X69953366Y-139715071D01*
X69929375Y-139712708D01*
X69905384Y-139715071D01*
X69882309Y-139722071D01*
X69861045Y-139733436D01*
X69842408Y-139748732D01*
X69827113Y-139767369D01*
X69815748Y-139788632D01*
X69810475Y-139806016D01*
X69809015Y-139807383D01*
X69807101Y-139806802D01*
X69806688Y-139805368D01*
X69806574Y-139805368D01*
X69806574Y-139594632D01*
X69806706Y-139594632D01*
X69807249Y-139593055D01*
X69809213Y-139592674D01*
X69810475Y-139593984D01*
X69815748Y-139611368D01*
X69827113Y-139632632D01*
X69842409Y-139651269D01*
X69861046Y-139666564D01*
X69882309Y-139677929D01*
X69905384Y-139684929D01*
X69929375Y-139687292D01*
X69953366Y-139684929D01*
X69976441Y-139677929D01*
X69997705Y-139666564D01*
X70016342Y-139651268D01*
X70031637Y-139632631D01*
X70043002Y-139611368D01*
X70048275Y-139593984D01*
X70049735Y-139592617D01*
X70051649Y-139593198D01*
G37*
G36*
X305795399Y-139593198D02*
G01*
X305795812Y-139594632D01*
X305795926Y-139594632D01*
X305795926Y-139805368D01*
X305795794Y-139805368D01*
X305795251Y-139806945D01*
X305793287Y-139807326D01*
X305792025Y-139806016D01*
X305786752Y-139788632D01*
X305775387Y-139767368D01*
X305760091Y-139748731D01*
X305741454Y-139733436D01*
X305720191Y-139722071D01*
X305697116Y-139715071D01*
X305673125Y-139712708D01*
X305649134Y-139715071D01*
X305626059Y-139722071D01*
X305604795Y-139733436D01*
X305586158Y-139748732D01*
X305570863Y-139767369D01*
X305559498Y-139788632D01*
X305554225Y-139806016D01*
X305552765Y-139807383D01*
X305550851Y-139806802D01*
X305550438Y-139805368D01*
X305550324Y-139805368D01*
X305550324Y-139594632D01*
X305550456Y-139594632D01*
X305550999Y-139593055D01*
X305552963Y-139592674D01*
X305554225Y-139593984D01*
X305559498Y-139611368D01*
X305570863Y-139632632D01*
X305586159Y-139651269D01*
X305604796Y-139666564D01*
X305626059Y-139677929D01*
X305649134Y-139684929D01*
X305673125Y-139687292D01*
X305697116Y-139684929D01*
X305720191Y-139677929D01*
X305741455Y-139666564D01*
X305760092Y-139651268D01*
X305775387Y-139632631D01*
X305786752Y-139611368D01*
X305792025Y-139593984D01*
X305793485Y-139592617D01*
X305795399Y-139593198D01*
G37*
G36*
X56399149Y-139593198D02*
G01*
X56399562Y-139594632D01*
X56399676Y-139594632D01*
X56399676Y-139805368D01*
X56399544Y-139805368D01*
X56399001Y-139806945D01*
X56397037Y-139807326D01*
X56395775Y-139806016D01*
X56390502Y-139788632D01*
X56379137Y-139767368D01*
X56363841Y-139748731D01*
X56345204Y-139733436D01*
X56323941Y-139722071D01*
X56300866Y-139715071D01*
X56276875Y-139712708D01*
X56252884Y-139715071D01*
X56229809Y-139722071D01*
X56208545Y-139733436D01*
X56189908Y-139748732D01*
X56174613Y-139767369D01*
X56163248Y-139788632D01*
X56157975Y-139806016D01*
X56156515Y-139807383D01*
X56154601Y-139806802D01*
X56154188Y-139805368D01*
X56154074Y-139805368D01*
X56154074Y-139594632D01*
X56154206Y-139594632D01*
X56154749Y-139593055D01*
X56156713Y-139592674D01*
X56157975Y-139593984D01*
X56163248Y-139611368D01*
X56174613Y-139632632D01*
X56189909Y-139651269D01*
X56208546Y-139666564D01*
X56229809Y-139677929D01*
X56252884Y-139684929D01*
X56276875Y-139687292D01*
X56300866Y-139684929D01*
X56323941Y-139677929D01*
X56345205Y-139666564D01*
X56363842Y-139651268D01*
X56379137Y-139632631D01*
X56390502Y-139611368D01*
X56395775Y-139593984D01*
X56397235Y-139592617D01*
X56399149Y-139593198D01*
G37*
G36*
X46239149Y-139593198D02*
G01*
X46239562Y-139594632D01*
X46239676Y-139594632D01*
X46239676Y-139805368D01*
X46239544Y-139805368D01*
X46239001Y-139806945D01*
X46237037Y-139807326D01*
X46235775Y-139806016D01*
X46230502Y-139788632D01*
X46219137Y-139767368D01*
X46203841Y-139748731D01*
X46185204Y-139733436D01*
X46163941Y-139722071D01*
X46140866Y-139715071D01*
X46116875Y-139712708D01*
X46092884Y-139715071D01*
X46069809Y-139722071D01*
X46048545Y-139733436D01*
X46029908Y-139748732D01*
X46014613Y-139767369D01*
X46003248Y-139788632D01*
X45997975Y-139806016D01*
X45996515Y-139807383D01*
X45994601Y-139806802D01*
X45994188Y-139805368D01*
X45994074Y-139805368D01*
X45994074Y-139594632D01*
X45994206Y-139594632D01*
X45994749Y-139593055D01*
X45996713Y-139592674D01*
X45997975Y-139593984D01*
X46003248Y-139611368D01*
X46014613Y-139632632D01*
X46029909Y-139651269D01*
X46048546Y-139666564D01*
X46069809Y-139677929D01*
X46092884Y-139684929D01*
X46116875Y-139687292D01*
X46140866Y-139684929D01*
X46163941Y-139677929D01*
X46185205Y-139666564D01*
X46203842Y-139651268D01*
X46219137Y-139632631D01*
X46230502Y-139611368D01*
X46235775Y-139593984D01*
X46237235Y-139592617D01*
X46239149Y-139593198D01*
G37*
G36*
X268330399Y-139593198D02*
G01*
X268330812Y-139594632D01*
X268330926Y-139594632D01*
X268330926Y-139805368D01*
X268330794Y-139805368D01*
X268330251Y-139806945D01*
X268328287Y-139807326D01*
X268327025Y-139806016D01*
X268321752Y-139788632D01*
X268310387Y-139767368D01*
X268295091Y-139748731D01*
X268276454Y-139733436D01*
X268255191Y-139722071D01*
X268232116Y-139715071D01*
X268208125Y-139712708D01*
X268184134Y-139715071D01*
X268161059Y-139722071D01*
X268139795Y-139733436D01*
X268121158Y-139748732D01*
X268105863Y-139767369D01*
X268094498Y-139788632D01*
X268089225Y-139806016D01*
X268087765Y-139807383D01*
X268085851Y-139806802D01*
X268085438Y-139805368D01*
X268085324Y-139805368D01*
X268085324Y-139594632D01*
X268085456Y-139594632D01*
X268085999Y-139593055D01*
X268087963Y-139592674D01*
X268089225Y-139593984D01*
X268094498Y-139611368D01*
X268105863Y-139632632D01*
X268121159Y-139651269D01*
X268139796Y-139666564D01*
X268161059Y-139677929D01*
X268184134Y-139684929D01*
X268208125Y-139687292D01*
X268232116Y-139684929D01*
X268255191Y-139677929D01*
X268276455Y-139666564D01*
X268295092Y-139651268D01*
X268310387Y-139632631D01*
X268321752Y-139611368D01*
X268327025Y-139593984D01*
X268328485Y-139592617D01*
X268330399Y-139593198D01*
G37*
G36*
X292142899Y-139593198D02*
G01*
X292143312Y-139594632D01*
X292143426Y-139594632D01*
X292143426Y-139805368D01*
X292143294Y-139805368D01*
X292142751Y-139806945D01*
X292140787Y-139807326D01*
X292139525Y-139806016D01*
X292134252Y-139788632D01*
X292122887Y-139767368D01*
X292107591Y-139748731D01*
X292088954Y-139733436D01*
X292067691Y-139722071D01*
X292044616Y-139715071D01*
X292020625Y-139712708D01*
X291996634Y-139715071D01*
X291973559Y-139722071D01*
X291952295Y-139733436D01*
X291933658Y-139748732D01*
X291918363Y-139767369D01*
X291906998Y-139788632D01*
X291901725Y-139806016D01*
X291900265Y-139807383D01*
X291898351Y-139806802D01*
X291897938Y-139805368D01*
X291897824Y-139805368D01*
X291897824Y-139594632D01*
X291897956Y-139594632D01*
X291898499Y-139593055D01*
X291900463Y-139592674D01*
X291901725Y-139593984D01*
X291906998Y-139611368D01*
X291918363Y-139632632D01*
X291933659Y-139651269D01*
X291952296Y-139666564D01*
X291973559Y-139677929D01*
X291996634Y-139684929D01*
X292020625Y-139687292D01*
X292044616Y-139684929D01*
X292067691Y-139677929D01*
X292088955Y-139666564D01*
X292107592Y-139651268D01*
X292122887Y-139632631D01*
X292134252Y-139611368D01*
X292139525Y-139593984D01*
X292140985Y-139592617D01*
X292142899Y-139593198D01*
G37*
G36*
X258170399Y-139593198D02*
G01*
X258170812Y-139594632D01*
X258170926Y-139594632D01*
X258170926Y-139805368D01*
X258170794Y-139805368D01*
X258170251Y-139806945D01*
X258168287Y-139807326D01*
X258167025Y-139806016D01*
X258161752Y-139788632D01*
X258150387Y-139767368D01*
X258135091Y-139748731D01*
X258116454Y-139733436D01*
X258095191Y-139722071D01*
X258072116Y-139715071D01*
X258048125Y-139712708D01*
X258024134Y-139715071D01*
X258001059Y-139722071D01*
X257979795Y-139733436D01*
X257961158Y-139748732D01*
X257945863Y-139767369D01*
X257934498Y-139788632D01*
X257929225Y-139806016D01*
X257927765Y-139807383D01*
X257925851Y-139806802D01*
X257925438Y-139805368D01*
X257925324Y-139805368D01*
X257925324Y-139594632D01*
X257925456Y-139594632D01*
X257925999Y-139593055D01*
X257927963Y-139592674D01*
X257929225Y-139593984D01*
X257934498Y-139611368D01*
X257945863Y-139632632D01*
X257961159Y-139651269D01*
X257979796Y-139666564D01*
X258001059Y-139677929D01*
X258024134Y-139684929D01*
X258048125Y-139687292D01*
X258072116Y-139684929D01*
X258095191Y-139677929D01*
X258116455Y-139666564D01*
X258135092Y-139651268D01*
X258150387Y-139632631D01*
X258161752Y-139611368D01*
X258167025Y-139593984D01*
X258168485Y-139592617D01*
X258170399Y-139593198D01*
G37*
G36*
X281982899Y-139593198D02*
G01*
X281983312Y-139594632D01*
X281983426Y-139594632D01*
X281983426Y-139805368D01*
X281983294Y-139805368D01*
X281982751Y-139806945D01*
X281980787Y-139807326D01*
X281979525Y-139806016D01*
X281974252Y-139788632D01*
X281962887Y-139767368D01*
X281947591Y-139748731D01*
X281928954Y-139733436D01*
X281907691Y-139722071D01*
X281884616Y-139715071D01*
X281860625Y-139712708D01*
X281836634Y-139715071D01*
X281813559Y-139722071D01*
X281792295Y-139733436D01*
X281773658Y-139748732D01*
X281758363Y-139767369D01*
X281746998Y-139788632D01*
X281741725Y-139806016D01*
X281740265Y-139807383D01*
X281738351Y-139806802D01*
X281737938Y-139805368D01*
X281737824Y-139805368D01*
X281737824Y-139594632D01*
X281737956Y-139594632D01*
X281738499Y-139593055D01*
X281740463Y-139592674D01*
X281741725Y-139593984D01*
X281746998Y-139611368D01*
X281758363Y-139632632D01*
X281773659Y-139651269D01*
X281792296Y-139666564D01*
X281813559Y-139677929D01*
X281836634Y-139684929D01*
X281860625Y-139687292D01*
X281884616Y-139684929D01*
X281907691Y-139677929D01*
X281928955Y-139666564D01*
X281947592Y-139651268D01*
X281962887Y-139632631D01*
X281974252Y-139611368D01*
X281979525Y-139593984D01*
X281980985Y-139592617D01*
X281982899Y-139593198D01*
G37*
G36*
X312706570Y-94121173D02*
G01*
X312707314Y-94123150D01*
X312666621Y-94327728D01*
X312665302Y-94329232D01*
X312663340Y-94328842D01*
X312662669Y-94327142D01*
X312664451Y-94309052D01*
X312662088Y-94285061D01*
X312655088Y-94261986D01*
X312643723Y-94240722D01*
X312628428Y-94222085D01*
X312609791Y-94206790D01*
X312588527Y-94195425D01*
X312565452Y-94188425D01*
X312541461Y-94186062D01*
X312523378Y-94187844D01*
X312521556Y-94187019D01*
X312521360Y-94185029D01*
X312522792Y-94183892D01*
X312580024Y-94172507D01*
X312704587Y-94120912D01*
X312706570Y-94121173D01*
G37*
G36*
X314033896Y-92736885D02*
G01*
X314034223Y-92738684D01*
X314028948Y-92756073D01*
X314026585Y-92780064D01*
X314028948Y-92804055D01*
X314035948Y-92827130D01*
X314047313Y-92848394D01*
X314062608Y-92867030D01*
X314081245Y-92882326D01*
X314102509Y-92893691D01*
X314125584Y-92900691D01*
X314149575Y-92903054D01*
X314167664Y-92901272D01*
X314169486Y-92902097D01*
X314169682Y-92904087D01*
X314168250Y-92905224D01*
X313945974Y-92949437D01*
X313944080Y-92948794D01*
X313943736Y-92946710D01*
X314030461Y-92737338D01*
X314032048Y-92736120D01*
X314033896Y-92736885D01*
G37*
G36*
X322600017Y-33783055D02*
G01*
X322601037Y-33786418D01*
X322610303Y-33808786D01*
X322623697Y-33828833D01*
X322640744Y-33845880D01*
X322660792Y-33859275D01*
X322683066Y-33868502D01*
X322706716Y-33873206D01*
X322730822Y-33873206D01*
X322754472Y-33868502D01*
X322776746Y-33859275D01*
X322796793Y-33845881D01*
X322813840Y-33828834D01*
X322827235Y-33808786D01*
X322832756Y-33795460D01*
X322832962Y-33795302D01*
X322836406Y-33786988D01*
X322837993Y-33785770D01*
X322839841Y-33786535D01*
X322840216Y-33788143D01*
X322820778Y-33885865D01*
X322820778Y-33988385D01*
X322840780Y-34088942D01*
X322850685Y-34112854D01*
X322850424Y-34114836D01*
X322848576Y-34115602D01*
X322847073Y-34114562D01*
X322838511Y-34098544D01*
X322823216Y-34079907D01*
X322804579Y-34064611D01*
X322783315Y-34053246D01*
X322760240Y-34046246D01*
X322736249Y-34043883D01*
X322712258Y-34046246D01*
X322689183Y-34053246D01*
X322667920Y-34064611D01*
X322649283Y-34079906D01*
X322633987Y-34098543D01*
X322622622Y-34119807D01*
X322615622Y-34142882D01*
X322613240Y-34167069D01*
X322612075Y-34168695D01*
X322610085Y-34168499D01*
X322609250Y-34166873D01*
X322609250Y-33917219D01*
X322596113Y-33783831D01*
X322596938Y-33782009D01*
X322598928Y-33781813D01*
X322600017Y-33783055D01*
G37*
G36*
X329865858Y-33782267D02*
G01*
X329866388Y-33783830D01*
X329853250Y-33917219D01*
X329853250Y-34166873D01*
X329852250Y-34168605D01*
X329850250Y-34168605D01*
X329849260Y-34167069D01*
X329846878Y-34142882D01*
X329839878Y-34119807D01*
X329828513Y-34098543D01*
X329813218Y-34079906D01*
X329794581Y-34064611D01*
X329773317Y-34053246D01*
X329750242Y-34046246D01*
X329726251Y-34043883D01*
X329702260Y-34046246D01*
X329679185Y-34053246D01*
X329657921Y-34064611D01*
X329639284Y-34079906D01*
X329623989Y-34098543D01*
X329615428Y-34114561D01*
X329613729Y-34115617D01*
X329611966Y-34114674D01*
X329611816Y-34112853D01*
X329621720Y-34088942D01*
X329641722Y-33988385D01*
X329641722Y-33885865D01*
X329622284Y-33788143D01*
X329622927Y-33786249D01*
X329624889Y-33785859D01*
X329626094Y-33786988D01*
X329628697Y-33793272D01*
X329628763Y-33793457D01*
X329630099Y-33797864D01*
X329641464Y-33819129D01*
X329656756Y-33837768D01*
X329675392Y-33853065D01*
X329696654Y-33864432D01*
X329719729Y-33871434D01*
X329743720Y-33873799D01*
X329767713Y-33871437D01*
X329790786Y-33864441D01*
X329812051Y-33853076D01*
X329830690Y-33837784D01*
X329845987Y-33819148D01*
X329857378Y-33797841D01*
X329861447Y-33786471D01*
X329862484Y-33783053D01*
X329863944Y-33781686D01*
X329865858Y-33782267D01*
G37*
M02*
