M48
; DRILL file {KiCad (5.1.12)-1} date 12/16/21 20:59:05
; FORMAT={-:-/ absolute / metric / decimal}
; #@! TF.CreationDate,2021-12-16T20:59:05-05:00
; #@! TF.GenerationSoftware,Kicad,Pcbnew,(5.1.12)-1
; #@! TF.FileFunction,Plated,1,2,PTH
FMAT,2
METRIC
T1C0.400
T2C0.600
T3C1.000
T4C1.040
T5C1.470
%
G90
G05
T1
X52.832Y-90.424
X57.912Y-90.551
X58.293Y-136.398
X60.198Y-49.276
X61.341Y-139.954
X61.468Y-93.726
X64.262Y-132.842
X64.262Y-137.795
X65.151Y-104.775
X67.183Y-125.73
X67.183Y-129.921
X67.691Y-34.671
X73.406Y-36.449
X73.406Y-43.561
X74.168Y-38.1
X106.807Y-37.719
X115.443Y-136.779
X120.904Y-33.528
X163.195Y-36.449
X163.195Y-46.863
X164.719Y-133.477
X167.894Y-33.401
X192.532Y-37.846
X196.469Y-136.525
X206.502Y-33.655
X226.187Y-135.128
X247.396Y-46.863
X248.793Y-36.449
X253.746Y-33.274
X270.891Y-128.524
X274.574Y-85.979
X278.257Y-37.719
X280.924Y-105.791
X280.924Y-124.587
X282.448Y-65.786
X283.718Y-48.514
X285.496Y-39.878
X288.417Y-73.533
X288.671Y-33.274
X289.433Y-81.026
X292.608Y-104.394
X294.386Y-103.886
X295.275Y-103.886
X295.529Y-89.027
X296.799Y-78.486
X298.831Y-53.086
X307.34Y-106.172
X307.34Y-107.188
X309.118Y-46.101
X317.881Y-43.053
X319.405Y-41.91
X319.405Y-42.926
X319.405Y-43.815
X319.405Y-65.786
X319.405Y-66.675
X319.405Y-67.564
X319.405Y-84.836
X319.405Y-85.725
X320.294Y-55.88
X320.294Y-56.769
X321.945Y-36.449
X322.326Y-38.354
X322.834Y-49.276
X322.834Y-50.165
X324.612Y-47.498
X324.993Y-37.084
X324.993Y-37.973
X327.533Y-136.144
X327.787Y-37.084
X327.787Y-37.973
X329.819Y-36.957
X329.819Y-38.354
X329.819Y-50.038
X331.318Y-103.048
X331.318Y-113.919
X332.994Y-65.786
X332.994Y-66.675
X332.994Y-67.564
X332.994Y-84.836
X332.994Y-85.725
X333.121Y-41.91
X333.121Y-42.926
X333.121Y-43.815
X333.121Y-44.704
X333.35Y-98.908
X334.137Y-54.102
X336.067Y-95.733
X339.725Y-52.832
X340.665Y-95.453
X340.868Y-54.356
X341.046Y-98.933
X342.417Y-115.748
X344.678Y-44.196
X344.678Y-68.072
X344.678Y-87.122
X346.075Y-142.113
X346.862Y-121.945
X347.828Y-122.123
X348.615Y-142.113
X350.139Y-132.969
X350.342Y-101.092
X353.949Y-97.536
X355.854Y-92.837
X356.514Y-137.033
X359.283Y-37.719
X363.093Y-98.298
X363.474Y-46.863
X363.728Y-40.64
X363.728Y-131.445
X363.728Y-140.335
X363.855Y-101.473
X364.49Y-98.298
X364.998Y-91.948
X366.522Y-43.561
X366.522Y-125.984
X366.522Y-142.24
X367.03Y-39.878
X368.173Y-46.609
X368.3Y-36.322
X368.3Y-120.142
X368.3Y-132.08
X368.3Y-138.303
X369.316Y-94.996
X369.57Y-134.747
X369.824Y-102.108
X372.11Y-46.609
X372.745Y-110.363
X372.745Y-116.459
X373.38Y-96.647
X374.523Y-107.696
T3
X376.555Y-104.616
X376.555Y-107.156
X376.555Y-109.696
X379.095Y-104.616
X379.095Y-107.156
X379.095Y-109.696
T4
X46.355Y-44.767
X46.355Y-68.58
X48.736Y-106.68
X48.736Y-125.73
X48.736Y-144.78
X48.895Y-44.767
X48.895Y-68.58
X51.117Y-87.63
X51.117Y-144.78
X51.276Y-106.68
X51.276Y-125.73
X51.276Y-144.78
X53.499Y-106.68
X53.657Y-87.63
X53.657Y-144.78
X56.039Y-106.68
X58.261Y-125.73
X60.801Y-125.73
X65.405Y-68.58
X67.945Y-68.58
X70.167Y-125.73
X72.549Y-144.78
X72.707Y-125.73
X74.93Y-87.63
X74.93Y-144.78
X75.089Y-144.78
X77.47Y-87.63
X77.47Y-144.78
X79.692Y-106.68
X82.233Y-106.68
X84.455Y-44.767
X84.455Y-68.58
X86.995Y-44.767
X86.995Y-68.58
X89.218Y-125.73
X91.757Y-125.73
X93.98Y-87.63
X96.361Y-144.78
X96.52Y-87.63
X98.742Y-106.68
X98.742Y-144.78
X98.901Y-144.78
X101.282Y-106.68
X101.282Y-144.78
X103.505Y-44.767
X103.505Y-68.58
X106.045Y-44.767
X106.045Y-68.58
X108.267Y-125.73
X110.807Y-125.73
X113.03Y-87.63
X115.57Y-87.63
X117.792Y-106.68
X120.332Y-106.68
X122.555Y-44.767
X122.555Y-68.58
X125.095Y-44.767
X125.095Y-68.58
X127.317Y-125.73
X129.857Y-125.73
X132.08Y-87.63
X134.62Y-87.63
X136.843Y-106.68
X139.382Y-106.68
X141.605Y-44.767
X141.605Y-68.58
X144.145Y-44.767
X144.145Y-68.58
X146.368Y-125.73
X148.907Y-125.73
X151.13Y-87.63
X153.67Y-87.63
X155.892Y-106.68
X158.433Y-106.68
X160.655Y-68.58
X163.195Y-68.58
X165.417Y-125.73
X167.799Y-144.78
X167.957Y-125.73
X170.18Y-44.767
X170.18Y-87.63
X170.339Y-144.78
X172.72Y-44.767
X172.72Y-87.63
X174.942Y-106.68
X177.482Y-106.68
X179.705Y-68.58
X179.705Y-144.78
X182.245Y-68.58
X182.245Y-144.78
X184.468Y-125.73
X187.007Y-125.73
X189.23Y-44.767
X189.23Y-87.63
X191.77Y-44.767
X191.77Y-87.63
X193.992Y-106.68
X196.532Y-106.68
X198.755Y-68.58
X201.295Y-68.58
X203.517Y-125.73
X206.058Y-125.73
X208.28Y-44.767
X208.28Y-87.63
X210.82Y-44.767
X210.82Y-87.63
X213.042Y-106.68
X215.582Y-106.68
X217.805Y-68.58
X220.345Y-68.58
X222.567Y-125.73
X225.107Y-125.73
X227.33Y-44.767
X227.33Y-87.63
X229.87Y-44.767
X229.87Y-87.63
X232.093Y-106.68
X234.632Y-106.68
X236.855Y-68.58
X239.236Y-144.78
X239.395Y-68.58
X241.617Y-125.73
X241.776Y-144.78
X244.157Y-125.73
X246.38Y-87.63
X248.92Y-87.63
X251.142Y-106.68
X253.682Y-106.68
X255.905Y-44.767
X255.905Y-68.58
X258.445Y-44.767
X258.445Y-68.58
X260.667Y-125.73
X260.667Y-144.78
X263.049Y-144.78
X263.207Y-125.73
X263.207Y-144.78
X265.43Y-87.63
X265.589Y-144.78
X267.97Y-87.63
X270.192Y-106.68
X272.733Y-106.68
X274.955Y-44.767
X274.955Y-68.58
X277.495Y-44.767
X277.495Y-68.58
X284.48Y-87.63
X284.48Y-144.78
X286.861Y-125.73
X286.861Y-144.78
X287.02Y-87.63
X287.02Y-144.78
X289.243Y-106.68
X289.401Y-125.73
X289.401Y-144.78
X291.782Y-106.68
X294.005Y-44.767
X294.005Y-68.58
X296.386Y-125.73
X296.545Y-44.767
X296.545Y-68.58
X298.926Y-125.73
X301.149Y-106.68
X303.53Y-68.58
X303.689Y-106.68
X306.07Y-68.58
X306.864Y-90.805
X306.864Y-93.345
X308.292Y-87.63
X308.292Y-144.78
X310.674Y-144.78
X310.832Y-87.63
X310.832Y-144.78
X313.055Y-44.767
X313.055Y-68.58
X313.055Y-125.73
X313.214Y-144.78
X315.595Y-44.767
X315.595Y-68.58
X315.595Y-125.73
X336.868Y-44.767
X336.868Y-68.58
X336.868Y-87.63
X336.868Y-144.78
X339.407Y-44.767
X339.407Y-68.58
X339.407Y-87.63
X339.407Y-144.78
X355.917Y-44.767
X355.917Y-68.58
X355.917Y-87.63
X355.917Y-125.73
X355.917Y-144.78
X358.457Y-44.767
X358.457Y-68.58
X358.457Y-87.63
X358.457Y-125.73
X358.457Y-144.78
X374.967Y-44.767
X374.967Y-68.58
X374.967Y-87.63
X374.967Y-144.78
X377.507Y-44.767
X377.507Y-68.58
X377.507Y-87.63
X377.507Y-144.78
T5
X43.815Y-37.148
X43.815Y-60.96
X45.125Y-35.688
X45.125Y-59.5
X46.196Y-99.06
X46.196Y-118.11
X46.196Y-137.16
X47.506Y-97.6
X47.506Y-116.65
X47.506Y-135.7
X48.578Y-80.01
X48.578Y-137.16
X49.887Y-78.55
X49.887Y-135.7
X50.125Y-35.188
X50.125Y-59.0
X50.165Y-34.608
X50.165Y-58.42
X50.959Y-99.06
X52.269Y-97.6
X52.506Y-97.1
X52.506Y-116.15
X52.506Y-135.2
X52.546Y-96.52
X52.546Y-115.57
X52.546Y-134.62
X54.887Y-78.05
X54.887Y-135.2
X54.927Y-77.47
X54.927Y-134.62
X55.721Y-118.11
X57.031Y-116.65
X57.269Y-97.1
X57.309Y-96.52
X62.031Y-116.15
X62.071Y-115.57
X62.865Y-60.96
X64.175Y-59.5
X67.627Y-118.11
X68.938Y-116.65
X69.175Y-59.0
X69.215Y-58.42
X70.009Y-137.16
X71.319Y-135.7
X72.39Y-80.01
X72.39Y-137.16
X73.7Y-78.55
X73.7Y-135.7
X73.938Y-116.15
X73.977Y-115.57
X76.319Y-135.2
X76.359Y-134.62
X77.153Y-99.06
X78.462Y-97.6
X78.7Y-78.05
X78.7Y-135.2
X78.74Y-77.47
X78.74Y-134.62
X81.915Y-37.148
X81.915Y-60.96
X83.225Y-35.688
X83.225Y-59.5
X83.462Y-97.1
X83.502Y-96.52
X86.677Y-118.11
X87.987Y-116.65
X88.225Y-35.188
X88.225Y-59.0
X88.265Y-34.608
X88.265Y-58.42
X91.44Y-80.01
X92.75Y-78.55
X92.987Y-116.15
X93.027Y-115.57
X93.821Y-137.16
X95.131Y-135.7
X96.203Y-99.06
X96.203Y-137.16
X97.512Y-97.6
X97.512Y-135.7
X97.75Y-78.05
X97.79Y-77.47
X100.131Y-135.2
X100.171Y-134.62
X100.965Y-37.148
X100.965Y-60.96
X102.275Y-35.688
X102.275Y-59.5
X102.512Y-97.1
X102.512Y-135.2
X102.552Y-96.52
X102.552Y-134.62
X105.727Y-118.11
X107.037Y-116.65
X107.275Y-35.188
X107.275Y-59.0
X107.315Y-34.608
X107.315Y-58.42
X110.49Y-80.01
X111.8Y-78.55
X112.037Y-116.15
X112.078Y-115.57
X115.252Y-99.06
X116.562Y-97.6
X116.8Y-78.05
X116.84Y-77.47
X120.015Y-37.148
X120.015Y-60.96
X121.325Y-35.688
X121.325Y-59.5
X121.562Y-97.1
X121.602Y-96.52
X124.777Y-118.11
X126.087Y-116.65
X126.325Y-35.188
X126.325Y-59.0
X126.365Y-34.608
X126.365Y-58.42
X129.54Y-80.01
X130.85Y-78.55
X131.088Y-116.15
X131.127Y-115.57
X134.302Y-99.06
X135.612Y-97.6
X135.85Y-78.05
X135.89Y-77.47
X139.065Y-37.148
X139.065Y-60.96
X140.375Y-35.688
X140.375Y-59.5
X140.612Y-97.1
X140.653Y-96.52
X143.827Y-118.11
X145.137Y-116.65
X145.375Y-35.188
X145.375Y-59.0
X145.415Y-34.608
X145.415Y-58.42
X148.59Y-80.01
X149.9Y-78.55
X150.137Y-116.15
X150.177Y-115.57
X153.352Y-99.06
X154.662Y-97.6
X154.9Y-78.05
X154.94Y-77.47
X158.115Y-60.96
X159.425Y-59.5
X159.662Y-97.1
X159.702Y-96.52
X162.877Y-118.11
X164.188Y-116.65
X164.425Y-59.0
X164.465Y-58.42
X165.259Y-137.16
X166.569Y-135.7
X167.64Y-37.148
X167.64Y-80.01
X168.95Y-35.688
X168.95Y-78.55
X169.188Y-116.15
X169.227Y-115.57
X171.569Y-135.2
X171.609Y-134.62
X172.403Y-99.06
X173.713Y-97.6
X173.95Y-35.188
X173.95Y-78.05
X173.99Y-34.608
X173.99Y-77.47
X177.165Y-60.96
X177.165Y-137.16
X178.475Y-59.5
X178.475Y-135.7
X178.713Y-97.1
X178.752Y-96.52
X181.927Y-118.11
X183.237Y-116.65
X183.475Y-59.0
X183.475Y-135.2
X183.515Y-58.42
X183.515Y-134.62
X186.69Y-37.148
X186.69Y-80.01
X188.0Y-35.688
X188.0Y-78.55
X188.237Y-116.15
X188.278Y-115.57
X191.452Y-99.06
X192.762Y-97.6
X193.0Y-35.188
X193.0Y-78.05
X193.04Y-34.608
X193.04Y-77.47
X196.215Y-60.96
X197.525Y-59.5
X197.762Y-97.1
X197.802Y-96.52
X200.977Y-118.11
X202.287Y-116.65
X202.525Y-59.0
X202.565Y-58.42
X205.74Y-37.148
X205.74Y-80.01
X207.05Y-35.688
X207.05Y-78.55
X207.287Y-116.15
X207.327Y-115.57
X210.502Y-99.06
X211.812Y-97.6
X212.05Y-35.188
X212.05Y-78.05
X212.09Y-34.608
X212.09Y-77.47
X215.265Y-60.96
X216.575Y-59.5
X216.812Y-97.1
X216.852Y-96.52
X220.028Y-118.11
X221.337Y-116.65
X221.575Y-59.0
X221.615Y-58.42
X224.79Y-37.148
X224.79Y-80.01
X226.1Y-35.688
X226.1Y-78.55
X226.337Y-116.15
X226.377Y-115.57
X229.552Y-99.06
X230.862Y-97.6
X231.1Y-35.188
X231.1Y-78.05
X231.14Y-34.608
X231.14Y-77.47
X234.315Y-60.96
X235.625Y-59.5
X235.862Y-97.1
X235.903Y-96.52
X236.696Y-137.16
X238.006Y-135.7
X239.077Y-118.11
X240.387Y-116.65
X240.625Y-59.0
X240.665Y-58.42
X243.006Y-135.2
X243.046Y-134.62
X243.84Y-80.01
X245.15Y-78.55
X245.387Y-116.15
X245.427Y-115.57
X248.602Y-99.06
X249.912Y-97.6
X250.15Y-78.05
X250.19Y-77.47
X253.365Y-37.148
X253.365Y-60.96
X254.675Y-35.688
X254.675Y-59.5
X254.912Y-97.1
X254.952Y-96.52
X258.127Y-118.11
X258.127Y-137.16
X259.438Y-116.65
X259.438Y-135.7
X259.675Y-35.188
X259.675Y-59.0
X259.715Y-34.608
X259.715Y-58.42
X260.509Y-137.16
X261.819Y-135.7
X262.89Y-80.01
X264.2Y-78.55
X264.438Y-116.15
X264.438Y-135.2
X264.477Y-115.57
X264.477Y-134.62
X266.819Y-135.2
X266.859Y-134.62
X267.652Y-99.06
X268.962Y-97.6
X269.2Y-78.05
X269.24Y-77.47
X272.415Y-37.148
X272.415Y-60.96
X273.725Y-35.688
X273.725Y-59.5
X273.962Y-97.1
X274.002Y-96.52
X278.725Y-35.188
X278.725Y-59.0
X278.765Y-34.608
X278.765Y-58.42
X281.94Y-80.01
X281.94Y-137.16
X283.25Y-78.55
X283.25Y-135.7
X284.321Y-118.11
X284.321Y-137.16
X285.631Y-116.65
X285.631Y-135.7
X286.702Y-99.06
X288.012Y-97.6
X288.25Y-78.05
X288.25Y-135.2
X288.29Y-77.47
X288.29Y-134.62
X290.631Y-116.15
X290.631Y-135.2
X290.671Y-115.57
X290.671Y-134.62
X291.465Y-37.148
X291.465Y-60.96
X292.775Y-35.688
X292.775Y-59.5
X293.012Y-97.1
X293.053Y-96.52
X293.846Y-118.11
X295.156Y-116.65
X297.775Y-35.188
X297.775Y-59.0
X297.815Y-34.608
X297.815Y-58.42
X298.609Y-99.06
X299.919Y-97.6
X300.156Y-116.15
X300.196Y-115.57
X300.99Y-60.96
X302.3Y-59.5
X304.919Y-97.1
X304.959Y-96.52
X305.752Y-80.01
X305.752Y-137.16
X307.062Y-78.55
X307.062Y-135.7
X307.3Y-59.0
X307.34Y-58.42
X308.134Y-137.16
X309.444Y-135.7
X310.515Y-37.148
X310.515Y-60.96
X310.515Y-118.11
X311.825Y-35.688
X311.825Y-59.5
X311.825Y-116.65
X312.062Y-78.05
X312.062Y-135.2
X312.102Y-77.47
X312.102Y-134.62
X314.444Y-135.2
X314.484Y-88.265
X314.484Y-134.62
X315.944Y-89.575
X316.444Y-94.575
X316.825Y-35.188
X316.825Y-59.0
X316.825Y-116.15
X316.865Y-34.608
X316.865Y-58.42
X316.865Y-115.57
X317.024Y-94.615
X334.327Y-37.148
X334.327Y-60.96
X334.327Y-80.01
X334.327Y-137.16
X335.637Y-35.688
X335.637Y-59.5
X335.637Y-78.55
X335.637Y-135.7
X340.637Y-35.188
X340.637Y-59.0
X340.637Y-78.05
X340.637Y-135.2
X340.678Y-34.608
X340.678Y-58.42
X340.678Y-77.47
X340.678Y-134.62
X353.377Y-37.148
X353.377Y-60.96
X353.377Y-80.01
X353.377Y-118.11
X353.377Y-137.16
X354.688Y-35.688
X354.688Y-59.5
X354.688Y-78.55
X354.688Y-116.65
X354.688Y-135.7
X359.688Y-35.188
X359.688Y-59.0
X359.688Y-78.05
X359.688Y-116.15
X359.688Y-135.2
X359.727Y-34.608
X359.727Y-58.42
X359.727Y-77.47
X359.727Y-115.57
X359.727Y-134.62
X372.428Y-37.148
X372.428Y-60.96
X372.428Y-80.01
X372.428Y-137.16
X373.738Y-35.688
X373.738Y-59.5
X373.738Y-78.55
X373.738Y-135.7
X378.737Y-35.188
X378.737Y-59.0
X378.737Y-78.05
X378.737Y-135.2
X378.777Y-34.608
X378.777Y-58.42
X378.777Y-77.47
X378.777Y-134.62
T2
G00X321.911Y-29.987
M15
G01X321.911Y-30.587
M16
G05
G00X321.911Y-33.917
M15
G01X321.911Y-35.017
M16
G05
G00X330.551Y-29.987
M15
G01X330.551Y-30.587
M16
G05
G00X330.551Y-33.917
M15
G01X330.551Y-35.017
M16
G05
T0
M30
