M48
; DRILL file {KiCad (5.1.12)-1} date 12/16/21 20:59:05
; FORMAT={-:-/ absolute / metric / decimal}
; #@! TF.CreationDate,2021-12-16T20:59:05-05:00
; #@! TF.GenerationSoftware,Kicad,Pcbnew,(5.1.12)-1
; #@! TF.FileFunction,NonPlated,1,2,NPTH
FMAT,2
METRIC
T1C0.650
T2C0.900
T3C1.702
T4C1.750
T5C3.048
T6C3.988
%
G90
G05
T1
X323.341Y-33.937
X329.121Y-33.937
T2
X68.593Y-100.894
X68.593Y-103.894
X365.212Y-50.336
X368.212Y-50.336
T3
X311.944Y-86.995
X311.944Y-97.155
T4
X42.545Y-39.688
X42.545Y-63.5
X44.926Y-101.6
X44.926Y-120.65
X44.926Y-139.7
X47.307Y-82.55
X47.307Y-139.7
X49.689Y-101.6
X52.705Y-39.688
X52.705Y-63.5
X54.451Y-120.65
X55.086Y-101.6
X55.086Y-120.65
X55.086Y-139.7
X57.467Y-82.55
X57.467Y-139.7
X59.849Y-101.6
X61.595Y-63.5
X64.611Y-120.65
X66.358Y-120.65
X68.739Y-139.7
X71.12Y-82.55
X71.12Y-139.7
X71.755Y-63.5
X75.882Y-101.6
X76.517Y-120.65
X78.899Y-139.7
X80.645Y-39.688
X80.645Y-63.5
X81.28Y-82.55
X81.28Y-139.7
X85.407Y-120.65
X86.042Y-101.6
X90.17Y-82.55
X90.805Y-39.688
X90.805Y-63.5
X92.551Y-139.7
X94.932Y-101.6
X94.932Y-139.7
X95.567Y-120.65
X99.695Y-39.688
X99.695Y-63.5
X100.33Y-82.55
X102.711Y-139.7
X104.457Y-120.65
X105.093Y-101.6
X105.093Y-139.7
X109.22Y-82.55
X109.855Y-39.688
X109.855Y-63.5
X113.983Y-101.6
X114.617Y-120.65
X118.745Y-39.688
X118.745Y-63.5
X119.38Y-82.55
X123.507Y-120.65
X124.142Y-101.6
X128.27Y-82.55
X128.905Y-39.688
X128.905Y-63.5
X133.032Y-101.6
X133.667Y-120.65
X137.795Y-39.688
X137.795Y-63.5
X138.43Y-82.55
X142.558Y-120.65
X143.192Y-101.6
X147.32Y-82.55
X147.955Y-39.688
X147.955Y-63.5
X152.082Y-101.6
X152.718Y-120.65
X156.845Y-63.5
X157.48Y-82.55
X161.607Y-120.65
X162.243Y-101.6
X163.989Y-139.7
X166.37Y-39.688
X166.37Y-82.55
X167.005Y-63.5
X171.132Y-101.6
X171.767Y-120.65
X174.149Y-139.7
X175.895Y-63.5
X175.895Y-139.7
X176.53Y-39.688
X176.53Y-82.55
X180.657Y-120.65
X181.292Y-101.6
X185.42Y-39.688
X185.42Y-82.55
X186.055Y-63.5
X186.055Y-139.7
X190.183Y-101.6
X190.817Y-120.65
X194.945Y-63.5
X195.58Y-39.688
X195.58Y-82.55
X199.707Y-120.65
X200.343Y-101.6
X204.47Y-39.688
X204.47Y-82.55
X205.105Y-63.5
X209.232Y-101.6
X209.867Y-120.65
X213.995Y-63.5
X214.63Y-39.688
X214.63Y-82.55
X218.757Y-120.65
X219.392Y-101.6
X223.52Y-39.688
X223.52Y-82.55
X224.155Y-63.5
X228.282Y-101.6
X228.917Y-120.65
X233.045Y-63.5
X233.68Y-39.688
X233.68Y-82.55
X235.426Y-139.7
X237.807Y-120.65
X238.442Y-101.6
X242.57Y-82.55
X243.205Y-63.5
X245.586Y-139.7
X247.332Y-101.6
X247.968Y-120.65
X252.095Y-39.688
X252.095Y-63.5
X252.73Y-82.55
X256.858Y-120.65
X256.858Y-139.7
X257.493Y-101.6
X259.239Y-139.7
X261.62Y-82.55
X262.255Y-39.688
X262.255Y-63.5
X266.382Y-101.6
X267.017Y-120.65
X267.017Y-139.7
X269.399Y-139.7
X271.145Y-39.688
X271.145Y-63.5
X271.78Y-82.55
X276.542Y-101.6
X280.67Y-82.55
X280.67Y-139.7
X281.305Y-39.688
X281.305Y-63.5
X283.051Y-120.65
X283.051Y-139.7
X285.433Y-101.6
X290.195Y-39.688
X290.195Y-63.5
X290.83Y-82.55
X290.83Y-139.7
X292.576Y-120.65
X293.211Y-120.65
X293.211Y-139.7
X295.592Y-101.6
X297.339Y-101.6
X299.72Y-63.5
X300.355Y-39.688
X300.355Y-63.5
X302.736Y-120.65
X304.482Y-82.55
X304.482Y-139.7
X306.864Y-139.7
X307.499Y-101.6
X309.245Y-39.688
X309.245Y-63.5
X309.245Y-120.65
X309.88Y-63.5
X314.642Y-82.55
X314.642Y-139.7
X317.024Y-139.7
X319.405Y-39.688
X319.405Y-63.5
X319.405Y-120.65
X333.058Y-39.688
X333.058Y-63.5
X333.058Y-82.55
X333.058Y-139.7
X343.217Y-39.688
X343.217Y-63.5
X343.217Y-82.55
X343.217Y-139.7
X352.107Y-39.688
X352.107Y-63.5
X352.107Y-82.55
X352.107Y-120.65
X352.107Y-139.7
X362.267Y-39.688
X362.267Y-63.5
X362.267Y-82.55
X362.267Y-120.65
X362.267Y-139.7
X371.157Y-39.688
X371.157Y-63.5
X371.157Y-82.55
X371.157Y-139.7
X381.317Y-39.688
X381.317Y-63.5
X381.317Y-82.55
X381.317Y-139.7
T5
X47.593Y-113.665
X71.469Y-113.665
X119.069Y-146.685
X123.825Y-146.685
X219.069Y-146.685
X238.125Y-146.685
X285.718Y-113.665
X290.481Y-94.615
X292.862Y-56.515
X309.594Y-113.665
X314.357Y-94.615
X316.738Y-56.515
X318.929Y-80.137
X318.929Y-104.013
T6
X47.593Y-128.905
X47.625Y-39.688
X47.625Y-63.5
X50.006Y-101.6
X50.006Y-120.65
X50.006Y-139.7
X52.387Y-82.55
X52.387Y-139.7
X54.769Y-101.6
X59.531Y-120.65
X66.675Y-63.5
X71.438Y-120.65
X71.469Y-128.905
X73.819Y-139.7
X76.2Y-82.55
X76.2Y-139.7
X80.962Y-101.6
X85.725Y-39.688
X85.725Y-63.5
X90.487Y-120.65
X95.25Y-82.55
X97.631Y-139.7
X100.012Y-101.6
X100.012Y-139.7
X104.775Y-39.688
X104.775Y-63.5
X109.537Y-120.65
X114.3Y-82.55
X119.062Y-101.6
X119.069Y-131.445
X123.825Y-39.688
X123.825Y-63.5
X123.825Y-131.445
X128.588Y-120.65
X133.35Y-82.55
X138.112Y-101.6
X142.875Y-39.688
X142.875Y-63.5
X147.637Y-120.65
X152.4Y-82.55
X157.162Y-101.6
X161.925Y-63.5
X166.688Y-120.65
X169.069Y-139.7
X171.45Y-39.688
X171.45Y-82.55
X176.213Y-101.6
X180.975Y-63.5
X180.975Y-139.7
X185.737Y-120.65
X190.5Y-39.688
X190.5Y-82.55
X195.262Y-101.6
X200.025Y-63.5
X204.787Y-120.65
X209.55Y-39.688
X209.55Y-82.55
X214.312Y-101.6
X219.069Y-131.445
X219.075Y-63.5
X223.837Y-120.65
X228.6Y-39.688
X228.6Y-82.55
X233.362Y-101.6
X238.125Y-63.5
X238.125Y-131.445
X240.506Y-139.7
X242.887Y-120.65
X247.65Y-82.55
X252.412Y-101.6
X257.175Y-39.688
X257.175Y-63.5
X261.938Y-120.65
X261.938Y-139.7
X264.319Y-139.7
X266.7Y-82.55
X271.462Y-101.6
X276.225Y-39.688
X276.225Y-63.5
X285.718Y-128.905
X285.75Y-82.55
X285.75Y-139.7
X288.131Y-120.65
X288.131Y-139.7
X290.481Y-109.855
X290.512Y-101.6
X292.862Y-71.755
X295.275Y-39.688
X295.275Y-63.5
X297.656Y-120.65
X302.419Y-101.6
X303.689Y-80.137
X303.689Y-104.013
X304.8Y-63.5
X309.562Y-82.55
X309.562Y-139.7
X309.594Y-128.905
X311.944Y-92.075
X311.944Y-139.7
X314.325Y-39.688
X314.325Y-63.5
X314.325Y-120.65
X314.357Y-109.855
X316.738Y-71.755
X338.137Y-39.688
X338.137Y-63.5
X338.137Y-82.55
X338.137Y-139.7
X357.188Y-39.688
X357.188Y-63.5
X357.188Y-82.55
X357.188Y-120.65
X357.188Y-139.7
X376.238Y-39.688
X376.238Y-63.5
X376.238Y-82.55
X376.238Y-139.7
T0
M30
